<?xml version="1.0" encoding="UTF-8"?>
<!DOCTYPE svg PUBLIC "-//W3C//DTD SVG 1.1//EN" "http://www.w3.org/Graphics/SVG/1.1/DTD/svg11.dtd">
<svg xmlns="http://www.w3.org/2000/svg" version="1.1" width="1920px" height="1080px" style="shape-rendering:geometricPrecision; text-rendering:geometricPrecision; image-rendering:optimizeQuality; fill-rule:evenodd; clip-rule:evenodd" xmlns:xlink="http://www.w3.org/1999/xlink">
<g><path style="opacity:0.98" fill="#e85433" d="M 975.5,114.5 C 978.389,115.008 981.222,115.675 984,116.5C 995.171,116.742 1005.5,120.409 1015,127.5C 1016.36,126.742 1017.53,127.242 1018.5,129C 1029.95,133.264 1039.11,140.764 1046,151.5C 1052.12,161.758 1056.79,173.092 1060,185.5C 1061.32,200.349 1060.32,215.015 1057,229.5C 1042.6,268.784 1022.6,304.784 997,337.5C 967.868,373.383 930.868,395.717 886,404.5C 879.244,403.412 872.578,403.412 866,404.5C 863.034,403.446 860.034,402.446 857,401.5C 854.911,401.745 852.911,401.745 851,401.5C 845.236,398.363 839.069,395.197 832.5,392C 827.571,387.616 822.738,383.116 818,378.5C 817.727,376.671 816.893,375.171 815.5,374C 815.833,373.667 816.167,373.333 816.5,373C 809.693,364.219 804.86,354.386 802,343.5C 800.492,334.419 798.659,325.419 796.5,316.5C 796.97,304.042 798.47,291.709 801,279.5C 802.675,270.808 805.342,262.475 809,254.5C 814.175,246.152 818.842,237.485 823,228.5C 849.255,189.913 881.422,157.413 919.5,131C 934.111,123.302 949.611,118.135 966,115.5C 967.956,115.661 969.956,115.994 972,116.5C 973.302,115.915 974.469,115.249 975.5,114.5 Z"/></g>
<g><path style="opacity:0.981" fill="#e85433" d="M 671.5,120.5 C 675.68,121.731 679.847,121.731 684,120.5C 687.827,121.869 691.493,123.536 695,125.5C 695.414,125.043 695.914,124.709 696.5,124.5C 705.055,127.708 713.722,131.541 722.5,136C 724.96,137.458 727.127,139.291 729,141.5C 729.333,141.167 729.667,140.833 730,140.5C 737.906,145.35 745.239,151.683 752,159.5C 755.228,167.059 758.894,174.392 763,181.5C 767.466,198.69 768.133,216.023 765,233.5C 760.906,245.971 757.573,258.637 755,271.5C 738.08,315.19 713.247,353.69 680.5,387C 673.176,392.655 665.843,398.321 658.5,404C 650.504,408.998 642.171,413.332 633.5,417C 625.045,418.751 616.879,420.585 609,422.5C 605.016,422.189 600.849,421.522 596.5,420.5C 593.121,421.025 589.788,420.358 586.5,418.5C 582.417,418.504 578.584,417.171 575,414.5C 574.667,414.833 574.333,415.167 574,415.5C 571.667,413.833 569.333,412.167 567,410.5C 566.667,410.833 566.333,411.167 566,411.5C 558.985,406.002 551.485,400.502 543.5,395C 538.275,388.106 533.442,380.94 529,373.5C 523.915,356.54 522.249,339.206 524,321.5C 527.816,270.495 544.149,224.161 573,182.5C 592.954,156.165 618.287,137.165 649,125.5C 656.644,123.871 664.144,122.204 671.5,120.5 Z"/></g>
<g><path style="opacity:0.979" fill="#e85433" d="M 1017.5,557.5 C 1010.65,553.646 1003.32,549.813 995.5,546C 989.134,539.969 983.134,533.636 977.5,527C 977.833,526.667 978.167,526.333 978.5,526C 971.168,513.222 967.502,499.389 967.5,484.5C 971.438,448.977 984.438,417.31 1006.5,389.5C 1013.05,381.742 1020.05,374.408 1027.5,367.5C 1057.43,341.779 1090.43,320.612 1126.5,304C 1134.42,301.692 1142.26,299.192 1150,296.5C 1154.26,297.42 1158.43,297.087 1162.5,295.5C 1167.74,295.591 1172.91,295.591 1178,295.5C 1181.52,295.642 1184.85,296.976 1188,299.5C 1190,299.5 1192,299.5 1194,299.5C 1202.88,304.085 1211.38,308.585 1219.5,313C 1232.35,325.505 1241.68,339.839 1247.5,356C 1250.33,362.683 1252,369.683 1252.5,377C 1252.45,392.707 1249.61,407.874 1244,422.5C 1233.56,445.049 1219.9,465.383 1203,483.5C 1191.35,494.652 1179.85,505.986 1168.5,517.5C 1160.36,523.475 1152.36,529.642 1144.5,536C 1132.43,542.49 1120.43,549.157 1108.5,556C 1096.61,558.65 1084.77,561.483 1073,564.5C 1072.23,564.355 1071.56,564.022 1071,563.5C 1068.2,564.211 1065.37,564.878 1062.5,565.5C 1055.65,564.64 1048.65,563.64 1041.5,562.5C 1039.84,563.223 1038.17,562.89 1036.5,561.5C 1034.3,561.587 1032.13,561.587 1030,561.5C 1027.51,560.257 1025.01,559.09 1022.5,558C 1020.87,557.506 1019.2,557.34 1017.5,557.5 Z"/></g>
<g><path style="opacity:0.991" fill="#e85433" d="M 727.5,424.5 C 733.32,424.68 739.153,424.68 745,424.5C 748.8,425.199 752.633,425.865 756.5,426.5C 760.795,425.593 765.295,425.926 770,427.5C 773.098,426.456 776.098,426.789 779,428.5C 780.667,428.167 782.333,427.833 784,427.5C 792.276,428.972 800.11,430.972 807.5,433.5C 809.777,433.015 811.944,433.681 814,435.5C 816,435.5 818,435.5 820,435.5C 834.53,441.506 849.03,448.34 863.5,456C 868.014,459.091 872.347,462.425 876.5,466C 888.333,476.5 899.5,487.667 910,499.5C 916.586,510.337 922.919,521.337 929,532.5C 944.32,573.042 950.654,615.042 948,658.5C 945.174,698.211 941.841,737.878 938,777.5C 932.363,815.019 925.696,852.352 918,889.5C 914.75,904.167 910.417,918.5 905,932.5C 897.84,947.312 891.174,962.312 885,977.5C 875.244,994.755 863.744,1010.76 850.5,1025.5C 836.7,1037.09 821.7,1046.92 805.5,1055C 736.725,1071.39 680.225,1049.89 636,990.5C 623.453,969.893 613.786,947.893 607,924.5C 599.623,896.995 591.623,869.662 583,842.5C 577.507,835.259 572.174,827.926 567,820.5C 561.631,816.857 556.297,812.524 551,807.5C 550.667,807.833 550.333,808.167 550,808.5C 545.774,803.929 540.774,800.596 535,798.5C 534.667,798.833 534.333,799.167 534,799.5C 528.904,797.371 523.737,795.371 518.5,793.5C 516.378,793.377 514.211,793.377 512,793.5C 510.333,792.5 508.667,791.5 507,790.5C 505,790.5 503,790.5 501,790.5C 499.445,788.854 497.779,788.521 496,789.5C 487.528,787.196 479.362,784.863 471.5,782.5C 470.914,782.709 470.414,783.043 470,783.5C 451.044,778.107 432.21,772.274 413.5,766C 400.271,759.645 387.271,752.312 374.5,744C 365.637,734.803 356.47,725.969 347,717.5C 317.104,679.386 306.771,636.386 316,588.5C 324.98,563.525 339.48,542.359 359.5,525C 372.299,515.2 385.632,506.2 399.5,498C 403.363,496.268 407.363,494.934 411.5,494C 420.904,488.023 430.738,482.857 441,478.5C 449.123,476.35 456.957,473.517 464.5,470C 476.009,465.998 487.509,462.831 499,460.5C 504.934,460.395 510.767,459.062 516.5,456.5C 517.842,457.902 518.676,457.569 519,455.5C 519.561,456.022 520.228,456.355 521,456.5C 526.422,455.026 531.755,453.359 537,451.5C 537.414,451.957 537.914,452.291 538.5,452.5C 543.72,450.927 548.886,449.26 554,447.5C 554.561,448.022 555.228,448.355 556,448.5C 563.518,447.753 570.852,445.753 578,442.5C 578.561,443.022 579.228,443.355 580,443.5C 585.418,442.349 590.752,441.016 596,439.5C 596.561,440.022 597.228,440.355 598,440.5C 602.596,439.645 607.262,438.645 612,437.5C 612.772,437.645 613.439,437.978 614,438.5C 620.384,437.371 626.718,436.038 633,434.5C 635.37,435.128 637.703,435.461 640,435.5C 643.93,434.641 647.93,433.641 652,432.5C 652.561,433.022 653.228,433.355 654,433.5C 660.012,432.582 666.012,431.582 672,430.5C 672.772,430.645 673.439,430.978 674,431.5C 683,429.833 692,428.167 701,426.5C 701.561,427.022 702.228,427.355 703,427.5C 711.124,426.638 719.291,425.638 727.5,424.5 Z"/></g>
<g><path style="opacity:0.007" fill="#e85433" d="M 1017.5,557.5 C 1016.45,559.256 1014.78,559.923 1012.5,559.5C 1013.64,557.787 1015.3,557.12 1017.5,557.5 Z"/></g>
<g><path style="opacity:0.004" fill="#e85433" d="M 1012.5,559.5 C 1012.59,561.698 1011.92,562.031 1010.5,560.5C 1010.41,558.302 1011.08,557.969 1012.5,559.5 Z"/></g>
<g><path style="opacity:0.004" fill="#e85433" d="M 1010.5,560.5 C 1009.83,561.167 1009.83,561.167 1010.5,560.5 Z"/></g>
<g><path style="opacity:0.98" fill="#e85433" d="M 1161.5,587.5 C 1176.39,587.348 1190.23,591.014 1203,598.5C 1203.33,598.167 1203.67,597.833 1204,597.5C 1211.22,601.388 1217.55,606.388 1223,612.5C 1234.64,627.442 1243.98,643.776 1251,661.5C 1253.5,673.77 1253.5,686.103 1251,698.5C 1238.71,739.775 1214.88,772.609 1179.5,797C 1162.53,807.656 1144.87,816.989 1126.5,825C 1103.77,832.793 1081.27,838.96 1059,843.5C 1048.03,844.199 1037.03,844.199 1026,843.5C 1024.67,842.833 1023.33,842.167 1022,841.5C 1020,841.5 1018,841.5 1016,841.5C 999.707,835.011 986.041,824.011 975,808.5C 957.124,780.949 955.124,752.282 969,722.5C 978.1,703.735 989.934,686.902 1004.5,672C 1023.67,654.163 1044,637.829 1065.5,623C 1092.13,606.727 1120.8,595.227 1151.5,588.5C 1153.6,588.479 1155.77,588.813 1158,589.5C 1159.3,588.915 1160.47,588.249 1161.5,587.5 Z"/></g>
</svg>
