<?xml version="1.0" encoding="UTF-8"?>
<!DOCTYPE svg PUBLIC "-//W3C//DTD SVG 1.1//EN" "http://www.w3.org/Graphics/SVG/1.1/DTD/svg11.dtd">
<svg xmlns="http://www.w3.org/2000/svg" version="1.1" width="1920px" height="1080px" style="shape-rendering:geometricPrecision; text-rendering:geometricPrecision; image-rendering:optimizeQuality; fill-rule:evenodd; clip-rule:evenodd" xmlns:xlink="http://www.w3.org/1999/xlink">
<g><path style="opacity:0.991" fill="#76c7f4" d="M 1116.5,35.5 C 1120.69,35.7924 1125.19,35.7924 1130,35.5C 1132.33,36.1667 1134.67,36.8333 1137,37.5C 1140.15,36.9094 1143.48,36.9094 1147,37.5C 1148.67,38.1667 1150.33,38.8333 1152,39.5C 1152.33,39.1667 1152.67,38.8333 1153,38.5C 1159.59,40.112 1166.59,42.4453 1174,45.5C 1180.29,46.2834 1186.29,48.6167 1192,52.5C 1192.33,52.1667 1192.67,51.8333 1193,51.5C 1238.01,76.1887 1268.01,113.189 1283,162.5C 1290.41,195.845 1293.91,229.012 1293.5,262C 1294.57,279.501 1296.24,297.167 1298.5,315C 1298.17,315.333 1297.83,315.667 1297.5,316C 1302.19,326.544 1307.02,337.044 1312,347.5C 1319.49,356.656 1327.32,365.489 1335.5,374C 1352.33,383.114 1369.33,391.947 1386.5,400.5C 1387.09,400.291 1387.59,399.957 1388,399.5C 1395.67,403.833 1403.33,408.167 1411,412.5C 1411.33,412.167 1411.67,411.833 1412,411.5C 1427.61,420.929 1443.78,430.429 1460.5,440C 1492.42,463.662 1515.25,494.162 1529,531.5C 1542.3,574.259 1538.97,615.926 1519,656.5C 1495.66,690.004 1464.99,712.004 1427,722.5C 1424.54,723.65 1422.2,724.983 1420,726.5C 1419.67,726.167 1419.33,725.833 1419,725.5C 1413.81,727.896 1408.48,729.896 1403,731.5C 1401.63,731.757 1400.13,731.423 1398.5,730.5C 1378.56,736.112 1357.72,740.445 1336,743.5C 1335,743.167 1334,742.833 1333,742.5C 1331.67,743.167 1330.33,743.833 1329,744.5C 1282.99,745.806 1239.32,745.806 1198,744.5C 1195.67,743.833 1193.33,743.167 1191,742.5C 1188.26,743.066 1185.59,743.399 1183,743.5C 1180.67,742.833 1178.33,742.167 1176,741.5C 1173.82,741.428 1171.82,741.762 1170,742.5C 1161.38,741.484 1152.54,740.15 1143.5,738.5C 1140.9,739.714 1138.06,739.381 1135,737.5C 1133.09,737.421 1131.09,737.754 1129,738.5C 1128.31,737.643 1127.48,736.977 1126.5,736.5C 1121.45,735.976 1116.62,735.976 1112,736.5C 1107.84,735.855 1103.5,734.855 1099,733.5C 1053.85,732.485 1008.02,721.985 961.5,702C 951.5,696.333 941.5,690.667 931.5,685C 919.162,675.323 907.496,664.99 896.5,654C 887.483,640.287 878.483,626.62 869.5,613C 866.561,606.926 863.561,600.426 860.5,593.5C 860.709,592.914 861.043,592.414 861.5,592C 857.05,579.627 853.383,567.293 850.5,555C 850.721,553.201 851.054,551.368 851.5,549.5C 850.572,542.868 849.572,536.201 848.5,529.5C 849.711,523.622 849.711,517.789 848.5,512C 849.167,509.667 849.833,507.333 850.5,505C 849.675,502.23 849.341,499.563 849.5,497C 850.781,491.652 851.781,486.318 852.5,481C 852.507,479.417 852.174,477.751 851.5,476C 854.404,461.053 857.571,446.22 861,431.5C 862.043,428.643 863.21,425.81 864.5,423C 864.167,422.667 863.833,422.333 863.5,422C 871.825,396.433 880.158,370.766 888.5,345C 888.043,344.586 887.709,344.086 887.5,343.5C 897.224,315.291 907.724,286.958 919,258.5C 930.255,234.665 940.922,210.665 951,186.5C 959.31,169.876 968.644,153.876 979,138.5C 989.062,126.705 998.395,114.372 1007,101.5C 1025.46,79.4988 1047.12,61.8321 1072,48.5C 1072.33,48.8333 1072.67,49.1667 1073,49.5C 1087.59,42.7757 1102.09,38.1091 1116.5,35.5 Z"/></g>
<g><path style="opacity:0.982" fill="#76c7f4" d="M 756.5,199.5 C 761.422,200.296 766.589,200.296 772,199.5C 776.667,200.167 781.333,200.833 786,201.5C 787.907,201.579 789.907,201.246 792,200.5C 794.043,202.521 796.043,202.854 798,201.5C 801.178,202.856 804.178,203.856 807,204.5C 809.667,203.167 812.333,203.167 815,204.5C 830.917,208.994 844.584,217.661 856,230.5C 862.201,240.904 867.868,251.57 873,262.5C 881.243,288.258 878.91,312.924 866,336.5C 849.86,361.184 829.86,381.184 806,396.5C 805.667,396.167 805.333,395.833 805,395.5C 800.667,398.5 796.333,401.5 792,404.5C 788.724,404.984 785.724,406.651 783,409.5C 782.667,409.167 782.333,408.833 782,408.5C 748.989,428.311 713.656,440.977 676,446.5C 671.063,446.708 666.396,446.708 662,446.5C 661.333,447.167 660.667,447.833 660,448.5C 656.408,449.325 653.075,449.325 650,448.5C 648.667,449.167 647.333,449.833 646,450.5C 643,449.167 640,449.167 637,450.5C 635.333,449.833 633.667,449.167 632,448.5C 630.176,449.238 628.176,449.572 626,449.5C 618.569,447.888 611.569,445.888 605,443.5C 602.945,443.848 600.945,443.181 599,441.5C 598.667,441.833 598.333,442.167 598,442.5C 589.473,437.571 581.473,431.904 574,425.5C 573.667,425.833 573.333,426.167 573,426.5C 567.759,420.348 562.759,414.015 558,407.5C 554.984,398.812 551.484,390.312 547.5,382C 548.458,380.853 548.125,379.853 546.5,379C 546.833,378.667 547.167,378.333 547.5,378C 545.405,374.742 544.405,371.409 544.5,368C 543.576,364.049 542.243,359.882 540.5,355.5C 541.61,353.504 541.276,351.671 539.5,350C 539.745,347.911 539.745,345.911 539.5,344C 541.211,341.098 541.544,338.098 540.5,335C 543.113,326.522 545.613,318.355 548,310.5C 553.878,302.562 559.212,294.229 564,285.5C 588.809,252.876 620.143,230.542 658,218.5C 667.968,213.697 677.968,210.697 688,209.5C 690.718,208.653 693.384,207.653 696,206.5C 698,206.5 700,206.5 702,206.5C 703.555,204.854 705.221,204.521 707,205.5C 710.667,204.5 714.333,203.5 718,202.5C 720.661,203.346 723.661,203.012 727,201.5C 728.667,201.833 730.333,202.167 732,202.5C 735.606,200.871 738.939,200.538 742,201.5C 746.934,200.856 751.767,200.19 756.5,199.5 Z"/></g>
<g><path style="opacity:0.982" fill="#76c7f4" d="M 668.5,494.5 C 681.033,495.699 693.533,495.699 706,494.5C 736.934,498.652 763.934,512.319 787,535.5C 797.219,549.049 802.386,564.382 802.5,581.5C 802.26,595.278 799.76,608.612 795,621.5C 774.554,663.246 744.054,695.412 703.5,718C 689.976,723.664 676.476,730.164 663,737.5C 661.127,736.911 659.46,737.578 658,739.5C 657.667,739.167 657.333,738.833 657,738.5C 648.195,742.008 639.528,745.008 631,747.5C 630.667,747.167 630.333,746.833 630,746.5C 626.499,748.584 623.166,750.251 620,751.5C 619.667,751.167 619.333,750.833 619,750.5C 614.667,751.833 610.333,753.167 606,754.5C 604.853,753.542 603.853,753.875 603,755.5C 602.667,755.167 602.333,754.833 602,754.5C 596.207,755.861 590.874,757.528 586,759.5C 582.408,758.675 579.075,758.675 576,759.5C 575.333,760.167 574.667,760.833 574,761.5C 570.706,760.22 567.039,760.22 563,761.5C 560.667,760.833 558.333,760.167 556,759.5C 553.18,759.383 550.513,759.717 548,760.5C 546.676,759.12 545.343,758.786 544,759.5C 526.927,756.014 512.26,748.348 500,736.5C 496.021,733.919 492.021,730.586 488,726.5C 484.167,719.333 480.333,712.167 476.5,705C 476.848,702.492 476.181,699.992 474.5,697.5C 474.709,696.914 475.043,696.414 475.5,696C 472.605,690.035 470.272,683.701 468.5,677C 467.475,654.821 472.642,633.654 484,613.5C 497.81,592.017 515.643,573.85 537.5,559C 538.167,558 538.833,557 539.5,556C 557.741,544.054 576.074,532.388 594.5,521C 602.73,517.919 610.73,514.253 618.5,510C 635.527,504.194 652.194,499.028 668.5,494.5 Z"/></g>
<g><path style="opacity:0.007" fill="#76c7f4" d="M 770.5,514.5 C 769.469,515.249 768.302,515.915 767,516.5C 766.308,515.975 765.808,515.308 765.5,514.5C 767.095,513.566 768.761,513.566 770.5,514.5 Z"/></g>
<g><path style="opacity:0.004" fill="#76c7f4" d="M 770.5,514.5 C 771.251,513.427 772.251,513.26 773.5,514C 772.648,515.728 771.648,515.895 770.5,514.5 Z"/></g>
<g><path style="opacity:0.982" fill="#76c7f4" d="M 659.5,974.5 C 656.74,971.542 653.24,968.542 649,965.5C 647.063,961.565 644.396,958.232 641,955.5C 637.384,948.876 634.55,941.542 632.5,933.5C 632.709,932.914 633.043,932.414 633.5,932C 629.306,925.339 627.972,918.673 629.5,912C 628.74,910.559 628.074,909.059 627.5,907.5C 630.051,876.886 642.051,850.386 663.5,828C 663.167,827.667 662.833,827.333 662.5,827C 671.942,816.103 681.609,805.436 691.5,795C 691.167,794.667 690.833,794.333 690.5,794C 708.779,776.109 728.112,759.442 748.5,744C 749.833,743.667 751.167,743.333 752.5,743C 775.448,727.516 799.615,718.016 825,714.5C 826.333,713.833 827.667,713.167 829,712.5C 830,712.833 831,713.167 832,713.5C 833.333,712.833 834.667,712.167 836,711.5C 838.632,711.293 840.965,711.626 843,712.5C 846,711.833 849,711.167 852,710.5C 856.801,710.894 862.135,711.561 868,712.5C 896.087,714.248 917.421,727.581 932,752.5C 944.448,782.027 945.782,813.027 936,845.5C 934.833,847.333 933.667,849.167 932.5,851C 929.735,861.076 925.568,870.909 920,880.5C 911,891.167 902,901.833 893,912.5C 882.463,921.892 872.296,931.058 862.5,940C 843.345,952.948 824.178,965.114 805,976.5C 788.095,985.508 771.095,992.508 754,997.5C 753.667,997.167 753.333,996.833 753,996.5C 749.58,997.182 746.246,998.182 743,999.5C 741.853,998.542 740.853,998.875 740,1000.5C 730.931,999.697 722.098,999.697 713.5,1000.5C 711.618,999.907 709.785,999.24 708,998.5C 706.657,999.214 705.324,998.88 704,997.5C 700.064,998.355 696.064,997.355 692,994.5C 691.667,994.833 691.333,995.167 691,995.5C 686.065,992.67 681.231,990.503 676.5,989C 670.961,983.956 665.294,979.123 659.5,974.5 Z"/></g>
<g><path style="opacity:0.983" fill="#76c7f4" d="M 1149.5,758.5 C 1172.27,758.147 1192.94,766.147 1211.5,782.5C 1216.52,787.684 1221.35,793.017 1226,798.5C 1240.97,818.036 1245.64,839.703 1240,863.5C 1227.83,916.838 1203.83,963.838 1168,1004.5C 1138.86,1036.19 1103.86,1056.19 1063,1064.5C 1062,1064.17 1061,1063.83 1060,1063.5C 1057,1064.83 1054,1066.17 1051,1067.5C 1044.74,1067.01 1037.91,1066.34 1030.5,1065.5C 1029.28,1066 1028.12,1066.33 1027,1066.5C 1023.45,1064.86 1019.78,1063.53 1016,1062.5C 1015.67,1062.83 1015.33,1063.17 1015,1063.5C 994.084,1052.31 975.584,1038.15 959.5,1021C 959.833,1020.67 960.167,1020.33 960.5,1020C 954.752,1012.85 950.419,1004.52 947.5,995C 947.957,994.586 948.291,994.086 948.5,993.5C 945.237,985.61 943.57,977.276 943.5,968.5C 944.389,961.89 945.722,955.39 947.5,949C 947.043,948.586 946.709,948.086 946.5,947.5C 948.358,940.737 950.524,934.071 953,927.5C 960.941,914.689 967.941,901.356 974,887.5C 980,878.833 986,870.167 992,861.5C 1014.6,835.219 1039.1,811.719 1065.5,791C 1085.79,777.75 1107.63,767.583 1131,760.5C 1133.42,761.488 1135.75,761.155 1138,759.5C 1138.33,759.833 1138.67,760.167 1139,760.5C 1142.6,759.865 1146.1,759.198 1149.5,758.5 Z"/></g>
<g><path style="opacity:0.004" fill="#76c7f4" d="M 659.5,974.5 C 658.833,975.167 658.833,975.167 659.5,974.5 Z"/></g>
</svg>
