<?xml version="1.0" encoding="UTF-8"?>
<!DOCTYPE svg PUBLIC "-//W3C//DTD SVG 1.1//EN" "http://www.w3.org/Graphics/SVG/1.1/DTD/svg11.dtd">
<svg xmlns="http://www.w3.org/2000/svg" version="1.1" width="1920px" height="1080px" style="shape-rendering:geometricPrecision; text-rendering:geometricPrecision; image-rendering:optimizeQuality; fill-rule:evenodd; clip-rule:evenodd" xmlns:xlink="http://www.w3.org/1999/xlink">
<g><path style="opacity:0.977" fill="#76c7f4" d="M 1028.5,234.5 C 1039.64,235.468 1050.64,237.302 1061.5,240C 1088.36,256.566 1099.52,280.732 1095,312.5C 1093.46,339.873 1087.46,366.207 1077,391.5C 1065.27,418.147 1046.77,438.647 1021.5,453C 1001.08,462.208 982.081,460.042 964.5,446.5C 950.982,433.958 941.982,418.791 937.5,401C 934.26,375.751 937.093,350.918 946,326.5C 953.306,306.221 962.972,287.221 975,269.5C 988.219,250.649 1006.05,238.982 1028.5,234.5 Z"/></g>
<g><path style="opacity:0.977" fill="#76c7f4" d="M 826.5,309.5 C 833.678,309.941 841.011,310.441 848.5,311C 867.131,312.745 881.631,321.579 892,337.5C 895.848,345.53 898.848,353.863 901,362.5C 906.334,407.165 899.334,449.832 880,490.5C 871.165,507.001 858.665,519.834 842.5,529C 796.234,540.785 768.401,523.285 759,476.5C 749.928,439.107 751.928,402.441 765,366.5C 769.747,355.11 776.08,344.777 784,335.5C 792.458,326.022 802.291,318.522 813.5,313C 817.86,311.417 822.194,310.25 826.5,309.5 Z"/></g>
<g><path style="opacity:0.977" fill="#76c7f4" d="M 1195.5,310.5 C 1206.3,310.401 1216.97,311.567 1227.5,314C 1237.2,320.03 1246.04,327.197 1254,335.5C 1261.87,347.601 1266.03,360.934 1266.5,375.5C 1265.42,392.838 1261.59,409.838 1255,426.5C 1246.87,445.423 1237.21,463.423 1226,480.5C 1221.17,483.825 1217.5,488.159 1215,493.5C 1191.75,518.584 1163.25,528.084 1129.5,522C 1111.5,515.999 1100,503.833 1095,485.5C 1088.36,452.32 1093.36,420.987 1110,391.5C 1115.73,384.336 1120.73,376.669 1125,368.5C 1137.42,351.748 1151.58,336.582 1167.5,323C 1176.31,317.422 1185.65,313.255 1195.5,310.5 Z"/></g>
<g><path style="opacity:0.989" fill="#76c7f4" d="M 994.5,488.5 C 1040.44,492.372 1075.6,513.705 1100,552.5C 1111.03,571.242 1119.36,591.242 1125,612.5C 1140.75,664.836 1151.75,718.169 1158,772.5C 1159.7,798.744 1158.03,824.744 1153,850.5C 1141.49,899.674 1110.49,925.008 1060,926.5C 1022.96,924.812 992.626,909.812 969,881.5C 953.28,860.78 937.947,839.78 923,818.5C 912.653,808.838 900.487,802.672 886.5,800C 883.333,799.833 880.167,799.667 877,799.5C 856.835,801.333 836.668,803.166 816.5,805C 778.058,809.648 744.392,799.315 715.5,774C 682.005,740.2 675.839,702.034 697,659.5C 703.176,649.815 709.843,640.481 717,631.5C 728.177,619.657 740.01,608.491 752.5,598C 809.793,557.177 871.459,523.843 937.5,498C 956.218,492.214 975.218,489.047 994.5,488.5 Z"/></g>
<g><path style="opacity:0.977" fill="#76c7f4" d="M 1263.5,506.5 C 1282.87,505.176 1299.53,511.176 1313.5,524.5C 1332.59,540.792 1339.76,561.459 1335,586.5C 1331.68,608.462 1323.68,628.462 1311,646.5C 1289.27,675.293 1261.77,696.793 1228.5,711C 1218.35,714.596 1208.01,715.263 1197.5,713C 1163.82,701.497 1148.99,677.997 1153,642.5C 1155.43,626.635 1160.43,611.635 1168,597.5C 1178.72,577.79 1191.38,559.457 1206,542.5C 1215.52,533.986 1225.35,525.819 1235.5,518C 1244.39,512.711 1253.72,508.878 1263.5,506.5 Z"/></g>
<g><path style="opacity:0.008" fill="#76c7f4" d="M 1143.5,526.5 C 1143.78,525.711 1144.28,525.044 1145,524.5C 1145.53,525.816 1145.03,526.483 1143.5,526.5 Z"/></g>
<g><path style="opacity:0.004" fill="#76c7f4" d="M 1143.5,526.5 C 1142.83,527.167 1142.83,527.167 1143.5,526.5 Z"/></g>
</svg>
