<?xml version="1.0" encoding="UTF-8"?>
<!DOCTYPE svg PUBLIC "-//W3C//DTD SVG 1.1//EN" "http://www.w3.org/Graphics/SVG/1.1/DTD/svg11.dtd">
<svg xmlns="http://www.w3.org/2000/svg" version="1.1" width="1920px" height="1080px" style="shape-rendering:geometricPrecision; text-rendering:geometricPrecision; image-rendering:optimizeQuality; fill-rule:evenodd; clip-rule:evenodd" xmlns:xlink="http://www.w3.org/1999/xlink">
<g><path style="opacity:0.995" fill="#e3ae17" d="M 573.5,-0.5 C 665.833,-0.5 758.167,-0.5 850.5,-0.5C 855.713,0.822953 861.047,2.15629 866.5,3.5C 870.23,3.40992 873.896,3.40992 877.5,3.5C 885.613,6.14937 893.613,8.9827 901.5,12C 908.115,16.2807 914.448,20.9474 920.5,26C 927.482,28.4759 934.148,31.6426 940.5,35.5C 941.086,35.2907 941.586,34.9574 942,34.5C 948.999,39.4835 956.499,43.6502 964.5,47C 971.072,52.6032 978.406,56.9365 986.5,60C 991.833,64 997.167,68 1002.5,72C 1009.58,72.7738 1016.58,73.9404 1023.5,75.5C 1025.5,74.2635 1027.33,74.5968 1029,76.5C 1029.41,76.0426 1029.91,75.7093 1030.5,75.5C 1038.42,77.6798 1046.25,79.0131 1054,79.5C 1082.02,88.0325 1109.86,96.5325 1137.5,105C 1145.45,107.92 1153.28,111.087 1161,114.5C 1161.33,114.167 1161.67,113.833 1162,113.5C 1166.27,116.525 1170.77,118.192 1175.5,118.5C 1178.17,119.501 1180.51,121.001 1182.5,123C 1189.19,123.686 1195.19,126.019 1200.5,130C 1229.21,140.624 1256.38,153.458 1282,168.5C 1313.42,184.488 1341.76,205.488 1367,231.5C 1379.82,247.124 1391.15,263.791 1401,281.5C 1409.88,300.467 1417.38,319.967 1423.5,340C 1422.76,342.155 1421.76,344.155 1420.5,346C 1428.41,366.231 1432.75,387.231 1433.5,409C 1433.41,420.33 1433.41,431.663 1433.5,443C 1429.8,442.823 1426.14,442.49 1422.5,442C 1425.25,451.01 1426.25,460.176 1425.5,469.5C 1426.84,470.688 1427.51,472.188 1427.5,474C 1427.68,524.046 1418.35,572.046 1399.5,618C 1399.83,618.333 1400.17,618.667 1400.5,619C 1398.23,622.876 1396.23,626.876 1394.5,631C 1397.83,631.17 1401.16,632.17 1404.5,634C 1405.06,634.725 1405.39,635.558 1405.5,636.5C 1374.75,698.664 1341.92,759.664 1307,819.5C 1297.49,833.698 1288.15,848.032 1279,862.5C 1248.93,896.903 1217.77,930.403 1185.5,963C 1171.88,975.951 1157.88,988.618 1143.5,1001C 1129.33,1010.25 1115.33,1019.75 1101.5,1029.5C 1085.17,1038.66 1067.83,1045.16 1049.5,1049C 1040.23,1054.77 1030.23,1056.1 1019.5,1053C 991.576,1046.53 964.576,1037.53 938.5,1026C 932.13,1022.33 925.797,1018.66 919.5,1015C 898.401,1000.9 880.234,983.733 865,963.5C 858.966,952.147 852.966,940.814 847,929.5C 844.059,916.855 841.559,904.355 839.5,892C 839.654,879.769 839.654,867.769 839.5,856C 840.108,851.619 840.775,847.285 841.5,843C 840.941,837.689 840.607,832.356 840.5,827C 848.692,784.883 835.358,751.55 800.5,727C 790.982,720.828 780.982,715.495 770.5,711C 755.166,705.646 739.5,704.313 723.5,707C 709.842,709.065 696.509,712.398 683.5,717C 657.892,720.944 632.392,725.444 607,730.5C 606.228,730.355 605.561,730.022 605,729.5C 598.082,730.76 591.082,731.76 584,732.5C 582.893,732.415 581.893,732.081 581,731.5C 576.096,732.527 571.096,733.194 566,733.5C 556.367,732.85 546.867,732.85 537.5,733.5C 536.252,732.96 535.085,732.293 534,731.5C 505.784,731.952 478.617,725.785 452.5,713C 445.663,708.747 438.663,704.747 431.5,701C 426.61,698.046 422.277,694.379 418.5,690C 402.582,683.377 387.582,675.21 373.5,665.5C 338.355,636.989 314.689,601.156 302.5,558C 301.019,554.544 299.352,551.211 297.5,548C 297.833,547.667 298.167,547.333 298.5,547C 294.876,534.133 291.876,521.633 289.5,509.5C 289.68,508.446 290.013,507.446 290.5,506.5C 288.484,495.084 287.151,483.584 286.5,472C 286.638,461.138 286.638,450.305 286.5,439.5C 287.225,432.693 287.891,425.86 288.5,419C 287.496,415.943 287.83,412.943 289.5,410C 289.089,408.856 288.756,407.689 288.5,406.5C 290.575,395.621 292.241,384.788 293.5,374C 292.524,370.977 293.19,367.811 295.5,364.5C 295.359,356.851 296.693,349.351 299.5,342C 299.265,341.127 298.931,340.293 298.5,339.5C 302.8,322.566 307.967,305.9 314,289.5C 320.39,275.664 326.39,261.664 332,247.5C 336.261,242.978 338.928,237.645 340,231.5C 351.169,212.499 361.836,193.165 372,173.5C 387.091,149.07 403.758,125.737 422,103.5C 429.141,97.1284 435.974,90.295 442.5,83C 449.485,77.679 456.152,72.0123 462.5,66C 472.627,58.0983 482.96,50.4316 493.5,43C 506,34.2468 519,26.2468 532.5,19C 546.227,12.4684 559.894,5.96841 573.5,-0.5 Z"/></g>
</svg>
