<?xml version="1.0" encoding="UTF-8"?>
<!DOCTYPE svg PUBLIC "-//W3C//DTD SVG 1.1//EN" "http://www.w3.org/Graphics/SVG/1.1/DTD/svg11.dtd">
<svg xmlns="http://www.w3.org/2000/svg" version="1.1" width="1920px" height="1080px" style="shape-rendering:geometricPrecision; text-rendering:geometricPrecision; image-rendering:optimizeQuality; fill-rule:evenodd; clip-rule:evenodd" xmlns:xlink="http://www.w3.org/1999/xlink">
<g><path style="opacity:0.994" fill="#e3ae17" d="M 843.5,21.5 C 904.294,16.3715 960.961,28.8715 1013.5,59C 1032.22,71.0554 1048.39,85.8887 1062,103.5C 1065.6,110.956 1069.93,117.956 1075,124.5C 1076.95,128.732 1078.62,133.066 1080,137.5C 1097.5,156.827 1109.5,179.16 1116,204.5C 1117.72,214.74 1119.55,224.907 1121.5,235C 1120.4,240.098 1120.73,245.098 1122.5,250C 1122.96,287.617 1118.63,324.617 1109.5,361C 1109.83,361.333 1110.17,361.667 1110.5,362C 1107.1,379.553 1103.26,397.053 1099,414.5C 1097.53,428.448 1098.87,442.115 1103,455.5C 1111.29,475.461 1123.79,492.294 1140.5,506C 1154.78,514.761 1170.28,519.928 1187,521.5C 1216.5,518.125 1246,516.958 1275.5,518C 1285.58,519.202 1295.58,520.869 1305.5,523C 1331.17,533 1353.34,548.167 1372,568.5C 1390.07,590.295 1403.73,614.629 1413,641.5C 1418.58,657.486 1422.75,673.819 1425.5,690.5C 1424.5,696.336 1422.5,701.836 1419.5,707C 1419.83,707.333 1420.17,707.667 1420.5,708C 1417.53,720.232 1413.37,732.065 1408,743.5C 1396.39,761.44 1384.39,779.107 1372,796.5C 1332.59,839.254 1290.76,879.087 1246.5,916C 1181.23,957.48 1113.56,995.147 1043.5,1029C 1041.17,1030.35 1038.84,1030.51 1036.5,1029.5C 1035.72,1026.46 1034.39,1023.79 1032.5,1021.5C 988.952,1039.99 943.452,1050.32 896,1052.5C 884.928,1051.81 873.761,1050.98 862.5,1050C 860.899,1049.73 859.399,1049.23 858,1048.5C 858.316,1051.45 858.816,1054.45 859.5,1057.5C 839.168,1058.06 818.834,1057.56 798.5,1056C 789.649,1053.16 780.649,1050.83 771.5,1049C 770.034,1048.36 768.7,1047.53 767.5,1046.5C 765.205,1049.39 762.205,1050.22 758.5,1049C 744.114,1044.31 729.781,1039.31 715.5,1034C 705.891,1029.53 696.557,1024.53 687.5,1019C 661.79,1001.62 639.623,980.458 621,955.5C 609.685,939.193 599.685,922.193 591,904.5C 589.412,902.579 587.912,900.579 586.5,898.5C 558.062,839.938 534.895,779.271 517,716.5C 514.399,701.272 511.733,686.272 509,671.5C 492.66,649.143 478.66,625.476 467,600.5C 459.482,591.302 453.148,581.302 448,570.5C 444.105,549.463 440.105,528.463 436,507.5C 426.766,474.659 420.6,441.159 417.5,407C 418.824,400.968 418.824,394.968 417.5,389C 419.033,381.895 419.366,375.062 418.5,368.5C 419.974,352.539 422.974,336.373 427.5,320C 427.167,319.667 426.833,319.333 426.5,319C 450.319,242.967 492.985,179.967 554.5,130C 602.303,96.9231 653.303,69.2564 707.5,47C 751.704,32.0457 797.038,23.5457 843.5,21.5 Z"/></g>
</svg>
