<?xml version="1.0" encoding="UTF-8"?>
<!DOCTYPE svg PUBLIC "-//W3C//DTD SVG 1.1//EN" "http://www.w3.org/Graphics/SVG/1.1/DTD/svg11.dtd">
<svg xmlns="http://www.w3.org/2000/svg" version="1.1" width="1920px" height="1080px" style="shape-rendering:geometricPrecision; text-rendering:geometricPrecision; image-rendering:optimizeQuality; fill-rule:evenodd; clip-rule:evenodd" xmlns:xlink="http://www.w3.org/1999/xlink">
<g><path style="opacity:0.997" fill="#9fb80e" d="M 1166.5,405.5 C 1154.99,417.935 1141.33,427.435 1125.5,434C 1090.5,448.168 1054.16,456.501 1016.5,459C 985.5,459.333 954.5,459.667 923.5,460C 875.995,465.835 836.161,486.335 804,521.5C 763.469,575.504 752.469,635.171 771,700.5C 779.598,732.468 791.431,763.135 806.5,792.5C 725.877,762.713 668.377,708.379 634,629.5C 620.108,595.539 612.941,560.206 612.5,523.5C 630.099,516.703 645.766,506.87 659.5,494C 722.866,432.073 756.533,356.573 760.5,267.5C 824.225,232.324 891.892,222.157 963.5,237C 1046.55,256.747 1109.72,303.247 1153,376.5C 1158.59,385.688 1163.09,395.354 1166.5,405.5 Z"/></g>
<g><path style="opacity:0.996" fill="#edf2cc" d="M 760.5,267.5 C 756.533,356.573 722.866,432.073 659.5,494C 645.766,506.87 630.099,516.703 612.5,523.5C 612.284,514.467 612.617,505.467 613.5,496.5C 628.547,488.299 642.047,477.966 654,465.5C 700.926,413.959 728.093,353.292 735.5,283.5C 743.292,277.385 751.625,272.052 760.5,267.5 Z"/></g>
<g><path style="opacity:0.987" fill="#9fb80f" d="M 735.5,283.5 C 728.093,353.292 700.926,413.959 654,465.5C 642.047,477.966 628.547,488.299 613.5,496.5C 620.443,418.78 652.777,353.947 710.5,302C 718.536,295.327 726.87,289.161 735.5,283.5 Z"/></g>
<g><path style="opacity:0.998" fill="#edf2cc" d="M 1166.5,405.5 C 1170.8,413.711 1174.13,422.378 1176.5,431.5C 1154.5,448.667 1129.83,460.834 1102.5,468C 1076.13,476.341 1049.13,481.341 1021.5,483C 990.833,483.333 960.167,483.667 929.5,484C 887.757,487.956 852.591,505.122 824,535.5C 789.971,579.632 779.305,628.966 792,683.5C 801.607,726.187 818.107,765.853 841.5,802.5C 829.593,799.941 817.926,796.607 806.5,792.5C 791.431,763.135 779.598,732.468 771,700.5C 752.469,635.171 763.469,575.504 804,521.5C 836.161,486.335 875.995,465.835 923.5,460C 954.5,459.667 985.5,459.333 1016.5,459C 1054.16,456.501 1090.5,448.168 1125.5,434C 1141.33,427.435 1154.99,417.935 1166.5,405.5 Z"/></g>
<g><path style="opacity:0.997" fill="#9fb80e" d="M 1176.5,431.5 C 1206.42,534.744 1187.25,627.744 1119,710.5C 1043.32,791.003 950.823,821.67 841.5,802.5C 818.107,765.853 801.607,726.187 792,683.5C 779.305,628.966 789.971,579.632 824,535.5C 852.591,505.122 887.757,487.956 929.5,484C 960.167,483.667 990.833,483.333 1021.5,483C 1049.13,481.341 1076.13,476.341 1102.5,468C 1129.83,460.834 1154.5,448.667 1176.5,431.5 Z"/></g>
</svg>
