<?xml version="1.0" encoding="UTF-8"?>
<!-- Generator: visioncortex VTracer 0.6.4 -->
<svg version="1.1" xmlns="http://www.w3.org/2000/svg" width="728" height="633">
<path d="M0 0 C2.22912011 -0.00217569 4.45773526 -0.02035605 6.68676758 -0.03930664 C34.27236823 -0.15115333 63.64302396 9.62488973 84.5637207 28.18530273 C85.18375977 28.72026367 85.80379883 29.25522461 86.44262695 29.80639648 C97.82443049 40.39596311 106.65490305 54.54372445 115.5637207 67.18530273 C116.03229492 67.8470752 116.50086914 68.50884766 116.98364258 69.19067383 C123.05439856 77.81881287 128.1106801 86.63706186 132.60473633 96.17895508 C133.53347028 98.12201405 134.50242566 100.03884897 135.4855957 101.95483398 C140.50071641 111.90567038 144.09899145 122.20359841 147.63696289 132.75927734 C150.55402832 141.43369408 153.76805974 149.94368787 157.1887207 158.43530273 C160.60677438 166.95594215 163.73384231 175.47448885 166.4387207 184.24780273 C169.65032017 194.64783199 173.26882235 204.86187517 177.0637207 215.06030273 C177.48852219 216.20193878 177.48852219 216.20193878 177.92190552 217.36663818 C181.0632614 225.78157434 184.28858798 234.13602115 187.8762207 242.37280273 C195.06736142 258.9060559 200.13433028 276.33516829 204.88452148 293.70336914 C205.3315964 295.3370728 205.78298255 296.96960378 206.23901367 298.60083008 C217.8341009 340.08244634 228.74486529 391.84478072 206.65942383 431.24584961 C206.11705078 432.20587891 206.11705078 432.20587891 205.5637207 433.18530273 C205.19698242 433.85110352 204.83024414 434.5169043 204.45239258 435.20288086 C193.93237509 454.21209507 178.59346564 465.67638799 157.69262695 471.79467773 C155.98493835 472.26534086 154.27510731 472.7282688 152.5637207 473.18530273 C151.5452002 473.45793945 150.52667969 473.73057617 149.47729492 474.01147461 C133.20275365 478.30544789 116.7947142 482.04646315 100.34106445 485.5847168 C98.0891288 486.07168601 95.84149105 486.57262078 93.5949707 487.08374023 C75.61263564 490.99111678 57.02985775 493.51584268 38.6262207 493.68530273 C37.60931152 493.70359131 36.59240234 493.72187988 35.54467773 493.74072266 C29.3035352 493.68840487 25.61849668 492.9066102 20.5637207 489.18530273 C19.52086914 488.44610596 18.47801758 487.70690918 17.40356445 486.9453125 C13.42360851 482.86422257 13.87014005 478.26592916 13.85829163 472.82896423 C13.88567017 471.44642694 13.91380253 470.06390439 13.94262695 468.68139648 C13.95130584 467.23813644 13.95743754 465.79485908 13.96116638 464.35157776 C13.97837312 460.54667818 14.03234462 456.74313329 14.09344482 452.9387207 C14.14714785 449.14410685 14.16268233 445.34935533 14.18286133 441.55444336 C14.2282767 434.37210984 14.3356919 427.19235213 14.4855957 420.01147461 C14.53520051 417.58207918 14.57872197 415.1525459 14.61401367 412.72290039 C14.65974176 409.77049562 14.73277477 406.82039705 14.81762695 403.86889648 C14.82685684 403.04457626 14.83608673 402.22025604 14.84559631 401.37095642 C15.04644559 396.14323667 16.20788306 393.46511338 19.9387207 389.81030273 C22.6809082 387.88452148 22.6809082 387.88452148 25.5637207 386.18530273 C26.47379883 385.59362305 27.38387695 385.00194336 28.3215332 384.39233398 C30.14553281 383.21530859 31.98295228 382.05881721 33.83325195 380.92358398 C51.79883146 369.48626942 63.21500443 352.60116172 68.5637207 332.18530273 C69.64393468 327.11660636 69.78023353 322.15901264 69.8137207 316.99780273 C69.8446582 315.78833984 69.8446582 315.78833984 69.8762207 314.55444336 C69.88137695 313.77907227 69.8865332 313.00370117 69.8918457 312.20483398 C69.90586426 311.15453003 69.90586426 311.15453003 69.92016602 310.08300781 C69.45096041 307.58497002 68.52025617 306.76450636 66.5637207 305.18530273 C33.22340776 287.59828766 -8.61158171 286.85711796 -44.17456055 297.72045898 C-50.84178569 299.91328286 -57.32425398 302.7337038 -63.4362793 306.18530273 C-68.0067493 315.32624274 -64.18879041 331.01604524 -61.11645508 340.29907227 C-54.61169941 358.33774502 -42.769213 371.7915808 -26.9362793 382.18530273 C-25.01838253 383.47090746 -23.10172578 384.75834236 -21.18530273 386.04614258 C-19.66018306 387.0394715 -18.08647501 387.95739079 -16.5065918 388.86108398 C-13.63698553 390.78179489 -12.24782606 392.22647764 -10.4362793 395.18530273 C-10.00655314 398.15993751 -9.79584383 400.84529791 -9.7409668 403.82983398 C-9.71200317 404.73009308 -9.68303955 405.63035217 -9.65319824 406.55789185 C-9.55940809 409.76683114 -9.4969665 412.97557049 -9.4362793 416.18530273 C-9.40705383 417.4465799 -9.37782837 418.70785706 -9.34771729 420.00735474 C-9.16465401 427.92216665 -9.04434293 435.83563686 -8.99163246 443.75241184 C-8.9657827 447.56399665 -8.92580854 451.37429448 -8.85327148 455.18530273 C-8.78211777 458.93792225 -8.74549585 462.68941758 -8.73320007 466.44267654 C-8.72286375 467.85490496 -8.70059337 469.26710327 -8.66560364 470.678936 C-8.40896234 481.5574016 -8.40896234 481.5574016 -10.94512939 485.57624817 C-12.6877507 487.35771344 -14.37587787 488.79130323 -16.4362793 490.18530273 C-17.35924805 490.81307617 -18.2822168 491.44084961 -19.2331543 492.08764648 C-23.76584886 493.64092352 -27.91804143 493.75956648 -32.6862793 493.74780273 C-33.74331055 493.74538574 -34.8003418 493.74296875 -35.8894043 493.74047852 C-61.23579519 493.1994632 -87.14454561 488.47877069 -111.58081055 481.9309082 C-115.64505128 480.86967435 -119.73574624 479.93316167 -123.82788086 478.98632812 C-163.26639038 469.80081139 -163.26639038 469.80081139 -175.4362793 461.18530273 C-176.31026367 460.63100586 -177.18424805 460.07670898 -178.0847168 459.50561523 C-187.8436309 453.14620274 -194.10300591 444.84348358 -199.6862793 434.74780273 C-200.18901367 433.8705957 -200.69174805 432.99338867 -201.2097168 432.08959961 C-204.47469495 426.29041721 -207.15060177 420.43331372 -209.4362793 414.18530273 C-210.06276367 412.47407227 -210.06276367 412.47407227 -210.7019043 410.72827148 C-221.55767741 373.72387027 -209.87962674 323.53302652 -197.99487305 287.98217773 C-196.49715851 283.47288882 -195.21144245 278.91577994 -193.9309082 274.34082031 C-190.79789181 263.19759049 -186.99808475 252.59052044 -182.55151367 241.91381836 C-179.949019 235.54659408 -177.5360098 229.10349709 -175.08203125 222.67797852 C-173.26239489 217.91936118 -171.44208923 213.16390846 -169.52612305 208.44311523 C-166.15812229 200.10946024 -163.35686584 191.74520304 -160.8112793 183.12280273 C-157.26410833 171.14697558 -152.81232965 159.65591189 -148.14477539 148.08666992 C-145.1276591 140.59077064 -142.32564334 133.09606161 -139.9362793 125.37280273 C-131.62376113 99.0657529 -117.58480968 76.20918824 -101.07446289 54.35522461 C-99.60926583 52.414439 -98.15582633 50.46555956 -96.70581055 48.51342773 C-83.93017797 31.43347806 -70.87731066 20.48923546 -51.4987793 11.37280273 C-50.3322583 10.82116455 -49.1657373 10.26952637 -47.96386719 9.70117188 C-31.86318924 2.33459116 -17.44868925 -0.00189928 0 0 Z M-86.1862793 196.62280273 C-93.16627489 205.35606736 -97.09553051 216.23492985 -96.17456055 227.34155273 C-95.20438765 235.10293593 -93.73611862 241.58547802 -88.3737793 247.43530273 C-83.95135674 250.06993745 -79.34283986 251.67101383 -74.4362793 253.18530273 C-73.58291992 253.44956055 -72.72956055 253.71381836 -71.8503418 253.98608398 C-65.4319652 255.63623443 -60.40764877 255.11225269 -54.4362793 252.18530273 C-45.19161952 246.08251131 -40.00209364 237.17124365 -37.6237793 226.56030273 C-36.58394747 216.39305821 -41.62098409 204.87003159 -46.4362793 196.18530273 C-50.52756919 191.4121312 -54.26265379 188.45458005 -60.65893555 187.91186523 C-71.04770201 187.63708606 -78.63377128 188.98820224 -86.1862793 196.62280273 Z M52.0793457 195.84545898 C45.83170047 205.49066387 41.50993659 217.19153342 43.0637207 228.74780273 C45.06513956 237.68407418 50.36917354 245.54590878 57.5637207 251.18530273 C63.59277332 254.7527116 69.57108195 255.72646101 76.37524414 254.10571289 C77.05619141 253.92572754 77.73713867 253.74574219 78.4387207 253.56030273 C79.14544922 253.3764502 79.85217773 253.19259766 80.58032227 253.00317383 C87.3720351 251.1305165 92.38965218 248.8170699 96.9387207 243.31030273 C101.98908256 233.5980684 102.73580928 222.59626011 99.5637207 212.18530273 C95.53207365 202.02822508 90.84680285 195.16031389 81.5012207 189.24780273 C71.29988722 185.44591687 58.97094907 187.26722637 52.0793457 195.84545898 Z " fill="#FED662" transform="translate(359.436279296875,85.814697265625)"/>
<path d="M0 0 C16.7716524 9.41376619 30.62247739 23.02260841 40.71484375 39.32421875 C41.24706543 40.16267334 41.24706543 40.16267334 41.79003906 41.01806641 C49.2961338 52.95713279 54.22061484 65.96321662 59.40234375 79.02978516 C65.62054511 94.63774816 72.65879292 109.58018207 80.71484375 124.32421875 C81.11203613 125.05511719 81.50922852 125.78601563 81.91845703 126.5390625 C98.25305717 156.48931525 118.56032611 183.53864762 140.62719727 209.48486328 C143.55814445 212.93599082 146.43217406 216.4266277 149.27734375 219.94921875 C152.2947222 223.67119003 155.4374503 227.20467905 158.71484375 230.69921875 C179.28993399 253.1534581 189.75109348 279.08378751 189.11328125 309.4921875 C188.19571076 330.33699529 177.48739285 350.79483919 162.71484375 365.32421875 C147.17386432 378.96643309 129.97341455 385.07276668 109.52734375 384.63671875 C108.11003928 384.62519067 106.69271943 384.61541648 105.27539062 384.60742188 C95.0784745 384.50603412 95.0784745 384.50603412 92.71484375 383.32421875 C92.14300797 381.0180239 91.71216565 378.7906078 91.33984375 376.44921875 C91.21391846 375.70671875 91.08799316 374.96421875 90.95825195 374.19921875 C90.17743311 369.49824531 89.49362153 364.78713051 88.84375 360.06640625 C85.39420116 335.16560465 79.10602671 311.47058239 71.68994141 287.50488281 C70.906081 284.94801417 70.14685591 282.38818827 69.4140625 279.81640625 C66.70129895 270.52395803 63.06503844 261.72008333 59.36254883 252.78491211 C55.19908273 242.66930805 51.31125289 232.46252149 47.52734375 222.19921875 C47.07445984 220.97090332 47.07445984 220.97090332 46.61242676 219.71777344 C42.66658187 208.98057852 38.9884842 198.20042165 35.62475586 187.26489258 C32.75215543 178.08224118 29.22262059 169.19234574 25.63549805 160.26879883 C23.13498781 154.02729933 20.81935491 147.81060582 18.83984375 141.38671875 C10.1539478 113.84198974 -4.34986144 88.52325273 -21.28515625 65.32421875 C-21.73842285 64.70224609 -22.19168945 64.08027344 -22.65869141 63.43945312 C-25.15416958 60.03089925 -27.69934764 56.66464077 -30.28515625 53.32421875 C-30.94773437 52.46828125 -31.6103125 51.61234375 -32.29296875 50.73046875 C-42.25699918 38.07028891 -52.67624384 28.00236579 -66.28515625 19.32421875 C-62.45911384 14.55748837 -58.5406794 10.54751324 -53.59765625 6.94921875 C-52.96335693 6.48733154 -52.32905762 6.02544434 -51.67553711 5.54956055 C-46.47920211 1.90481782 -41.05231046 -1.0911872 -35.34765625 -3.86328125 C-34.56753174 -4.24983887 -33.78740723 -4.63639648 -32.98364258 -5.03466797 C-21.03013127 -10.56697694 -10.99715723 -5.60972705 0 0 Z " fill="#FED663" transform="translate(507.28515625,64.67578125)"/>
<path d="M0 0 C0.83192871 0.40532959 1.66385742 0.81065918 2.52099609 1.22827148 C13.20742567 6.59220845 22.00618445 13.95901438 30.75 22.0625 C27.67486329 25.5617935 24.56740322 27.85613434 20.5625 30.25 C3.59092365 40.83735553 -7.94706465 59.97519941 -19.25 76.0625 C-19.77271484 76.8054834 -20.29542969 77.5484668 -20.83398438 78.31396484 C-37.45332299 102.11173172 -48.76879292 128.13577781 -57.97680664 155.59863281 C-60.30181115 162.49007283 -62.89559969 169.18738926 -65.75 175.875 C-69.25839399 184.14944262 -72.04254879 192.51892701 -74.625 201.125 C-80.58845724 220.94610965 -88.16324506 240.06938529 -96.0625 259.1875 C-100.38665675 269.67386237 -104.12140216 280.16375217 -107.25 291.0625 C-107.61037354 292.30193359 -107.61037354 292.30193359 -107.97802734 293.56640625 C-109.25502638 297.96173582 -110.51139347 302.36213545 -111.74609375 306.76953125 C-112.71571044 310.21909266 -113.72803801 313.65049803 -114.78515625 317.07421875 C-120.75385441 336.63648911 -123.91679588 356.76544957 -126.3503418 377.04443359 C-126.45644775 377.92824707 -126.56255371 378.81206055 -126.671875 379.72265625 C-126.80480957 380.87713257 -126.80480957 380.87713257 -126.94042969 382.05493164 C-127.25 384.0625 -127.25 384.0625 -128.25 387.0625 C-137.59398473 391.73449236 -159.5882916 389.12472559 -169.35693359 386.2199707 C-191.62076735 378.32141113 -206.68923378 362.83450933 -216.97265625 341.9609375 C-226.02398139 322.81662217 -227.84813906 300.15936626 -221.640625 279.72265625 C-214.35611145 260.54965289 -203.44559582 244.88711727 -189.66796875 229.7578125 C-181.91020497 221.11022444 -174.56000969 212.0882475 -167.25 203.0625 C-166.58363525 202.24773193 -166.58363525 202.24773193 -165.90380859 201.41650391 C-157.5977175 191.25828273 -149.77190394 180.81401211 -142.25 170.0625 C-141.69054687 169.26634277 -141.13109375 168.47018555 -140.5546875 167.64990234 C-131.01481859 153.98534697 -122.7770366 139.72649812 -114.87890625 125.07373047 C-113.49076761 122.50758809 -112.08134519 119.95586344 -110.65625 117.41015625 C-103.18541444 103.92429928 -97.60120416 89.59757545 -91.96875 75.26953125 C-78.55495175 41.35695422 -59.22816622 14.34002784 -25.25 -0.9375 C-24.59290039 -1.23462891 -23.93580078 -1.53175781 -23.25878906 -1.83789062 C-14.45558203 -5.50696764 -8.26104605 -4.1137152 0 0 Z " fill="#FED663" transform="translate(252.25,60.9375)"/>
</svg>
