<?xml version="1.0" encoding="UTF-8"?>
<!DOCTYPE svg PUBLIC "-//W3C//DTD SVG 1.1//EN" "http://www.w3.org/Graphics/SVG/1.1/DTD/svg11.dtd">
<svg xmlns="http://www.w3.org/2000/svg" version="1.1" width="1920px" height="1080px" style="shape-rendering:geometricPrecision; text-rendering:geometricPrecision; image-rendering:optimizeQuality; fill-rule:evenodd; clip-rule:evenodd" xmlns:xlink="http://www.w3.org/1999/xlink">
<g><path style="opacity:0.99" fill="#53a9e6" d="M 705.5,484.5 C 708.667,470.862 712.167,457.196 716,443.5C 720.877,432.518 725.544,421.518 730,410.5C 736.811,396.877 744.145,383.544 752,370.5C 781.843,328.147 812.177,286.147 843,244.5C 866.333,217.833 889.667,191.167 913,164.5C 930.2,147.256 948.366,131.756 967.5,118C 973.045,116.259 977.378,112.926 980.5,108C 1000.61,95.8575 1020.78,85.3575 1041,76.5C 1042.67,76.5 1044.33,76.5 1046,76.5C 1048.27,74.7313 1050.6,74.0647 1053,74.5C 1054.32,73.1198 1055.66,72.7865 1057,73.5C 1062.51,71.6233 1067.84,70.29 1073,69.5C 1084.42,69.9574 1096.09,69.9574 1108,69.5C 1164.92,83.4089 1204.26,117.742 1226,172.5C 1231.76,190.295 1235.59,208.462 1237.5,227C 1237.35,232.108 1237.35,237.274 1237.5,242.5C 1233.62,280.031 1225.79,317.031 1214,353.5C 1210.53,366.385 1207.53,379.385 1205,392.5C 1203.58,422.8 1212.75,449.3 1232.5,472C 1260.31,497.14 1286.81,523.64 1312,551.5C 1355.16,603.686 1367.16,662.352 1348,727.5C 1339.41,749.061 1327.24,768.228 1311.5,785C 1294.25,797.347 1276.41,807.18 1258,814.5C 1257.67,814.167 1257.33,813.833 1257,813.5C 1252.75,815.044 1248.41,816.378 1244,817.5C 1243.67,817.167 1243.33,816.833 1243,816.5C 1240,817.5 1237,818.5 1234,819.5C 1232.66,818.786 1231.32,819.12 1230,820.5C 1227.67,820.167 1225.33,819.833 1223,819.5C 1221.33,820.167 1219.67,820.833 1218,821.5C 1212.88,820.63 1207.54,820.297 1202,820.5C 1193.71,821.67 1186.05,822.337 1179,822.5C 1176.73,820.731 1174.4,820.065 1172,820.5C 1169.88,819.773 1167.71,819.106 1165.5,818.5C 1160.95,818.708 1156.45,819.041 1152,819.5C 1151,818.833 1150,818.167 1149,817.5C 1147.33,817.833 1145.67,818.167 1144,818.5C 1143,817.833 1142,817.167 1141,816.5C 1136.86,816.977 1132.53,816.977 1128,816.5C 1125.14,815.398 1122.3,814.398 1119.5,813.5C 1118.91,813.709 1118.41,814.043 1118,814.5C 1114.88,813.665 1111.72,812.665 1108.5,811.5C 1107.91,811.709 1107.41,812.043 1107,812.5C 1096.88,809.571 1086.88,806.237 1077,802.5C 1076.67,802.833 1076.33,803.167 1076,803.5C 1066.97,800.148 1057.97,796.814 1049,793.5C 1048.59,793.957 1048.09,794.291 1047.5,794.5C 993.817,777.915 940.484,756.748 887.5,731C 830.898,710.826 782.731,678.326 743,633.5C 730.716,616.268 721.05,597.601 714,577.5C 709.523,561.953 705.689,546.287 702.5,530.5C 703.152,522.636 703.818,514.803 704.5,507C 703.719,504.478 703.386,501.811 703.5,499C 704.315,494.222 704.981,489.389 705.5,484.5 Z"/></g>
<g><path style="opacity:0.98" fill="#53a9e6" d="M 635.5,102.5 C 638.685,103.684 641.852,103.684 645,102.5C 647,103.167 649,103.833 651,104.5C 654.667,104.167 658.333,103.833 662,103.5C 663.085,104.293 664.252,104.96 665.5,105.5C 668.595,104.36 671.761,104.36 675,105.5C 676,106.167 677,106.833 678,107.5C 679.667,107.167 681.333,106.833 683,106.5C 684.555,108.146 686.221,108.479 688,107.5C 694.985,108.784 702.318,110.784 710,113.5C 710.333,113.167 710.667,112.833 711,112.5C 717.988,115.216 724.821,117.55 731.5,119.5C 750.417,124.437 768.417,132.604 785.5,144C 791.043,148.842 796.209,154.009 801,159.5C 804.255,165.008 807.255,170.675 810,176.5C 826.166,229.305 810.666,269.805 763.5,298C 743.747,308.462 723.247,316.296 702,321.5C 699.58,320.512 697.247,320.845 695,322.5C 693.333,322.5 691.667,322.5 690,322.5C 689.333,323.167 688.667,323.833 688,324.5C 685.58,323.512 683.247,323.845 681,325.5C 680.667,325.167 680.333,324.833 680,324.5C 675.938,325.224 671.938,326.224 668,327.5C 666.657,326.786 665.324,327.12 664,328.5C 657.562,329.063 651.229,329.063 645,328.5C 639.829,329.857 634.829,330.857 630,331.5C 622.614,331.219 614.947,331.219 607,331.5C 603.991,330.087 600.991,329.754 598,330.5C 592.235,329.823 586.568,328.823 581,327.5C 579.372,328.097 577.705,327.763 576,326.5C 573.667,326.5 571.333,326.5 569,326.5C 565.647,324.044 562.147,322.711 558.5,322.5C 555.756,323.491 553.089,323.157 550.5,321.5C 548.297,321.587 546.13,321.587 544,321.5C 526.155,316.331 510.321,307.664 496.5,295.5C 489.846,287.523 483.679,279.19 478,270.5C 476.082,264.082 473.916,257.749 471.5,251.5C 471.537,248.872 471.871,246.205 472.5,243.5C 470.73,242.18 470.397,240.68 471.5,239C 470.789,236.204 470.122,233.37 469.5,230.5C 470.185,223.68 470.852,216.847 471.5,210C 471.265,209.127 470.931,208.293 470.5,207.5C 472.873,187.301 481.373,169.634 496,154.5C 496.333,154.833 496.667,155.167 497,155.5C 520.024,132.179 546.358,117.512 576,111.5C 579.438,109.678 582.771,108.345 586,107.5C 588.466,107.434 590.966,107.434 593.5,107.5C 594.478,107.023 595.311,106.357 596,105.5C 596.333,105.833 596.667,106.167 597,106.5C 602.171,105.143 607.171,104.143 612,103.5C 613.398,104.051 614.732,104.384 616,104.5C 622.599,103.85 629.099,103.184 635.5,102.5 Z"/></g>
<g><path style="opacity:0.979" fill="#53a9e6" d="M 498.5,368.5 C 501.573,369.682 504.739,369.682 508,368.5C 512.355,371.16 516.355,371.16 520,368.5C 524.88,369.592 529.547,369.592 534,368.5C 536,369.167 538,369.833 540,370.5C 542.709,369.803 545.376,369.47 548,369.5C 557.399,371.715 566.399,375.049 575,379.5C 577.333,379.5 579.667,379.5 582,379.5C 612.198,392.72 634.865,414.387 650,444.5C 658.897,470.184 655.73,494.684 640.5,518C 621.887,543.334 598.721,562.501 571,575.5C 570.667,575.167 570.333,574.833 570,574.5C 567.034,577.239 564.034,579.239 561,580.5C 560.667,580.167 560.333,579.833 560,579.5C 555.205,582.213 550.205,584.546 545,586.5C 543.333,586.5 541.667,586.5 540,586.5C 536.393,589.571 532.727,590.571 529,589.5C 525.491,591.17 522.157,592.504 519,593.5C 518.667,593.167 518.333,592.833 518,592.5C 514.065,593.283 510.065,594.283 506,595.5C 503.958,594.715 501.958,595.048 500,596.5C 498.467,596.056 496.967,595.723 495.5,595.5C 488.318,596.882 481.151,598.215 474,599.5C 465.067,599.747 456.067,599.414 447,598.5C 443.791,600.312 440.791,600.312 438,598.5C 431.657,598.86 424.991,599.193 418,599.5C 414.394,597.871 411.061,597.538 408,598.5C 403.088,596.763 398.422,596.429 394,597.5C 383.262,596.267 372.762,593.267 362.5,588.5C 361.914,588.709 361.414,589.043 361,589.5C 351.694,584.254 342.528,578.587 333.5,572.5C 323.246,561.701 314.746,549.701 308,536.5C 305.305,527.765 304.138,518.932 304.5,510C 301.972,508.684 301.972,507.517 304.5,506.5C 302.151,490.568 304.651,474.901 312,459.5C 328.046,432.099 350.713,412.766 380,401.5C 383,399.5 386,397.5 389,395.5C 389.333,395.833 389.667,396.167 390,396.5C 393.783,394.882 397.116,393.215 400,391.5C 401.667,391.5 403.333,391.5 405,391.5C 406.8,389.683 408.966,388.516 411.5,388C 433.432,381.606 454.932,376.106 476,371.5C 478.42,372.488 480.753,372.155 483,370.5C 485.42,371.488 487.753,371.155 490,369.5C 492.093,370.246 494.093,370.579 496,370.5C 496.995,369.934 497.828,369.267 498.5,368.5 Z"/></g>
<g><path style="opacity:0.006" fill="#53a9e6" d="M 636.5,418.5 C 638.965,419.897 641.632,420.731 644.5,421C 642.167,421.667 639.833,421.667 637.5,421C 636.748,420.329 636.414,419.496 636.5,418.5 Z"/></g>
<g><path style="opacity:0.004" fill="#53a9e6" d="M 705.5,484.5 C 704.475,484.103 704.308,483.437 705,482.5C 705.464,483.094 705.631,483.761 705.5,484.5 Z"/></g>
<g><path style="opacity:0.979" fill="#53a9e6" d="M 591.5,624.5 C 597.949,624.95 604.782,624.95 612,624.5C 615.131,625.206 618.298,625.873 621.5,626.5C 624.891,625.535 628.558,625.868 632.5,627.5C 634.335,626.808 636.168,627.142 638,628.5C 640.26,628.673 642.593,628.673 645,628.5C 646.439,630.014 647.939,630.347 649.5,629.5C 713.295,647.38 735.129,688.713 715,753.5C 711.822,760.014 708.822,766.681 706,773.5C 694.77,789.397 682.103,804.064 668,817.5C 667.667,817.167 667.333,816.833 667,816.5C 665.5,818 664,819.5 662.5,821C 651.871,826.677 641.204,833.011 630.5,840C 629.234,840.309 628.067,840.809 627,841.5C 626.667,841.167 626.333,840.833 626,840.5C 618.497,844.118 611.164,848.118 604,852.5C 603.667,852.167 603.333,851.833 603,851.5C 589.879,855.335 576.545,859.668 563,864.5C 560.502,863.879 558.168,864.545 556,866.5C 554.333,866.5 552.667,866.5 551,866.5C 548.763,867.056 546.763,868.056 545,869.5C 543.732,869.384 542.398,869.051 541,868.5C 537.824,869.356 534.49,870.689 531,872.5C 526.362,872.652 522.029,872.652 518,872.5C 517,873.167 516,873.833 515,874.5C 512.667,874.167 510.333,873.833 508,873.5C 506.333,874.167 504.667,874.833 503,875.5C 495.061,875.432 487.061,875.432 479,875.5C 459.871,873.395 441.371,867.561 423.5,858C 416.769,852.53 410.269,846.697 404,840.5C 399.588,832.676 394.922,825.009 390,817.5C 387.325,811.466 384.659,805.466 382,799.5C 377.187,769.943 383.854,743.276 402,719.5C 405.763,716.127 408.93,712.294 411.5,708C 451.46,675.633 494.627,651.133 541,634.5C 541.333,634.833 541.667,635.167 542,635.5C 545.548,633.2 549.215,632.2 553,632.5C 556.502,630.718 559.835,629.385 563,628.5C 563.333,628.833 563.667,629.167 564,629.5C 565.667,628.833 567.333,628.167 569,627.5C 571.734,627.633 574.401,627.633 577,627.5C 578.667,626.833 580.333,626.167 582,625.5C 583.533,625.944 585.033,626.277 586.5,626.5C 588.336,625.972 590.003,625.306 591.5,624.5 Z"/></g>
<g><path style="opacity:0.98" fill="#53a9e6" d="M 885.5,764.5 C 890.669,765.143 895.835,765.81 901,766.5C 931.04,766.355 955.373,778.688 974,803.5C 980.68,814.555 986.013,826.221 990,838.5C 990.833,843.667 991.667,848.834 992.5,854C 992.025,857.288 992.025,860.455 992.5,863.5C 987.695,885.455 978.195,905.455 964,923.5C 935.113,962.441 899.78,993.108 858,1015.5C 844.487,1020.96 831.154,1025.96 818,1030.5C 816.657,1029.79 815.324,1030.12 814,1031.5C 813.667,1031.17 813.333,1030.83 813,1030.5C 810.075,1031.75 807.075,1032.75 804,1033.5C 802.657,1032.79 801.324,1033.12 800,1034.5C 798.732,1034.38 797.398,1034.05 796,1033.5C 794.333,1034.17 792.667,1034.83 791,1035.5C 788.766,1035.63 786.432,1035.29 784,1034.5C 783,1035.17 782,1035.83 781,1036.5C 771.977,1035.9 762.477,1035.07 752.5,1034C 751.584,1033.63 750.75,1033.13 750,1032.5C 748.333,1032.83 746.667,1033.17 745,1033.5C 734.849,1031.5 725.015,1028.33 715.5,1024C 712.17,1020.66 708.17,1018.33 703.5,1017C 688.384,1000.59 675.884,982.425 666,962.5C 661.84,945.99 661.34,929.324 664.5,912.5C 669.017,899.8 674.851,887.8 682,876.5C 698.046,859.488 714.712,843.155 732,827.5C 732.333,827.833 732.667,828.167 733,828.5C 744.854,818.534 757.52,810.534 771,804.5C 772.101,802.606 773.434,801.939 775,802.5C 776.167,801.333 777.333,800.167 778.5,799C 788.863,794.621 799.363,789.787 810,784.5C 811.333,784.5 812.667,784.5 814,784.5C 815.667,783.167 817.333,781.833 819,780.5C 819.333,780.833 819.667,781.167 820,781.5C 825.15,778.237 830.484,776.237 836,775.5C 836.667,774.833 837.333,774.167 838,773.5C 839.667,773.5 841.333,773.5 843,773.5C 846.502,771.718 849.835,770.385 853,769.5C 855.333,769.5 857.667,769.5 860,769.5C 862.333,768.5 864.667,767.5 867,766.5C 870.153,767.302 873.153,767.635 876,767.5C 878.247,765.845 880.58,765.512 883,766.5C 883.995,765.934 884.828,765.267 885.5,764.5 Z"/></g>
</svg>
