<?xml version="1.0" encoding="UTF-8"?>
<!DOCTYPE svg PUBLIC "-//W3C//DTD SVG 1.1//EN" "http://www.w3.org/Graphics/SVG/1.1/DTD/svg11.dtd">
<svg xmlns="http://www.w3.org/2000/svg" version="1.1" width="1920px" height="1080px" style="shape-rendering:geometricPrecision; text-rendering:geometricPrecision; image-rendering:optimizeQuality; fill-rule:evenodd; clip-rule:evenodd" xmlns:xlink="http://www.w3.org/1999/xlink">
<g><path style="opacity:0.981" fill="#53a9e6" d="M 962.5,28.5 C 964.339,29.7525 966.172,29.7525 968,28.5C 971.648,30.0741 974.981,30.4074 978,29.5C 983.219,31.2049 987.886,33.2049 992,35.5C 992.333,35.1667 992.667,34.8333 993,34.5C 997.215,36.7939 1001.71,38.2939 1006.5,39C 1017.32,43.5067 1026.49,50.34 1034,59.5C 1037.56,64.7704 1041.56,70.4371 1046,76.5C 1046.27,79.7145 1047.61,82.3812 1050,84.5C 1056.47,104.648 1057.81,124.982 1054,145.5C 1043.91,191.382 1026.24,234.382 1001,274.5C 991.853,286.311 982.02,297.478 971.5,308C 950.274,327.186 926.107,340.686 899,348.5C 898.667,348.167 898.333,347.833 898,347.5C 873.691,353.184 851.525,348.017 831.5,332C 812.784,312.057 801.284,288.224 797,260.5C 797.141,247.632 796.974,234.799 796.5,222C 797.419,216.822 798.585,211.655 800,206.5C 804.073,195.615 807.74,184.615 811,173.5C 827.168,139.928 847.501,108.594 872,79.5C 890.693,57.5957 914.026,41.5957 942,31.5C 942.414,31.9574 942.914,32.2907 943.5,32.5C 949.857,30.63 956.19,29.2966 962.5,28.5 Z"/></g>
<g><path style="opacity:0.982" fill="#53a9e6" d="M 647.5,83.5 C 649.806,83.7051 652.306,84.3717 655,85.5C 656.779,84.5209 658.445,84.8542 660,86.5C 661,86.1667 662,85.8333 663,85.5C 671.812,87.7029 680.479,90.3696 689,93.5C 689.333,93.1667 689.667,92.8333 690,92.5C 692.698,93.4123 695.365,95.079 698,97.5C 698.333,97.1667 698.667,96.8333 699,96.5C 708.484,101.15 717.317,106.816 725.5,113.5C 730.264,120.798 735.431,127.798 741,134.5C 746.432,148.226 749.932,162.226 751.5,176.5C 749.534,194.947 747.701,213.614 746,232.5C 734.66,280.16 714.993,323.827 687,363.5C 673.239,380.253 656.739,393.753 637.5,404C 630.483,407.042 623.317,409.542 616,411.5C 605.77,412.271 596.103,412.271 587,411.5C 585.333,410.5 583.667,409.5 582,408.5C 581,408.833 580,409.167 579,409.5C 567.512,404.502 556.346,398.835 545.5,392.5C 528.956,378.76 519.122,361.093 516,339.5C 506.665,275.791 516.665,215.458 546,158.5C 551.361,151.305 556.528,143.972 561.5,136.5C 567.935,128.809 574.935,121.643 582.5,115C 592.5,108 602.5,101 612.5,94C 619.896,90.8531 627.063,88.0198 634,85.5C 637.605,85.4225 641.271,85.4225 645,85.5C 645.995,84.9341 646.828,84.2674 647.5,83.5 Z"/></g>
<g><path style="opacity:0.981" fill="#53a9e6" d="M 1067.5,485.5 C 1059.49,482.058 1051.16,479.224 1042.5,477C 1037.31,472.973 1031.97,469.14 1026.5,465.5C 1011.06,447.682 1003.06,426.515 1002.5,402C 1004.48,370.056 1013.32,340.223 1029,312.5C 1044.46,288.424 1062.62,266.59 1083.5,247C 1103.53,230.139 1124.53,214.472 1146.5,200C 1153.81,195.832 1161.31,192.999 1169,191.5C 1172.5,189.718 1175.84,188.385 1179,187.5C 1182.73,187.577 1186.4,187.577 1190,187.5C 1191,186.833 1192,186.167 1193,185.5C 1194.67,186.833 1196.33,186.833 1198,185.5C 1199.33,186.167 1200.67,186.833 1202,187.5C 1203.91,187.579 1205.91,187.246 1208,186.5C 1213.87,188.071 1219.54,190.071 1225,192.5C 1225.77,192.355 1226.44,192.022 1227,191.5C 1230.67,193.5 1234.33,195.5 1238,197.5C 1238.33,197.167 1238.67,196.833 1239,196.5C 1245.32,201.153 1251.32,206.153 1257,211.5C 1262.71,219.343 1269.04,227.343 1276,235.5C 1285.36,256.582 1288.02,278.582 1284,301.5C 1277.15,328.961 1265.82,354.295 1250,377.5C 1240.3,390.857 1230.63,404.19 1221,417.5C 1212.15,426.045 1203.65,434.879 1195.5,444C 1193.83,444.833 1192.17,445.667 1190.5,446.5C 1178.32,458.83 1164.32,468.663 1148.5,476C 1137.44,479.688 1126.94,483.188 1117,486.5C 1110.81,487.462 1104.81,487.462 1099,486.5C 1098,487.167 1097,487.833 1096,488.5C 1092.16,486.99 1088.32,486.656 1084.5,487.5C 1079.06,486.33 1073.9,485.33 1069,484.5C 1068.62,485.056 1068.12,485.389 1067.5,485.5 Z"/></g>
<g><path style="opacity:0.992" fill="#53a9e6" d="M 789.5,388.5 C 800.429,388.702 811.263,388.702 822,388.5C 823.923,389.316 825.923,389.983 828,390.5C 832.051,390.359 836.051,390.359 840,390.5C 843.977,391.607 847.977,392.607 852,393.5C 853.628,392.903 855.295,393.237 857,394.5C 865.739,396.177 875.072,399.177 885,403.5C 885.333,403.167 885.667,402.833 886,402.5C 906.721,413.446 926.221,426.279 944.5,441C 974.048,472.251 993.548,509.084 1003,551.5C 1006.57,565.66 1009.23,579.993 1011,594.5C 1016.15,647.758 1019.65,700.924 1021.5,754C 1020.5,789.665 1019,825.499 1017,861.5C 1011.79,907.018 998.794,950.018 978,990.5C 964.024,1011.56 946.191,1028.73 924.5,1042C 919.16,1043.91 913.993,1046.08 909,1048.5C 908.586,1048.04 908.086,1047.71 907.5,1047.5C 900.409,1049.82 893.242,1051.82 886,1053.5C 885.667,1053.17 885.333,1052.83 885,1052.5C 880.667,1053.5 876.333,1054.5 872,1055.5C 864.667,1054.17 857.333,1054.17 850,1055.5C 847.667,1054.83 845.333,1054.17 843,1053.5C 842,1053.83 841,1054.17 840,1054.5C 836.7,1053.37 833.366,1052.37 830,1051.5C 829.667,1051.83 829.333,1052.17 829,1052.5C 826.667,1051.5 824.333,1050.5 822,1049.5C 820.853,1050.46 819.853,1050.12 819,1048.5C 817.853,1049.46 816.853,1049.12 816,1047.5C 812.591,1047.59 809.258,1046.59 806,1044.5C 804.853,1045.46 803.853,1045.12 803,1043.5C 802.667,1043.83 802.333,1044.17 802,1044.5C 782.476,1034.65 764.31,1022.65 747.5,1008.5C 734.073,994.98 722.573,979.98 713,963.5C 694.878,926.963 677.045,890.297 659.5,853.5C 650.739,845.23 641.905,837.23 633,829.5C 632.667,829.833 632.333,830.167 632,830.5C 630.333,829.167 628.667,827.833 627,826.5C 626.667,826.833 626.333,827.167 626,827.5C 624.399,825.028 622.399,824.028 620,824.5C 617.072,822.303 613.905,820.469 610.5,819C 606.032,817.684 601.865,816.517 598,815.5C 597,815.833 596,816.167 595,816.5C 592.667,815.833 590.333,815.167 588,814.5C 583.126,814.198 578.459,814.198 574,814.5C 571,813.833 568,813.167 565,812.5C 564,812.833 563,813.167 562,813.5C 559,812.833 556,812.167 553,811.5C 549.333,811.833 545.667,812.167 542,812.5C 539.028,810.821 536.361,810.488 534,811.5C 531.667,810.833 529.333,810.167 527,809.5C 522.936,809.734 518.602,809.734 514,809.5C 509.16,808.242 504.327,807.242 499.5,806.5C 498.284,807.002 497.117,807.335 496,807.5C 473.435,803.505 452.269,797.339 432.5,789C 419.464,781.069 406.464,772.403 393.5,763C 354.047,726.687 336.547,681.52 341,627.5C 346.603,601.314 358.269,578.314 376,558.5C 388.502,545.519 401.668,533.352 415.5,522C 424.033,518.906 431.367,514.073 437.5,507.5C 452.327,497.336 467.827,488.336 484,480.5C 508.1,471.591 532.1,461.591 556,450.5C 556.333,450.833 556.667,451.167 557,451.5C 576.082,443.422 595.082,436.089 614,429.5C 614.414,429.957 614.914,430.291 615.5,430.5C 633.281,424.302 651.114,419.302 669,415.5C 671.056,413.681 673.223,413.015 675.5,413.5C 701.567,404.788 728.067,397.788 755,392.5C 757.342,393.178 759.676,392.845 762,391.5C 765.916,391.042 769.582,391.042 773,391.5C 775.667,390.833 778.333,390.167 781,389.5C 782.268,389.616 783.602,389.949 785,390.5C 786.622,389.901 788.122,389.234 789.5,388.5 Z"/></g>
<g><path style="opacity:0.007" fill="#53a9e6" d="M 1067.5,485.5 C 1067.31,487.912 1065.97,488.912 1063.5,488.5C 1063.46,487.244 1063.96,486.244 1065,485.5C 1065.77,486.598 1066.6,486.598 1067.5,485.5 Z"/></g>
<g><path style="opacity:0.004" fill="#53a9e6" d="M 1061.5,489.5 C 1061.84,488.662 1062.51,488.328 1063.5,488.5C 1063.59,490.698 1062.92,491.031 1061.5,489.5 Z"/></g>
<g><path style="opacity:0.004" fill="#53a9e6" d="M 1061.5,489.5 C 1061.63,490.239 1061.46,490.906 1061,491.5C 1060.31,490.563 1060.47,489.897 1061.5,489.5 Z"/></g>
<g><path style="opacity:0.982" fill="#53a9e6" d="M 1239.5,491.5 C 1243.35,491.039 1247.18,491.705 1251,493.5C 1251.77,493.355 1252.44,493.022 1253,492.5C 1256.19,494.079 1259.52,495.412 1263,496.5C 1264.15,495.542 1265.15,495.875 1266,497.5C 1268,497.5 1270,497.5 1272,497.5C 1278.09,501.127 1284.25,504.627 1290.5,508C 1306.41,522.324 1319.58,538.824 1330,557.5C 1334.12,569.83 1335.79,582.497 1335,595.5C 1333.36,602.321 1331.86,609.155 1330.5,616C 1328.39,630.069 1323.89,643.569 1317,656.5C 1300.89,685.619 1279.39,710.119 1252.5,730C 1216.51,755.953 1177.67,773.453 1136,782.5C 1134.73,782.384 1133.4,782.051 1132,781.5C 1126.85,783.78 1121.85,783.78 1117,781.5C 1113.22,782.299 1109.39,782.132 1105.5,781C 1094.75,777.955 1085.08,772.789 1076.5,765.5C 1063.27,755.406 1053.1,742.739 1046,727.5C 1038.29,703.051 1038.96,679.051 1048,655.5C 1053.67,640.818 1060.67,626.818 1069,613.5C 1086.7,590.133 1106.2,568.3 1127.5,548C 1139.63,537.209 1152.63,527.542 1166.5,519C 1180.31,511.867 1194.15,504.701 1208,497.5C 1209.78,498.479 1211.45,498.146 1213,496.5C 1213.33,496.833 1213.67,497.167 1214,497.5C 1218.03,495.856 1222.2,494.523 1226.5,493.5C 1229.41,492.36 1232.24,492.36 1235,493.5C 1236.62,492.901 1238.12,492.234 1239.5,491.5 Z"/></g>
</svg>
