<?xml version="1.0" encoding="UTF-8"?>
<!DOCTYPE svg PUBLIC "-//W3C//DTD SVG 1.1//EN" "http://www.w3.org/Graphics/SVG/1.1/DTD/svg11.dtd">
<svg xmlns="http://www.w3.org/2000/svg" version="1.1" width="1920px" height="1080px" style="shape-rendering:geometricPrecision; text-rendering:geometricPrecision; image-rendering:optimizeQuality; fill-rule:evenodd; clip-rule:evenodd" xmlns:xlink="http://www.w3.org/1999/xlink">
<g><path style="opacity:0.979" fill="#5fa75d" d="M 819.5,83.5 C 826.766,84.5772 833.766,85.4105 840.5,86C 864.099,93.9276 883.932,107.761 900,127.5C 912.722,151.784 915.056,177.118 907,203.5C 901.94,216.013 897.273,228.679 893,241.5C 875.154,276.342 852.321,307.509 824.5,335C 805.277,352.863 783.11,365.697 758,373.5C 757.667,373.167 757.333,372.833 757,372.5C 753.384,373.713 749.718,374.713 746,375.5C 737.276,375.719 728.443,374.886 719.5,373C 712.804,370.568 706.304,367.734 700,364.5C 694.138,359.963 688.305,355.463 682.5,351C 666.885,336.77 658.885,319.103 658.5,298C 662.615,244.304 679.281,195.637 708.5,152C 716.474,142.591 724.807,133.424 733.5,124.5C 741.849,116.363 750.849,109.196 760.5,103C 765.384,100.629 770.384,98.4628 775.5,96.5C 776.192,95.9747 776.692,95.3081 777,94.5C 777.333,94.8333 777.667,95.1667 778,95.5C 786.617,92.0708 795.45,88.9042 804.5,86C 809.625,85.0747 814.625,84.2414 819.5,83.5 Z"/></g>
<g><path style="opacity:0.978" fill="#5fa75d" d="M 1113.5,103.5 C 1128.27,103.001 1142.27,106.501 1155.5,114C 1164.6,120.064 1173.6,126.397 1182.5,133C 1185.95,136.734 1188.79,140.9 1191,145.5C 1196.07,155.318 1199.74,165.652 1202,176.5C 1202.96,191.465 1201.3,206.132 1197,220.5C 1177.24,265.223 1149.74,304.39 1114.5,338C 1084.13,363.778 1049.3,378.611 1010,382.5C 1001.27,381.796 992.098,380.296 982.5,378C 963.55,371.409 949.717,358.576 941,339.5C 938.376,332.614 936.043,325.947 934,319.5C 931.893,309.864 930.727,300.198 930.5,290.5C 931.883,283.906 932.716,277.24 933,270.5C 936.529,259.578 939.862,248.578 943,237.5C 949.789,226.98 956.455,216.314 963,205.5C 989.67,172.84 1020.84,145.007 1056.5,122C 1069.03,115.12 1081.86,109.954 1095,106.5C 1095.33,106.833 1095.67,107.167 1096,107.5C 1099.53,106.016 1103.19,105.016 1107,104.5C 1107.41,104.957 1107.91,105.291 1108.5,105.5C 1110.34,104.972 1112,104.306 1113.5,103.5 Z"/></g>
<g><path style="opacity:0.978" fill="#5fa75d" d="M 1123.5,545.5 C 1124.61,544.71 1125.94,544.21 1127.5,544C 1095.46,528.459 1081.13,502.959 1084.5,467.5C 1087.4,450.888 1092.9,435.222 1101,420.5C 1116.12,393.036 1136.62,370.203 1162.5,352C 1172.9,345.793 1183.24,339.293 1193.5,332.5C 1205.06,326.55 1216.39,321.05 1227.5,316C 1238.11,312.8 1248.28,308.633 1258,303.5C 1258.41,303.957 1258.91,304.291 1259.5,304.5C 1292.35,293.402 1322.85,299.402 1351,322.5C 1364.44,340.489 1372.61,360.656 1375.5,383C 1374.2,404.896 1367.7,425.063 1356,443.5C 1345.58,457.254 1334.42,470.42 1322.5,483C 1309.5,494 1296.5,505 1283.5,516C 1273.03,522.264 1263.2,528.764 1254,535.5C 1253.67,535.167 1253.33,534.833 1253,534.5C 1241.31,540.213 1229.64,545.88 1218,551.5C 1217.67,551.167 1217.33,550.833 1217,550.5C 1211.09,552.077 1205.42,553.41 1200,554.5C 1195.45,553.323 1190.45,553.99 1185,556.5C 1179.77,555.607 1174.61,555.607 1169.5,556.5C 1166.97,555.224 1164.47,554.89 1162,555.5C 1159.94,553.681 1157.78,553.015 1155.5,553.5C 1146.3,552.034 1137.64,549.034 1129.5,544.5C 1128.09,545.624 1126.59,546.624 1125,547.5C 1124.72,546.584 1124.22,545.918 1123.5,545.5 Z"/></g>
<g><path style="opacity:0.989" fill="#5fa75d" d="M 834.5,387.5 C 844.625,388.799 854.959,389.799 865.5,390.5C 868.053,390.294 870.553,389.961 873,389.5C 879.278,391.823 885.611,392.823 892,392.5C 896.185,393.377 900.185,394.71 904,396.5C 907.333,396.5 910.667,396.5 914,396.5C 926.999,401.747 940.165,406.581 953.5,411C 1019.58,447.703 1053.25,504.203 1054.5,580.5C 1054.3,598.821 1053.13,617.154 1051,635.5C 1043.69,689.032 1033.69,742.032 1021,794.5C 1014.13,817.441 1007.46,840.441 1001,863.5C 989.756,894.987 975.089,924.654 957,952.5C 942.17,975 923.17,993 900,1006.5C 899.667,1006.17 899.333,1005.83 899,1005.5C 887.333,1012.69 875.333,1017.36 863,1019.5C 803.489,1023.59 755.822,1000.26 720,949.5C 713.566,938.843 707.9,927.843 703,916.5C 693.343,884.583 686.176,852.083 681.5,819C 679.405,809.853 677.239,800.687 675,791.5C 670.195,781.354 664.529,771.687 658,762.5C 649.044,753.881 639.21,746.381 628.5,740C 600.858,730.492 572.691,720.658 544,710.5C 496.693,694.992 461.693,664.992 439,620.5C 424.652,586.274 422.318,551.608 432,516.5C 446.815,483.691 470.149,459.691 502,444.5C 503.558,442.641 505.391,441.141 507.5,440C 513.541,437.201 519.541,434.201 525.5,431C 529.347,430.668 532.847,429.502 536,427.5C 536.414,427.957 536.914,428.291 537.5,428.5C 557.074,419.27 577.074,412.77 597.5,409C 598.421,407.244 599.588,407.077 601,408.5C 604.529,408.027 607.862,407.027 611,405.5C 612.751,406.174 614.417,406.507 616,406.5C 638.643,402.23 661.477,398.73 684.5,396C 685.416,395.626 686.25,395.126 687,394.5C 688.561,394.653 690.395,394.986 692.5,395.5C 703.224,394.423 714.057,393.09 725,391.5C 738.782,390.351 752.449,390.351 766,391.5C 768.796,390.789 771.63,390.122 774.5,389.5C 781.647,390.022 788.814,390.356 796,390.5C 799.256,389.652 802.589,388.985 806,388.5C 809.367,388.161 812.533,388.495 815.5,389.5C 821.964,388.869 828.297,388.203 834.5,387.5 Z"/></g>
<g><path style="opacity:0.004" fill="#5fa75d" d="M 1122.5,546.5 C 1119.61,549.382 1119.11,549.048 1121,545.5C 1121.38,546.056 1121.88,546.389 1122.5,546.5 Z"/></g>
<g><path style="opacity:0.004" fill="#5fa75d" d="M 1123.5,545.5 C 1122.83,546.167 1122.83,546.167 1123.5,545.5 Z"/></g>
<g><path style="opacity:0.978" fill="#5fa75d" d="M 1213.5,817.5 C 1187.03,825.086 1159.87,829.42 1132,830.5C 1108.71,830.261 1089.38,821.261 1074,803.5C 1069.58,796.328 1064.91,789.328 1060,782.5C 1056.92,775.148 1054.42,767.648 1052.5,760C 1051.62,738.03 1056.79,717.863 1068,699.5C 1081.71,678.646 1098.21,661.312 1117.5,647.5C 1127.79,640.385 1137.95,633.052 1148,625.5C 1148.33,625.833 1148.67,626.167 1149,626.5C 1170.63,611.177 1194.3,600.511 1220,594.5C 1220.33,594.833 1220.67,595.167 1221,595.5C 1235.42,589.52 1250.25,586.52 1265.5,586.5C 1269.93,588.075 1274.09,588.408 1278,587.5C 1279.67,589.276 1281.5,589.61 1283.5,588.5C 1292.91,592.706 1302.25,597.206 1311.5,602C 1321.91,610.407 1330.08,620.573 1336,632.5C 1344.18,647.524 1349.01,663.524 1350.5,680.5C 1344.43,716.573 1327.76,746.74 1300.5,771C 1288.13,781.271 1274.97,790.438 1261,798.5C 1260.67,798.167 1260.33,797.833 1260,797.5C 1253.1,802.248 1245.77,806.248 1238,809.5C 1236.85,808.542 1235.85,808.875 1235,810.5C 1234.67,810.167 1234.33,809.833 1234,809.5C 1226.97,812.808 1220.14,815.475 1213.5,817.5 Z"/></g>
<g><path style="opacity:0.004" fill="#5fa75d" d="M 1117.5,647.5 C 1116.83,646.167 1116.83,646.167 1117.5,647.5 Z"/></g>
<g><path style="opacity:0.004" fill="#5fa75d" d="M 1213.5,817.5 C 1214.83,818.167 1214.83,818.167 1213.5,817.5 Z"/></g>
</svg>
