<?xml version="1.0" encoding="UTF-8"?>
<!DOCTYPE svg PUBLIC "-//W3C//DTD SVG 1.1//EN" "http://www.w3.org/Graphics/SVG/1.1/DTD/svg11.dtd">
<svg xmlns="http://www.w3.org/2000/svg" version="1.1" width="1920px" height="1080px" style="shape-rendering:geometricPrecision; text-rendering:geometricPrecision; image-rendering:optimizeQuality; fill-rule:evenodd; clip-rule:evenodd" xmlns:xlink="http://www.w3.org/1999/xlink">
<g><path style="opacity:0.982" fill="#5fa75d" d="M 1030.5,333.5 C 1029.83,333.5 1029.5,333.833 1029.5,334.5C 1022.64,339.864 1015.64,345.03 1008.5,350C 1001.32,352.838 994.15,355.671 987,358.5C 979.764,357.401 972.764,357.401 966,358.5C 964.333,357.833 962.667,357.167 961,356.5C 959.853,357.458 958.853,357.125 958,355.5C 957.667,355.833 957.333,356.167 957,356.5C 937.477,351.112 919.977,340.946 904.5,326C 877.89,299.63 859.89,269.297 850.5,235C 849.061,234.009 848.061,232.676 847.5,231C 847.316,228.724 847.316,226.39 847.5,224C 846.166,219.649 844.833,215.315 843.5,211C 843.957,210.586 844.291,210.086 844.5,209.5C 842.444,201.316 840.444,193.149 838.5,185C 838.327,182.74 838.327,180.407 838.5,178C 837.833,176.667 837.167,175.333 836.5,174C 836.924,169.394 837.257,165.06 837.5,161C 836.798,152.944 835.798,144.944 834.5,137C 834.954,127.121 834.954,117.121 834.5,107C 836.02,86.723 841.853,67.5563 852,49.5C 862.548,36.4668 875.048,25.6334 889.5,17C 892.935,15.0596 896.435,14.2262 900,14.5C 903.937,12.1574 907.937,10.824 912,10.5C 915.514,11.3248 919.181,11.6581 923,11.5C 935.214,8.58992 946.881,9.25658 958,13.5C 958.333,13.1667 958.667,12.8333 959,12.5C 982.278,22.2258 1001.61,37.5591 1017,58.5C 1026.99,73.4815 1035.65,89.1481 1043,105.5C 1054.81,135.88 1063.81,166.547 1070,197.5C 1070.78,202.222 1070.61,206.889 1069.5,211.5C 1071.15,213.402 1071.48,215.402 1070.5,217.5C 1073.41,232.583 1072.91,247.583 1069,262.5C 1066.62,272.673 1063.62,282.673 1060,292.5C 1051.85,307.467 1042.02,321.133 1030.5,333.5 Z"/></g>
<g><path style="opacity:0.982" fill="#5fa75d" d="M 658.5,108.5 C 688.399,108.993 714.899,121.993 738,147.5C 755.194,168.35 771.194,190.017 786,212.5C 794,228.5 802,244.5 810,260.5C 816.585,280.167 821.085,300.334 823.5,321C 822.902,327.493 822.902,334.327 823.5,341.5C 823.52,364.904 818.02,386.904 807,407.5C 802.535,413.57 797.702,419.404 792.5,425C 787.882,427.95 783.548,431.284 779.5,435C 772.316,437.838 765.15,440.671 758,443.5C 745.054,444.059 732.387,444.059 720,443.5C 717.101,443.023 714.434,442.023 712,440.5C 709.667,440.5 707.333,440.5 705,440.5C 704.147,438.875 703.147,438.542 702,439.5C 698.339,437.081 694.339,435.415 690,434.5C 689.667,434.833 689.333,435.167 689,435.5C 683.892,432.029 678.392,429.195 672.5,427C 664.548,419.76 655.548,413.093 645.5,407C 636.191,397.521 628.191,387.021 621.5,375.5C 613.585,366.601 607.418,356.601 603,345.5C 602.167,344 601,342.833 599.5,342C 589.746,317.932 580.413,292.099 571.5,264.5C 571.709,263.914 572.043,263.414 572.5,263C 571.614,261.783 570.614,260.449 569.5,259C 569.501,257.601 569.835,256.101 570.5,254.5C 568.244,247.457 566.577,240.29 565.5,233C 566.097,231.372 565.763,229.705 564.5,228C 564.957,227.586 565.291,227.086 565.5,226.5C 562.408,201.982 566.908,177.982 579,154.5C 583.191,149.065 587.024,143.898 590.5,139C 596.726,134.961 602.726,130.627 608.5,126C 609.448,125.517 610.448,125.351 611.5,125.5C 611.5,124.5 611.5,123.5 611.5,122.5C 619.306,118.432 627.306,114.598 635.5,111C 643.102,110.264 650.768,109.43 658.5,108.5 Z"/></g>
<g><path style="opacity:0.983" fill="#5fa75d" d="M 1209.5,154.5 C 1221.05,154.563 1232.88,154.563 1245,154.5C 1249.89,156.687 1254.89,158.687 1260,160.5C 1260.33,160.167 1260.67,159.833 1261,159.5C 1268.01,164.453 1274.84,168.953 1281.5,173C 1287.33,180.167 1293.83,186.667 1301,192.5C 1328.04,227.129 1342.54,265.296 1344.5,307C 1345.27,309.405 1345.77,311.905 1346,314.5C 1347.53,355.824 1341.7,396.991 1328.5,438C 1323.26,450.235 1316.76,461.735 1309,472.5C 1295.77,486.124 1279.77,493.79 1261,495.5C 1258.61,497.367 1256.11,498.034 1253.5,497.5C 1237.91,500.377 1222.25,498.544 1206.5,492C 1190.96,484.131 1177.79,473.298 1167,459.5C 1160.61,450.441 1154.61,441.108 1149,431.5C 1138.37,408.719 1130.87,385.719 1126.5,362.5C 1125.02,356.236 1123.35,350.07 1121.5,344C 1122.06,343.275 1122.39,342.442 1122.5,341.5C 1119.85,328.257 1117.85,314.924 1116.5,301.5C 1117.1,295.916 1117.1,289.916 1116.5,283.5C 1118.55,267.213 1120.38,250.88 1122,234.5C 1125.97,215.052 1134.47,197.552 1147.5,182C 1154.19,176.639 1160.86,171.306 1167.5,166C 1174.69,162.1 1182.36,159.267 1190.5,157.5C 1191.83,157.833 1193.17,158.167 1194.5,158.5C 1199.5,156.668 1204.5,155.335 1209.5,154.5 Z"/></g>
<g><path style="opacity:0.006" fill="#5fa75d" d="M 1030.5,333.5 C 1031.14,334.097 1031.47,334.93 1031.5,336C 1030.95,338.824 1030.45,341.657 1030,344.5C 1028.77,341.126 1028.61,337.792 1029.5,334.5C 1030.17,334.5 1030.5,334.167 1030.5,333.5 Z"/></g>
<g><path style="opacity:0.983" fill="#5fa75d" d="M 510.5,401.5 C 517.881,402.784 525.548,402.784 533.5,401.5C 553.979,404.244 572.313,411.744 588.5,424C 597.006,432.335 606.006,440.168 615.5,447.5C 621.791,454.292 628.291,460.959 635,467.5C 662.512,502.342 683.845,540.676 699,582.5C 700.935,592.402 703.102,601.902 705.5,611C 705.043,611.414 704.709,611.914 704.5,612.5C 710.414,644.642 702.081,672.808 679.5,697C 664.879,709.549 648.546,718.383 630.5,723.5C 629.914,723.291 629.414,722.957 629,722.5C 620.345,725.066 611.678,725.066 603,722.5C 580.363,717.349 560.03,707.349 542,692.5C 496.78,663.272 462.947,624.106 440.5,575C 432.771,556.032 428.104,536.532 426.5,516.5C 426.776,511.557 426.776,506.557 426.5,501.5C 427.074,499.941 427.74,498.441 428.5,497C 428.523,492.839 428.189,488.506 427.5,484C 429.122,480.09 430.456,476.09 431.5,472C 431.152,469.945 431.819,467.945 433.5,466C 433.655,462.508 435.155,459.341 438,456.5C 438.309,455.234 438.809,454.067 439.5,453C 439.167,452.667 438.833,452.333 438.5,452C 458.016,428.439 482.016,411.606 510.5,401.5 Z"/></g>
<g><path style="opacity:0.992" fill="#5fa75d" d="M 960.5,408.5 C 969.206,409.187 978.04,410.52 987,412.5C 987.333,412.167 987.667,411.833 988,411.5C 1021.64,418.518 1055.14,430.351 1088.5,447C 1119.82,465.736 1151.82,484.736 1184.5,504C 1204.37,516.64 1223.37,529.64 1241.5,543C 1268.28,562.623 1294.62,582.79 1320.5,603.5C 1335.27,617.314 1348.77,632.314 1361,648.5C 1370.49,657.321 1378.49,667.321 1385,678.5C 1396.22,695.933 1405.06,714.599 1411.5,734.5C 1411.29,735.086 1410.96,735.586 1410.5,736C 1411.82,739.246 1412.82,742.58 1413.5,746C 1413.17,746.333 1412.83,746.667 1412.5,747C 1418.38,771.818 1415.88,795.984 1405,819.5C 1380.67,871.021 1340.83,903.021 1285.5,915.5C 1277.22,917.899 1269.05,919.565 1261,920.5C 1250.45,920.251 1239.78,920.251 1229,920.5C 1226.33,919.833 1223.67,919.167 1221,918.5C 1219.73,918.616 1218.4,918.949 1217,919.5C 1215.33,918.833 1213.67,918.167 1212,917.5C 1208.67,917.5 1205.33,917.5 1202,917.5C 1190,915.343 1178.34,913.01 1167,910.5C 1165.73,910.616 1164.4,910.949 1163,911.5C 1162.15,909.875 1161.15,909.542 1160,910.5C 1157,908.827 1154,908.16 1151,908.5C 1149.33,907.833 1147.67,907.167 1146,906.5C 1145.67,906.833 1145.33,907.167 1145,907.5C 1141.49,906.26 1137.99,905.26 1134.5,904.5C 1132.94,905.347 1131.44,905.014 1130,903.5C 1129.67,903.833 1129.33,904.167 1129,904.5C 1120.43,902.326 1111.76,900.659 1103,899.5C 1099,899.027 1095,899.694 1091,901.5C 1090.59,901.043 1090.09,900.709 1089.5,900.5C 1083.27,902.009 1077.1,903.675 1071,905.5C 1070.59,905.043 1070.09,904.709 1069.5,904.5C 1058.72,909.723 1048.05,915.223 1037.5,921C 1018.93,940.567 1001.43,961.067 985,982.5C 976.399,992.773 967.399,1002.77 958,1012.5C 925.163,1047.76 884.663,1068.42 836.5,1074.5C 826.865,1074.29 817.031,1074.29 807,1074.5C 774.862,1070.54 745.362,1057.87 718.5,1036.5C 706.979,1022.48 696.979,1007.98 688.5,993C 688.833,992.667 689.167,992.333 689.5,992C 687.962,990.068 686.795,987.901 686,985.5C 678.938,966.109 675.104,946.443 674.5,926.5C 673.926,924.941 673.26,923.441 672.5,922C 672.98,917.854 672.98,913.687 672.5,909.5C 672.596,905.856 673.262,902.356 674.5,899C 674.259,896.152 673.593,893.152 672.5,890C 673.015,882.482 673.682,874.816 674.5,867C 673.919,866.107 673.585,865.107 673.5,864C 674.024,859.931 674.69,855.931 675.5,852C 675.043,851.586 674.709,851.086 674.5,850.5C 677.753,827.047 682.419,804.214 688.5,782C 695.986,742.599 706.652,703.599 720.5,665C 730.425,635.169 740.759,605.836 751.5,577C 751.167,576.667 750.833,576.333 750.5,576C 757.282,559.931 764.782,544.097 773,528.5C 781.881,513.78 791.381,499.447 801.5,485.5C 818.912,463.458 839.912,445.625 864.5,432C 884.794,423.351 905.294,416.184 926,410.5C 926.561,411.022 927.228,411.355 928,411.5C 931.386,410.913 934.72,410.246 938,409.5C 941.667,409.833 945.333,410.167 949,410.5C 952.935,409.862 956.769,409.196 960.5,408.5 Z"/></g>
</svg>
