<?xml version="1.0" encoding="UTF-8"?>
<!DOCTYPE svg PUBLIC "-//W3C//DTD SVG 1.1//EN" "http://www.w3.org/Graphics/SVG/1.1/DTD/svg11.dtd">
<svg xmlns="http://www.w3.org/2000/svg" version="1.1" width="1920px" height="1080px" style="shape-rendering:geometricPrecision; text-rendering:geometricPrecision; image-rendering:optimizeQuality; fill-rule:evenodd; clip-rule:evenodd" xmlns:xlink="http://www.w3.org/1999/xlink">
<g><path style="opacity:0.981" fill="#53a9e6" d="M 822.5,333.5 C 812.142,323.345 803.142,311.345 795.5,297.5C 794.624,296.749 793.624,296.249 792.5,296C 793.299,294.251 792.632,292.918 790.5,292C 790.833,291.667 791.167,291.333 791.5,291C 789.647,288.429 787.981,285.762 786.5,283C 786.833,282.667 787.167,282.333 787.5,282C 783.453,278.252 781.453,273.918 781.5,269C 778.751,266.356 777.418,263.356 777.5,260C 775.421,252.977 773.088,245.977 770.5,239C 771.022,236.711 770.355,234.544 768.5,232.5C 768.709,231.914 769.043,231.414 769.5,231C 766.815,223.847 764.482,216.847 762.5,210C 762.833,209.667 763.167,209.333 763.5,209C 762.833,207 762.167,205 761.5,203C 761.833,202.667 762.167,202.333 762.5,202C 761.143,196.829 760.143,191.829 759.5,187C 759.833,186.667 760.167,186.333 760.5,186C 758.814,180.356 757.48,174.856 756.5,169.5C 757.316,165.92 757.65,162.42 757.5,159C 756.833,155.667 756.167,152.333 755.5,149C 755.832,141.513 755.832,134.513 755.5,128C 756.167,126.667 756.833,125.333 757.5,124C 756.5,121.158 757.167,118.158 759.5,115C 759.969,107.648 762.303,100.648 766.5,94C 766.167,93.6667 765.833,93.3333 765.5,93C 770.492,86.3395 775.492,79.6729 780.5,73C 786.848,66.9877 793.515,61.321 800.5,56C 810.373,51.4945 820.373,48.6612 830.5,47.5C 831.086,47.7093 831.586,48.0426 832,48.5C 837.104,47.4651 842.437,46.1318 848,44.5C 870.007,46.3631 890.174,54.5297 908.5,69C 927.022,86.2292 942.022,106.062 953.5,128.5C 967.309,156.77 978.642,185.937 987.5,216C 987.167,216.333 986.833,216.667 986.5,217C 988.716,229.65 990.716,242.65 992.5,256C 992.035,265.597 990.369,274.93 987.5,284C 987.461,285.245 987.795,286.578 988.5,288C 980.798,320.563 963.798,346.229 937.5,365C 930.813,368.262 923.98,371.096 917,373.5C 915.732,373.384 914.398,373.051 913,372.5C 911.333,373.167 909.667,373.833 908,374.5C 893.636,374.571 879.469,371.737 865.5,366C 849.816,358.207 835.483,347.374 822.5,333.5 Z"/></g>
<g><path style="opacity:0.982" fill="#53a9e6" d="M 1134.5,159.5 C 1140.58,159.777 1146.08,159.777 1151,159.5C 1154.67,160.833 1158.33,162.167 1162,163.5C 1162.33,163.167 1162.67,162.833 1163,162.5C 1169.42,165.739 1175.92,168.905 1182.5,172C 1195.25,182.249 1207.25,193.415 1218.5,205.5C 1247.5,246.481 1261.5,292.148 1260.5,342.5C 1260.49,365.438 1257.99,388.438 1253,411.5C 1249.6,429.628 1242.43,445.962 1231.5,460.5C 1217.55,473.389 1201.72,481.389 1184,484.5C 1182.56,486.014 1181.06,486.347 1179.5,485.5C 1177.62,486.093 1175.78,486.76 1174,487.5C 1167.46,487.158 1161.46,487.158 1156,487.5C 1150.16,485.178 1144.33,483.678 1138.5,483C 1121.29,476.002 1106.62,465.169 1094.5,450.5C 1091.55,445.882 1088.22,441.548 1084.5,437.5C 1071.85,419.131 1062.52,398.965 1056.5,377C 1052.63,367.845 1049.3,357.678 1046.5,346.5C 1046.71,345.914 1047.04,345.414 1047.5,345C 1045.92,341.815 1044.59,338.481 1043.5,335C 1043.83,334.667 1044.17,334.333 1044.5,334C 1042.22,326.158 1040.22,318.491 1038.5,311C 1038.83,310 1039.17,309 1039.5,308C 1039.03,301.354 1038.03,294.687 1036.5,288C 1035.85,283.242 1036.51,278.575 1038.5,274C 1038.63,266.302 1038.29,258.802 1037.5,251.5C 1038.08,246.227 1039.08,241.06 1040.5,236C 1040.17,235.667 1039.83,235.333 1039.5,235C 1040.67,230.477 1042.34,226.143 1044.5,222C 1044.04,221.586 1043.71,221.086 1043.5,220.5C 1047.47,211.008 1052.31,202.008 1058,193.5C 1063.47,189.361 1068.31,184.527 1072.5,179C 1077.3,176.365 1081.96,173.532 1086.5,170.5C 1094.46,168.096 1102.29,165.429 1110,162.5C 1112.42,163.488 1114.75,163.155 1117,161.5C 1120.33,161.5 1123.67,161.5 1127,161.5C 1129.61,160.877 1132.11,160.21 1134.5,159.5 Z"/></g>
<g><path style="opacity:0.981" fill="#53a9e6" d="M 594.5,160.5 C 619.563,161.113 642.23,170.28 662.5,188C 691.18,215.224 715.68,245.724 736,279.5C 749.409,303.912 758.242,329.578 762.5,356.5C 762.291,357.086 761.957,357.586 761.5,358C 766.228,384.356 763.061,410.189 752,435.5C 741.943,453.217 727.276,465.55 708,472.5C 705.974,471.981 703.974,471.647 702,471.5C 695.474,474.024 689.141,475.357 683,475.5C 676.241,475.037 669.574,474.037 663,472.5C 662,472.833 661,473.167 660,473.5C 658.295,472.237 656.628,471.903 655,472.5C 653.488,471.743 652.154,470.743 651,469.5C 649.333,469.833 647.667,470.167 646,470.5C 639.543,467.926 633.043,465.426 626.5,463C 617.21,456.451 607.543,450.451 597.5,445C 577.839,425.82 561.506,405.153 548.5,383C 536.743,361.593 526.409,339.426 517.5,316.5C 517.709,315.914 518.043,315.414 518.5,315C 516.433,313.343 515.1,311.676 514.5,310C 514.665,308.883 514.998,307.716 515.5,306.5C 512.97,302.877 511.97,299.043 512.5,295C 509.231,286.876 507.231,278.043 506.5,268.5C 507.002,260.758 507.002,252.592 506.5,244C 508.717,231.646 512.55,219.479 518,207.5C 524.741,196.591 533.575,187.924 544.5,181.5C 546.218,177.944 548.884,175.11 552.5,173C 559.155,168.745 565.989,165.579 573,163.5C 573.333,163.833 573.667,164.167 574,164.5C 576.267,163.711 578.6,163.044 581,162.5C 584.048,162.614 587.048,162.614 590,162.5C 591.622,161.901 593.122,161.234 594.5,160.5 Z"/></g>
<g><path style="opacity:0.004" fill="#53a9e6" d="M 822.5,333.5 C 821.833,334.167 821.833,334.167 822.5,333.5 Z"/></g>
<g><path style="opacity:0.008" fill="#53a9e6" d="M 959.5,352.5 C 958.212,350.965 958.212,349.299 959.5,347.5C 960.434,349.095 960.434,350.761 959.5,352.5 Z"/></g>
<g><path style="opacity:0.004" fill="#53a9e6" d="M 959.5,352.5 C 960.833,353.167 960.833,353.167 959.5,352.5 Z"/></g>
<g><path style="opacity:0.004" fill="#53a9e6" d="M 959.5,353.5 C 960.797,356.603 960.464,356.937 958.5,354.5C 958.624,353.893 958.957,353.56 959.5,353.5 Z"/></g>
<g><path style="opacity:0.992" fill="#53a9e6" d="M 899.5,422.5 C 905.668,423.147 911.835,423.814 918,424.5C 919.667,424.167 921.333,423.833 923,423.5C 943.404,425.236 964.071,429.569 985,436.5C 999.999,440.172 1014.33,445.505 1028,452.5C 1064.85,469.53 1101.68,487.363 1138.5,506C 1175.17,527.999 1211.5,550.499 1247.5,573.5C 1266.87,587.695 1284.53,603.862 1300.5,622C 1303.9,623.4 1306.74,625.567 1309,628.5C 1321.87,644.025 1333.54,660.359 1344,677.5C 1355.06,700.927 1360.39,725.594 1360,751.5C 1347.24,817.451 1308.74,860.618 1244.5,881C 1234.29,883.4 1223.46,885.567 1212,887.5C 1194.95,888.072 1177.62,888.072 1160,887.5C 1157,886.833 1154,886.167 1151,885.5C 1149.33,885.833 1147.67,886.167 1146,886.5C 1144.67,885.833 1143.33,885.167 1142,884.5C 1137.27,884.688 1132.27,884.688 1127,884.5C 1122.07,883.108 1117.07,882.108 1112,881.5C 1111,881.833 1110,882.167 1109,882.5C 1103.97,881.437 1098.63,880.437 1093,879.5C 1090.77,879.374 1088.43,879.707 1086,880.5C 1085.33,879.833 1084.67,879.167 1084,878.5C 1078.78,879.606 1073.94,879.606 1069.5,878.5C 1057.32,881.402 1045.66,884.902 1034.5,889C 1026.33,894.5 1018.17,900 1010,905.5C 991.526,929.966 973.86,954.966 957,980.5C 939.485,1005.01 918.319,1025.85 893.5,1043C 881.714,1048.06 870.047,1053.39 858.5,1059C 809.575,1074.48 762.908,1067.98 718.5,1039.5C 707.699,1028.29 697.366,1016.13 687.5,1003C 687.833,1002.67 688.167,1002.33 688.5,1002C 679.092,987.451 673.425,972.785 671.5,958C 669.938,953.275 668.605,948.441 667.5,943.5C 667.709,942.914 668.043,942.414 668.5,942C 667.872,939.391 666.872,936.725 665.5,934C 665.833,933.667 666.167,933.333 666.5,933C 664.886,928.695 663.886,924.195 663.5,919.5C 664.202,915.76 664.535,911.927 664.5,908C 663.248,900.53 662.248,892.697 661.5,884.5C 662.154,873.252 662.154,862.419 661.5,852C 662.167,849.333 662.833,846.667 663.5,844C 663.266,839.936 663.266,835.602 663.5,831C 664.405,825.235 665.739,819.568 667.5,814C 667.167,813.667 666.833,813.333 666.5,813C 667.315,808.63 668.315,804.296 669.5,800C 669.043,799.586 668.709,799.086 668.5,798.5C 670.607,788.768 672.273,779.101 673.5,769.5C 673.291,768.914 672.957,768.414 672.5,768C 673.167,766 673.833,764 674.5,762C 673.786,760.657 674.12,759.324 675.5,758C 675.367,755.266 675.367,752.599 675.5,750C 676.763,748.295 677.097,746.628 676.5,745C 677.739,739.673 679.072,734.673 680.5,730C 680.16,727 680.827,724 682.5,721C 682.5,719 682.5,717 682.5,715C 683.347,712.282 684.347,709.616 685.5,707C 685.167,706.667 684.833,706.333 684.5,706C 687.264,694.147 690.598,682.48 694.5,671C 694.415,666.503 695.748,661.836 698.5,657C 698.5,655 698.5,653 698.5,651C 700.167,646.667 701.833,642.333 703.5,638C 711.601,594.064 727.101,552.564 750,513.5C 758.309,502.357 766.809,491.357 775.5,480.5C 785.392,471.105 795.725,462.271 806.5,454C 826.052,443.792 845.886,434.959 866,427.5C 866.414,427.957 866.914,428.291 867.5,428.5C 873.98,426.933 880.48,425.6 887,424.5C 887.333,424.833 887.667,425.167 888,425.5C 892.003,424.819 895.837,423.819 899.5,422.5 Z"/></g>
<g><path style="opacity:0.982" fill="#53a9e6" d="M 488.5,449.5 C 492.335,449.541 496.168,449.541 500,449.5C 516.007,452.119 531.507,457.952 546.5,467C 557.516,475.834 568.849,484.167 580.5,492C 602.498,512.342 621.664,535.175 638,560.5C 655.235,585.494 667.068,612.994 673.5,643C 679.372,677.883 669.038,706.883 642.5,730C 634.477,735.009 626.477,740.009 618.5,745C 611.515,746.582 604.682,748.416 598,750.5C 572.668,749.987 548.668,742.32 526,727.5C 483.196,704.853 448.362,672.686 421.5,631C 421.833,630.667 422.167,630.333 422.5,630C 418.174,623.178 414.174,616.178 410.5,609C 410.833,608.667 411.167,608.333 411.5,608C 406.834,597.669 403.168,587.002 400.5,576C 401.837,573.872 401.504,571.706 399.5,569.5C 400.517,566.809 400.183,563.809 398.5,560.5C 399.182,555.013 399.515,549.179 399.5,543C 398.833,542 398.167,541 397.5,540C 397.954,536.495 398.954,532.828 400.5,529C 400.167,528.667 399.833,528.333 399.5,528C 400.282,525.26 400.782,522.426 401,519.5C 402.991,514.181 404.991,508.848 407,503.5C 420.246,486.253 435.746,471.419 453.5,459C 459.333,456.5 465.167,454 471,451.5C 475.134,451.446 479.301,451.446 483.5,451.5C 485.336,450.972 487.003,450.306 488.5,449.5 Z"/></g>
</svg>
