<?xml version="1.0" encoding="UTF-8"?>
<!DOCTYPE svg PUBLIC "-//W3C//DTD SVG 1.1//EN" "http://www.w3.org/Graphics/SVG/1.1/DTD/svg11.dtd">
<svg xmlns="http://www.w3.org/2000/svg" version="1.1" width="1920px" height="1080px" style="shape-rendering:geometricPrecision; text-rendering:geometricPrecision; image-rendering:optimizeQuality; fill-rule:evenodd; clip-rule:evenodd" xmlns:xlink="http://www.w3.org/1999/xlink">
<g><path style="opacity:0.979" fill="#53a9e6" d="M 848.5,62.5 C 852.683,63.5425 857.183,63.5425 862,62.5C 864.043,64.5206 866.043,64.8539 868,63.5C 879.666,67.4138 890.833,72.5805 901.5,79C 907.221,83.7206 913.221,88.054 919.5,92C 939.944,113.59 947.11,139.09 941,168.5C 937.464,181.773 933.131,194.773 928,207.5C 924.776,215.718 921.109,223.718 917,231.5C 896.245,266.259 870.412,296.759 839.5,323C 824.631,333.934 808.298,341.934 790.5,347C 773.244,350.93 756.911,349.93 741.5,344C 725.555,336.264 711.888,325.098 700.5,310.5C 690.495,291.618 687.661,271.618 692,250.5C 697.583,222.25 706.083,194.917 717.5,168.5C 730.749,142.817 747.749,119.983 768.5,100C 791.596,80.1173 818.262,67.6173 848.5,62.5 Z"/></g>
<g><path style="opacity:0.979" fill="#53a9e6" d="M 1139.5,87.5 C 1143,87.5471 1146.5,87.5471 1150,87.5C 1172.95,89.555 1192.45,99.055 1208.5,116C 1211.57,116.739 1213.74,118.572 1215,121.5C 1222.23,134.145 1227.4,147.645 1230.5,162C 1230.61,181.08 1226.44,199.58 1218,217.5C 1205.88,239.6 1192.21,260.6 1177,280.5C 1165.51,293.287 1153.68,305.787 1141.5,318C 1133.45,324.387 1125.11,330.387 1116.5,336C 1094.46,349.016 1070.29,357.183 1044,360.5C 1036.96,360.592 1029.46,360.092 1021.5,359C 998.099,355.256 981.265,342.756 971,321.5C 965.233,308.543 961.733,295.043 960.5,281C 960.277,270.534 960.777,260.034 962,249.5C 965.851,239.612 969.017,229.445 971.5,219C 977.962,207.362 985.129,196.195 993,185.5C 999.445,178.399 1005.78,171.399 1012,164.5C 1012.33,163.5 1012.67,162.5 1013,161.5C 1026.16,149.413 1039.66,137.58 1053.5,126C 1066.7,116.57 1080.36,107.903 1094.5,100C 1101.15,97.3707 1107.81,94.704 1114.5,92C 1122.69,90.5226 1131.02,89.0226 1139.5,87.5 Z"/></g>
<g><path style="opacity:0.979" fill="#53a9e6" d="M 1150.5,523.5 C 1150.16,522.662 1149.49,522.328 1148.5,522.5C 1142.39,518.602 1136.39,514.436 1130.5,510C 1112.14,491.263 1105.31,469.096 1110,443.5C 1115.47,419.388 1125.47,397.388 1140,377.5C 1146.89,369.948 1153.72,362.448 1160.5,355C 1167.43,348.532 1174.76,342.532 1182.5,337C 1186.84,334.829 1190.84,332.163 1194.5,329C 1198.93,327.945 1202.6,325.612 1205.5,322C 1214.69,317.133 1223.85,312.3 1233,307.5C 1233.33,307.833 1233.67,308.167 1234,308.5C 1236.87,305.732 1240.2,303.732 1244,302.5C 1249.19,301.181 1254.35,299.014 1259.5,296C 1266.22,294.507 1272.89,292.007 1279.5,288.5C 1300.05,282.624 1320.72,282.124 1341.5,287C 1353.55,292.44 1364.72,299.273 1375,307.5C 1385.77,322.804 1393.27,339.637 1397.5,358C 1398.23,387.752 1389.06,414.252 1370,437.5C 1361.27,447.112 1352.43,456.612 1343.5,466C 1322.57,483.796 1300.57,500.129 1277.5,515C 1274.39,515.644 1271.56,516.811 1269,518.5C 1268.67,518.167 1268.33,517.833 1268,517.5C 1265.25,519.923 1262.25,521.923 1259,523.5C 1257.64,522.742 1256.47,523.242 1255.5,525C 1220.26,539.281 1185.26,538.781 1150.5,523.5 Z"/></g>
<g><path style="opacity:0.99" fill="#53a9e6" d="M 833.5,363.5 C 847.334,363.515 861.167,363.515 875,363.5C 897.784,366.256 920.45,369.922 943,374.5C 949.339,377.082 955.839,379.249 962.5,381C 1014.26,402.249 1049.42,439.415 1068,492.5C 1076.39,526.592 1078.72,561.258 1075,596.5C 1068.66,634.879 1061.99,673.212 1055,711.5C 1043.54,761.072 1029.2,809.739 1012,857.5C 1003.62,873.86 995.288,890.193 987,906.5C 977.577,919.678 967.91,932.678 958,945.5C 936.943,967.455 912.61,981.788 885,988.5C 824.298,992.701 776.631,969.701 742,919.5C 731.089,901.779 723.089,882.779 718,862.5C 713.092,840.961 709.092,819.294 706,797.5C 703.841,784.039 701.175,770.706 698,757.5C 692.794,747.944 687.127,738.611 681,729.5C 673.525,723.363 666.025,717.197 658.5,711C 645.65,705.829 632.816,700.662 620,695.5C 588.601,686.767 558.101,674.267 528.5,658C 467.355,614.833 445.522,556.667 463,483.5C 472.096,466.461 483.263,450.961 496.5,437C 512.226,425.138 528.893,414.804 546.5,406C 565.952,398.961 585.452,392.127 605,385.5C 610.717,384.611 616.55,383.111 622.5,381C 627.725,380.237 632.892,379.403 638,378.5C 638.333,378.833 638.667,379.167 639,379.5C 641.333,378.833 643.667,378.167 646,377.5C 646.333,377.833 646.667,378.167 647,378.5C 649.333,377.833 651.667,377.167 654,376.5C 654.333,376.833 654.667,377.167 655,377.5C 657.333,376.833 659.667,376.167 662,375.5C 670.08,375.546 678.413,374.213 687,371.5C 687.414,371.957 687.914,372.291 688.5,372.5C 711.033,369.668 733.866,367.335 757,365.5C 758.268,365.616 759.602,365.949 761,366.5C 763.333,365.833 765.667,365.167 768,364.5C 776.133,364.391 784.133,364.724 792,365.5C 805.931,364.841 819.765,364.175 833.5,363.5 Z"/></g>
<g><path style="opacity:0.005" fill="#53a9e6" d="M 1148.5,522.5 C 1148.84,523.338 1149.51,523.672 1150.5,523.5C 1148.13,524.899 1145.63,526.232 1143,527.5C 1142.38,526.551 1142.55,525.718 1143.5,525C 1145.08,523.906 1146.74,523.072 1148.5,522.5 Z"/></g>
<g><path style="opacity:0.978" fill="#53a9e6" d="M 1265.5,567.5 C 1275.3,567.516 1285.14,567.516 1295,567.5C 1303,569.812 1311.17,572.645 1319.5,576C 1324.28,579.807 1329.45,582.974 1335,585.5C 1351.64,604.341 1362.81,626.175 1368.5,651C 1368.42,655.686 1368.26,660.519 1368,665.5C 1366.56,671.805 1365.23,678.138 1364,684.5C 1359.58,691.753 1355.91,699.42 1353,707.5C 1332.9,740.303 1304.73,764.803 1268.5,781C 1223.82,800.838 1177.49,808.172 1129.5,803C 1114.54,798.941 1102.38,790.775 1093,778.5C 1089,772.5 1085,766.5 1081,760.5C 1077.74,752.373 1075.07,744.04 1073,735.5C 1072,712.009 1078.17,690.675 1091.5,671.5C 1096.48,664.69 1101.64,658.024 1107,651.5C 1110.5,649.333 1113.33,646.5 1115.5,643C 1123.43,637.357 1130.93,631.19 1138,624.5C 1138.33,624.833 1138.67,625.167 1139,625.5C 1150.86,615.631 1163.53,606.965 1177,599.5C 1177.33,599.833 1177.67,600.167 1178,600.5C 1183.03,597.155 1188.03,593.821 1193,590.5C 1193.33,590.833 1193.67,591.167 1194,591.5C 1198.35,588.819 1202.85,586.319 1207.5,584C 1226.83,577.783 1246.17,572.283 1265.5,567.5 Z"/></g>
</svg>
