<?xml version="1.0" encoding="UTF-8"?>
<!DOCTYPE svg PUBLIC "-//W3C//DTD SVG 1.1//EN" "http://www.w3.org/Graphics/SVG/1.1/DTD/svg11.dtd">
<svg xmlns="http://www.w3.org/2000/svg" version="1.1" width="1920px" height="1080px" style="shape-rendering:geometricPrecision; text-rendering:geometricPrecision; image-rendering:optimizeQuality; fill-rule:evenodd; clip-rule:evenodd" xmlns:xlink="http://www.w3.org/1999/xlink">
<g><path style="opacity:0.992" fill="#53a9e6" d="M 1130.5,38.5 C 1135.3,39.703 1139.8,39.703 1144,38.5C 1219.52,53.36 1265.69,100.193 1282.5,179C 1282.94,184.416 1283.94,189.916 1285.5,195.5C 1285.61,207.325 1285.45,219.325 1285,231.5C 1284.79,235.089 1284.29,238.589 1283.5,242C 1284.02,242.561 1284.36,243.228 1284.5,244C 1280.16,275.504 1275.83,307.837 1271.5,341C 1271.72,344.692 1271.88,348.859 1272,353.5C 1274.67,363.522 1277.34,373.522 1280,383.5C 1285.71,393.084 1291.54,402.584 1297.5,412C 1321.62,431.269 1346.96,450.602 1373.5,470C 1393.39,485.895 1411.23,503.728 1427,523.5C 1445.26,551.965 1456.1,582.798 1459.5,616C 1460.39,654.674 1449.56,689.841 1427,721.5C 1395.24,753.582 1357.57,770.582 1314,772.5C 1310.43,773.867 1306.76,774.867 1303,775.5C 1298.17,775.281 1293.17,774.615 1288,773.5C 1286,774.167 1284,774.833 1282,775.5C 1281.67,775.167 1281.33,774.833 1281,774.5C 1276.33,775.167 1271.67,775.833 1267,776.5C 1261.18,775.757 1255.18,775.757 1249,776.5C 1245.67,775.833 1242.33,775.167 1239,774.5C 1234.76,775.355 1230.1,775.355 1225,774.5C 1195.57,769.641 1166.23,764.308 1137,758.5C 1122.24,756.341 1106.91,753.007 1091,748.5C 1090.67,748.833 1090.33,749.167 1090,749.5C 1088.33,748.5 1086.67,747.5 1085,746.5C 1079.85,746.606 1074.52,745.273 1069,742.5C 1067.85,743.458 1066.85,743.125 1066,741.5C 1065.67,741.833 1065.33,742.167 1065,742.5C 1062.67,741.5 1060.33,740.5 1058,739.5C 1056.85,740.458 1055.85,740.125 1055,738.5C 1054.67,738.833 1054.33,739.167 1054,739.5C 1040.68,734.454 1027.68,730.454 1015,727.5C 1001.37,722.518 987.699,718.518 974,715.5C 938.304,704.017 903.804,687.517 870.5,666C 862.545,658.296 853.712,650.796 844,643.5C 832.845,631.031 822.678,617.864 813.5,604C 809.053,593.178 804.219,581.678 799,569.5C 797.331,565.824 796.164,561.991 795.5,558C 795.095,557.055 794.428,556.388 793.5,556C 793.833,555.667 794.167,555.333 794.5,555C 792.385,548.474 790.718,542.141 789.5,536C 789.665,534.883 789.998,533.716 790.5,532.5C 789.443,525.909 788.443,519.409 787.5,513C 788.578,468.843 799.245,425.343 819.5,382.5C 837.473,349.202 854.806,316.035 871.5,283C 901.944,232.557 934.777,183.723 970,136.5C 984.748,121.017 999.914,105.85 1015.5,91C 1032.23,77.6265 1049.89,65.6265 1068.5,55C 1076.77,51.6906 1084.93,48.1906 1093,44.5C 1093.41,44.9574 1093.91,45.2907 1094.5,45.5C 1097.56,44.2936 1100.56,43.2936 1103.5,42.5C 1105.06,43.3473 1106.56,43.0139 1108,41.5C 1108.41,41.9574 1108.91,42.2907 1109.5,42.5C 1116.34,41.1997 1123.34,39.8664 1130.5,38.5 Z"/></g>
<g><path style="opacity:0.983" fill="#53a9e6" d="M 687.5,128.5 C 701.39,128.975 714.557,128.975 727,128.5C 735.95,129.853 744.616,131.186 753,132.5C 753.333,132.167 753.667,131.833 754,131.5C 757.366,132.374 760.7,133.374 764,134.5C 765,134.167 766,133.833 767,133.5C 770.909,135.597 774.576,136.264 778,135.5C 778.853,137.125 779.853,137.458 781,136.5C 795.511,140.212 809.678,145.379 823.5,152C 835.285,158.785 844.785,167.952 852,179.5C 856.759,192.138 860.926,204.638 864.5,217C 866.948,237.151 862.781,256.651 852,275.5C 848.382,281.118 844.382,286.452 840,291.5C 827.357,303.465 813.523,313.965 798.5,323C 789.994,326.342 781.494,330.509 773,335.5C 772.667,335.167 772.333,334.833 772,334.5C 763.077,337.49 754.41,340.823 746,344.5C 745.586,344.043 745.086,343.709 744.5,343.5C 737.225,346.201 729.558,348.701 721.5,351C 706.286,353.856 691.12,356.69 676,359.5C 675.586,359.043 675.086,358.709 674.5,358.5C 671.63,359.122 668.796,359.789 666,360.5C 655.139,360.112 644.806,360.112 635,360.5C 631.754,359.182 628.42,358.182 625,357.5C 618.45,357.414 612.117,357.747 606,358.5C 592.072,355.092 578.906,350.592 566.5,345C 561.833,341.667 557.167,338.333 552.5,335C 548.351,329.684 543.685,324.851 538.5,320.5C 534.388,314.131 530.888,307.464 528,300.5C 526.794,294.139 525.461,287.806 524,281.5C 522.461,280.454 522.295,279.121 523.5,277.5C 523.182,276.353 522.516,275.519 521.5,275C 522.059,274.275 522.392,273.442 522.5,272.5C 521.908,267.278 521.242,262.112 520.5,257C 520.959,251.375 520.959,245.209 520.5,238.5C 521.629,234.889 522.962,231.389 524.5,228C 524.167,227.667 523.833,227.333 523.5,227C 526.539,220.423 529.705,213.923 533,207.5C 559.062,172.28 592.896,149.28 634.5,138.5C 638.045,137.228 641.545,135.894 645,134.5C 645.414,134.957 645.914,135.291 646.5,135.5C 651.186,133.821 655.686,132.488 660,131.5C 660.414,131.957 660.914,132.291 661.5,132.5C 669.95,130.76 678.616,129.427 687.5,128.5 Z"/></g>
<g><path style="opacity:0.982" fill="#53a9e6" d="M 710.5,445.5 C 721.7,456.546 729.866,469.546 735,484.5C 735.27,487.224 735.77,489.891 736.5,492.5C 738.017,517.512 730.517,540.846 714,562.5C 693.719,588.108 668.719,607.775 639,621.5C 628.928,624.508 618.928,628.508 609,633.5C 606.667,633.5 604.333,633.5 602,633.5C 586.663,638.406 571.33,642.406 556,645.5C 555.667,645.167 555.333,644.833 555,644.5C 548.634,645.261 542.301,646.261 536,647.5C 535.586,647.043 535.086,646.709 534.5,646.5C 529.947,647.674 525.447,648.674 521,649.5C 517.099,648.915 513.099,648.582 509,648.5C 494.096,651.212 479.096,650.546 464,646.5C 447.465,643.905 432.132,636.239 418,623.5C 410.578,615.412 403.912,606.745 398,597.5C 395.515,590.006 393.349,582.173 391.5,574C 392.059,573.275 392.392,572.442 392.5,571.5C 391.579,562.872 390.579,554.539 389.5,546.5C 393.063,525.022 401.896,505.689 416,488.5C 435.969,468.594 458.802,452.76 484.5,441C 504.139,432.695 523.639,424.862 543,417.5C 545.211,417.623 547.378,417.623 549.5,417.5C 563.355,412.026 577.521,409.36 592,409.5C 598.434,407.089 604.434,406.423 610,407.5C 612,406.833 614,406.167 616,405.5C 624.161,407.08 632.828,409.08 642,411.5C 643.147,410.542 644.147,410.875 645,412.5C 647.176,412.572 649.176,412.238 651,411.5C 653.333,412.5 655.667,413.5 658,414.5C 659.147,413.542 660.147,413.875 661,415.5C 661.333,415.167 661.667,414.833 662,414.5C 671.06,418.562 679.894,423.062 688.5,428C 692.827,431.351 696.993,434.184 701,436.5C 703.379,440.38 706.546,443.38 710.5,445.5 Z"/></g>
<g><path style="opacity:0.006" fill="#53a9e6" d="M 718.5,444.5 C 716.052,445.473 713.385,445.806 710.5,445.5C 710.62,444.414 711.287,443.747 712.5,443.5C 714.491,443.85 716.491,444.183 718.5,444.5 Z"/></g>
<g><path style="opacity:0.004" fill="#53a9e6" d="M 718.5,443.5 C 719.833,444.167 719.833,444.167 718.5,443.5 Z"/></g>
<g><path style="opacity:0.982" fill="#53a9e6" d="M 532.5,750.5 C 562.202,720.751 595.369,695.751 632,675.5C 647.138,668.795 662.805,662.462 679,656.5C 681.333,656.5 683.667,656.5 686,656.5C 692.01,654.396 698.176,652.729 704.5,651.5C 720.094,650.567 736.594,650.567 754,651.5C 773.412,654.439 791.245,661.772 807.5,673.5C 812.547,678.71 817.38,684.043 822,689.5C 825.557,696.837 828.723,704.337 831.5,712C 831.355,712.772 831.022,713.439 830.5,714C 836.502,744.349 832.002,773.182 817,800.5C 810.276,811.557 802.776,822.057 794.5,832C 784.057,840.411 773.724,848.911 763.5,857.5C 751.478,864.009 739.811,871.175 728.5,879C 708.54,887.31 688.54,895.643 668.5,904C 663.065,904.707 657.898,906.207 653,908.5C 652.586,908.043 652.086,907.709 651.5,907.5C 649.5,908.5 647.5,909.5 645.5,910.5C 643.939,909.653 642.439,909.986 641,911.5C 640.586,911.043 640.086,910.709 639.5,910.5C 634.688,912.242 630.022,913.575 625.5,914.5C 623.939,913.653 622.439,913.986 621,915.5C 611.193,914.554 601.527,914.554 592,915.5C 579.369,913.455 566.535,909.955 553.5,905C 545.46,900.462 538.126,894.962 531.5,888.5C 526.871,881.707 521.704,875.373 516,869.5C 512.068,862.635 508.401,855.635 505,848.5C 504.12,843.84 503.287,839.173 502.5,834.5C 504.133,832.613 503.8,831.113 501.5,830C 502.049,825.548 502.049,821.215 501.5,817C 503.425,792.071 513.758,769.904 532.5,750.5 Z"/></g>
<g><path style="opacity:0.004" fill="#53a9e6" d="M 532.5,750.5 C 531.833,749.167 531.833,749.167 532.5,750.5 Z"/></g>
<g><path style="opacity:0.983" fill="#53a9e6" d="M 1023.5,753.5 C 1030.64,754.301 1037.48,755.301 1044,756.5C 1044.33,756.167 1044.67,755.833 1045,755.5C 1051.68,758.401 1058.51,760.567 1065.5,762C 1076.53,767.29 1086.36,774.79 1095,784.5C 1102.07,794.384 1108.41,804.718 1114,815.5C 1116.73,822.812 1118.56,830.312 1119.5,838C 1118.99,845.3 1118.15,852.8 1117,860.5C 1110.04,882.126 1100.37,902.459 1088,921.5C 1067.31,951.95 1042.48,978.617 1013.5,1001.5C 985.019,1021.5 953.519,1034.16 919,1039.5C 908.217,1039.27 896.883,1039.27 885,1039.5C 878.83,1037.66 872.33,1035.82 865.5,1034C 861.648,1031.62 857.815,1030.12 854,1029.5C 838.529,1017.02 825.029,1002.68 813.5,986.5C 807.96,977.136 803.96,967.469 801.5,957.5C 801.402,952.724 801.402,947.89 801.5,943C 800.789,940.204 800.122,937.37 799.5,934.5C 800.955,928.707 802.288,922.874 803.5,917C 807.313,905.239 812.479,894.073 819,883.5C 830.759,868.401 842.925,853.567 855.5,839C 872.052,824.385 889.386,810.718 907.5,798C 923.185,788.245 939.018,779.078 955,770.5C 955.333,770.833 955.667,771.167 956,771.5C 967.464,765.905 979.13,761.572 991,758.5C 991.414,758.957 991.914,759.291 992.5,759.5C 997.452,757.309 1002.45,756.309 1007.5,756.5C 1008.75,755.96 1009.91,755.293 1011,754.5C 1013.11,754.566 1015.28,754.899 1017.5,755.5C 1019.66,754.95 1021.66,754.283 1023.5,753.5 Z"/></g>
</svg>
