<?xml version="1.0" encoding="UTF-8"?>
<!DOCTYPE svg PUBLIC "-//W3C//DTD SVG 1.1//EN" "http://www.w3.org/Graphics/SVG/1.1/DTD/svg11.dtd">
<svg xmlns="http://www.w3.org/2000/svg" version="1.1" width="1920px" height="1080px" style="shape-rendering:geometricPrecision; text-rendering:geometricPrecision; image-rendering:optimizeQuality; fill-rule:evenodd; clip-rule:evenodd" xmlns:xlink="http://www.w3.org/1999/xlink">
<g><path style="opacity:0.977" fill="#53a9e6" d="M 914.5,163.5 C 934.532,161.9 952.865,166.733 969.5,178C 974.454,181.285 979.12,184.952 983.5,189C 990,196.167 996.5,203.333 1003,210.5C 1019.6,235.033 1033.6,261.033 1045,288.5C 1047.99,300.14 1050.99,311.807 1054,323.5C 1054.81,338.959 1053.81,354.292 1051,369.5C 1046.01,384.494 1038.67,398.16 1029,410.5C 1011.7,429.023 990.868,435.523 966.5,430C 952.135,426.331 939.135,419.998 927.5,411C 903.441,392.045 885.274,368.545 873,340.5C 860.354,308.926 851.854,275.926 847.5,241.5C 848.012,224.466 852.846,208.799 862,194.5C 867.496,188.005 873.329,181.838 879.5,176C 890.74,170.446 902.407,166.28 914.5,163.5 Z"/></g>
<g><path style="opacity:0.979" fill="#53a9e6" d="M 1170.5,234.5 C 1184.11,233.903 1196.78,237.07 1208.5,244C 1235.48,260.988 1255.32,284.154 1268,313.5C 1286.87,363.673 1289.2,414.34 1275,465.5C 1270.99,475.702 1264.49,483.869 1255.5,490C 1240.63,499.57 1224.63,504.737 1207.5,505.5C 1192.09,503.955 1178.09,498.788 1165.5,490C 1149.35,476.531 1136.19,460.698 1126,442.5C 1112.02,415.93 1101.68,387.93 1095,358.5C 1092.77,340.559 1091.77,322.559 1092,304.5C 1093.73,293.298 1097.07,282.632 1102,272.5C 1106.5,266.667 1111,260.833 1115.5,255C 1132.23,243.922 1150.56,237.089 1170.5,234.5 Z"/></g>
<g><path style="opacity:0.977" fill="#53a9e6" d="M 729.5,277.5 C 742.46,279.765 754.794,283.931 766.5,290C 782.239,301.547 797.239,314.047 811.5,327.5C 832.008,348.183 848.842,371.517 862,397.5C 876.087,429.386 878.42,462.052 869,495.5C 860.583,513.35 846.917,525.017 828,530.5C 807.02,534.749 786.187,533.249 765.5,526C 756.411,521.524 747.411,516.858 738.5,512C 716.483,493.302 697.983,471.469 683,446.5C 670.969,426.705 661.469,405.872 654.5,384C 654.833,383.667 655.167,383.333 655.5,383C 650.077,363.729 650.577,344.562 657,325.5C 659.161,320.508 661.828,315.841 665,311.5C 673.197,302.969 681.697,294.802 690.5,287C 703.158,281.841 716.158,278.674 729.5,277.5 Z"/></g>
<g><path style="opacity:0.007" fill="#53a9e6" d="M 1034.5,408.5 C 1033.22,407.614 1033.22,406.614 1034.5,405.5C 1035.56,406.425 1035.56,407.425 1034.5,408.5 Z"/></g>
<g><path style="opacity:0.004" fill="#53a9e6" d="M 1034.5,408.5 C 1035.83,409.167 1035.83,409.167 1034.5,408.5 Z"/></g>
<g><path style="opacity:0.004" fill="#53a9e6" d="M 1034.5,409.5 C 1034.5,409.833 1034.5,410.167 1034.5,410.5C 1033.83,410.019 1033.83,409.685 1034.5,409.5 Z"/></g>
<g><path style="opacity:0.004" fill="#53a9e6" d="M 1034.5,410.5 C 1035.83,411.167 1035.83,411.167 1034.5,410.5 Z"/></g>
<g><path style="opacity:0.99" fill="#53a9e6" d="M 1005.5,470.5 C 1012.83,470.674 1020.5,470.841 1028.5,471C 1040.21,472.341 1051.88,474.007 1063.5,476C 1081.79,480.405 1099.79,485.739 1117.5,492C 1141.61,501.925 1165.94,511.259 1190.5,520C 1226.49,536.663 1261.83,554.33 1296.5,573C 1303.23,578.059 1310.23,582.726 1317.5,587C 1323.83,592.667 1330.17,598.333 1336.5,604C 1338.27,605.439 1340.27,606.439 1342.5,607C 1359.28,622.103 1373.45,639.27 1385,658.5C 1403.47,697.92 1400.8,735.92 1377,772.5C 1350.95,808.353 1315.95,828.686 1272,833.5C 1261.9,834.604 1251.23,835.604 1240,836.5C 1219.24,835.955 1197.57,835.621 1175,835.5C 1153.47,838.565 1135.13,847.899 1120,863.5C 1104.33,890.167 1088.67,916.833 1073,943.5C 1048.76,981.701 1014.26,1004.87 969.5,1013C 914.755,1018.72 874.588,997.551 849,949.5C 837.035,918.943 830.035,887.276 828,854.5C 827.764,810.701 830.097,767.034 835,723.5C 840.542,691.915 845.542,660.248 850,628.5C 857.524,593.89 870.857,561.89 890,532.5C 914.656,500.912 946.823,481.079 986.5,473C 992.966,472.071 999.299,471.237 1005.5,470.5 Z"/></g>
<g><path style="opacity:0.978" fill="#53a9e6" d="M 656.5,525.5 C 668.835,525.75 680.835,527.916 692.5,532C 710.3,541.064 727.3,551.398 743.5,563C 767.153,584.152 787.653,607.985 805,634.5C 813.251,649.667 819.251,665.667 823,682.5C 827.029,708.417 819.529,730.251 800.5,748C 791.761,756.039 781.761,762.039 770.5,766C 763.98,767.01 757.48,767.843 751,768.5C 704.056,758.688 663.556,737.021 629.5,703.5C 601.95,675.864 586.95,643.031 584.5,605C 583.854,589.39 588.354,575.557 598,563.5C 604.955,555.709 612.122,548.042 619.5,540.5C 624.668,537.081 630.002,533.915 635.5,531C 642.678,529.37 649.678,527.537 656.5,525.5 Z"/></g>
</svg>
