<?xml version="1.0" encoding="UTF-8"?>
<!DOCTYPE svg PUBLIC "-//W3C//DTD SVG 1.1//EN" "http://www.w3.org/Graphics/SVG/1.1/DTD/svg11.dtd">
<svg xmlns="http://www.w3.org/2000/svg" version="1.1" width="1920px" height="1080px" style="shape-rendering:geometricPrecision; text-rendering:geometricPrecision; image-rendering:optimizeQuality; fill-rule:evenodd; clip-rule:evenodd" xmlns:xlink="http://www.w3.org/1999/xlink">
<g><path style="opacity:0.978" fill="#93d994" d="M 699.5,362.5 C 710.618,361.961 721.618,362.795 732.5,365C 754.763,376.514 766.43,394.847 767.5,420C 768.497,446.529 765.33,472.696 758,498.5C 749.606,523.217 734.773,543.05 713.5,558C 694.752,568.747 676.752,567.747 659.5,555C 636.241,534.533 626.907,509.2 631.5,479C 631.04,477.699 630.706,476.366 630.5,475C 635.347,444.783 645.514,416.616 661,390.5C 670.835,376.852 683.669,367.519 699.5,362.5 Z"/></g>
<g><path style="opacity:0.979" fill="#93d994" d="M 815.5,449.5 C 816.675,449.719 817.675,449.386 818.5,448.5C 819.137,446.697 820.303,445.364 822,444.5C 822.483,443.552 822.649,442.552 822.5,441.5C 841.721,415.981 865.388,408.814 893.5,420C 898.694,424.027 904.027,427.86 909.5,431.5C 918.013,440.848 923.18,451.848 925,464.5C 926.25,478.67 925.25,492.67 922,506.5C 915.417,533.992 903.751,558.992 887,581.5C 873.558,596.927 856.725,606.427 836.5,610C 807.66,614.001 788.827,602.167 780,574.5C 773.92,548.237 775.92,522.904 786,498.5C 793.82,480.844 803.653,464.51 815.5,449.5 Z"/></g>
<g><path style="opacity:0.925" fill="#76b9c5" d="M 822.5,441.5 C 822.649,442.552 822.483,443.552 822,444.5C 820.303,445.364 819.137,446.697 818.5,448.5C 817.675,449.386 816.675,449.719 815.5,449.5C 817.372,446.418 819.705,443.751 822.5,441.5 Z"/></g>
<g><path style="opacity:0.979" fill="#93d994" d="M 502.5,636.5 C 502.027,635.094 501.027,634.427 499.5,634.5C 492.546,627.358 487.38,619.024 484,609.5C 469.447,572.354 467.781,534.687 479,496.5C 487.064,474.796 501.231,458.629 521.5,448C 538.441,444.222 555.108,445.555 571.5,452C 585.042,460.223 593.875,472.056 598,487.5C 606.413,524.596 604.746,561.262 593,597.5C 587.524,612.961 578.691,626.128 566.5,637C 555.386,644.552 543.553,648.052 531,647.5C 524.828,646.163 518.661,644.663 512.5,643C 508.589,641.556 505.256,639.389 502.5,636.5 Z"/></g>
<g><path style="opacity:0.979" fill="#93d994" d="M 903.5,775.5 C 900.23,773.84 896.897,773.506 893.5,774.5C 863.153,768.154 847.82,749.488 847.5,718.5C 847.735,698.632 852.568,679.965 862,662.5C 869.495,646.831 878.495,632.164 889,618.5C 896.113,612.544 902.613,606.044 908.5,599C 934.113,579.349 959.446,579.683 984.5,600C 994.02,606.863 1000.19,616.03 1003,627.5C 1008.2,655.856 1003.2,682.523 988,707.5C 970.591,734.577 947.758,755.744 919.5,771C 914.416,773.417 909.082,774.917 903.5,775.5 Z"/></g>
<g><path style="opacity:0.99" fill="#93da93" d="M 689.5,592.5 C 732.666,591.004 767.166,607.337 793,641.5C 800.184,652.537 806.851,663.87 813,675.5C 829.225,714.283 842.891,753.95 854,794.5C 858.301,811.035 861.967,827.702 865,844.5C 867.488,864.539 867.488,884.539 865,904.5C 859.798,939.493 840.632,962.659 807.5,974C 767.455,983.45 732.455,973.45 702.5,944C 686.833,926.333 671.167,908.667 655.5,891C 642.431,882.323 628.098,878.657 612.5,880C 595.157,883.338 577.824,886.671 560.5,890C 529.383,896.759 500.383,891.759 473.5,875C 434.078,845.486 424.245,808.653 444,764.5C 448.604,756.234 453.604,748.234 459,740.5C 468.798,729.034 478.964,717.867 489.5,707C 508.88,691.285 528.547,675.951 548.5,661C 571.833,646.333 595.167,631.667 618.5,617C 640.815,604.508 664.481,596.341 689.5,592.5 Z"/></g>
<g><path style="opacity:0.006" fill="#93da93" d="M 828.5,613.5 C 829.002,611.915 830.002,611.415 831.5,612C 830.756,613.039 829.756,613.539 828.5,613.5 Z"/></g>
<g><path style="opacity:0.004" fill="#93da93" d="M 828.5,613.5 C 827.833,614.167 827.833,614.167 828.5,613.5 Z"/></g>
<g><path style="opacity:0.502" fill="#4f98eb" d="M 499.5,634.5 C 501.027,634.427 502.027,635.094 502.5,636.5C 500.973,636.573 499.973,635.906 499.5,634.5 Z"/></g>
<g><path style="opacity:0.904" fill="#72b8ca" d="M 903.5,775.5 C 899.958,775.813 896.625,775.479 893.5,774.5C 896.897,773.506 900.23,773.84 903.5,775.5 Z"/></g>
</svg>
