<?xml version="1.0" encoding="UTF-8"?>
<!DOCTYPE svg PUBLIC "-//W3C//DTD SVG 1.1//EN" "http://www.w3.org/Graphics/SVG/1.1/DTD/svg11.dtd">
<svg xmlns="http://www.w3.org/2000/svg" version="1.1" width="1920px" height="1080px" style="shape-rendering:geometricPrecision; text-rendering:geometricPrecision; image-rendering:optimizeQuality; fill-rule:evenodd; clip-rule:evenodd" xmlns:xlink="http://www.w3.org/1999/xlink">
<g><path style="opacity:0.992" fill="#93da93" d="M 931.5,18.5 C 936.923,19.7484 942.089,19.7484 947,18.5C 953.316,19.313 959.316,20.313 965,21.5C 965.333,21.1667 965.667,20.8333 966,20.5C 968.324,21.8448 970.658,22.1782 973,21.5C 995.561,26.5957 1017.39,36.429 1038.5,51C 1047.72,59.8517 1057.22,68.3517 1067,76.5C 1086.33,100.075 1101,126.408 1111,155.5C 1120.87,187.109 1131.54,218.442 1143,249.5C 1149.79,258.623 1156.95,267.456 1164.5,276C 1175.72,284.023 1187.55,290.856 1200,296.5C 1200.33,296.167 1200.67,295.833 1201,295.5C 1203.73,295.961 1206.56,296.961 1209.5,298.5C 1210.09,298.291 1210.59,297.957 1211,297.5C 1212.15,298.743 1213.49,299.743 1215,300.5C 1216.4,299.949 1217.73,299.616 1219,299.5C 1222.18,300.856 1225.18,301.856 1228,302.5C 1229.34,301.786 1230.68,302.12 1232,303.5C 1234.33,303.5 1236.67,303.5 1239,303.5C 1240.32,304.88 1241.66,305.214 1243,304.5C 1244.78,305.24 1246.62,305.907 1248.5,306.5C 1255.11,306.502 1261.95,307.835 1269,310.5C 1270.27,310.384 1271.6,310.051 1273,309.5C 1274.08,311.394 1275.41,311.727 1277,310.5C 1277.5,311 1278,311.5 1278.5,312C 1300.04,316.345 1320.54,321.845 1340,328.5C 1346.24,330.709 1352.24,334.043 1358,338.5C 1358.33,338.167 1358.67,337.833 1359,337.5C 1373.29,346.77 1386.79,357.27 1399.5,369C 1442.81,412.945 1457.31,465.112 1443,525.5C 1431.79,554.478 1413.96,578.312 1389.5,597C 1379.43,604.551 1369.09,611.884 1358.5,619C 1354,621.887 1349.34,623.554 1344.5,624C 1341.07,626.495 1337.57,628.995 1334,631.5C 1301.64,648.062 1267.81,660.228 1232.5,668C 1230.52,669.541 1228.52,670.041 1226.5,669.5C 1221.24,672.096 1216.08,674.096 1211,675.5C 1208.18,674.87 1205.52,675.536 1203,677.5C 1202.59,677.043 1202.09,676.709 1201.5,676.5C 1197.14,678.602 1192.64,680.269 1188,681.5C 1186,681.5 1184,681.5 1182,681.5C 1179.91,682.308 1177.91,683.308 1176,684.5C 1175.59,684.043 1175.09,683.709 1174.5,683.5C 1168.99,685.221 1163.49,686.887 1158,688.5C 1155.87,688.587 1153.7,688.587 1151.5,688.5C 1149.71,690.021 1147.88,690.354 1146,689.5C 1137.5,691.87 1129.5,693.87 1122,695.5C 1120.22,694.521 1118.55,694.854 1117,696.5C 1115.22,695.521 1113.55,695.854 1112,697.5C 1109.34,696.275 1106.67,696.608 1104,698.5C 1103.59,698.043 1103.09,697.709 1102.5,697.5C 1094.2,699.796 1085.7,701.463 1077,702.5C 1076.59,702.043 1076.09,701.709 1075.5,701.5C 1070.94,702.704 1066.44,704.037 1062,705.5C 1061.59,705.043 1061.09,704.709 1060.5,704.5C 1054.59,704.803 1048.75,706.136 1043,708.5C 1039.8,708.446 1036.63,708.446 1033.5,708.5C 1030.7,709.398 1027.86,710.398 1025,711.5C 1019.67,712.833 1014.33,712.833 1009,711.5C 1008,712.167 1007,712.833 1006,713.5C 985.789,713.622 965.122,713.622 944,713.5C 941.753,711.845 939.42,711.512 937,712.5C 935.215,711.76 933.382,711.093 931.5,710.5C 928.966,710.566 926.466,710.566 924,710.5C 921.667,709.5 919.333,708.5 917,707.5C 914.667,707.5 912.333,707.5 910,707.5C 889.763,702.074 870.263,694.241 851.5,684C 847.542,681.766 844.042,678.933 841,675.5C 840.667,675.833 840.333,676.167 840,676.5C 826.648,664.812 813.648,652.812 801,640.5C 773.926,602.634 758.259,560.301 754,513.5C 753.166,502.805 752.333,492.138 751.5,481.5C 752.404,448.055 753.737,414.222 755.5,380C 755.729,351.463 757.896,322.963 762,294.5C 766.666,264.503 771.333,234.503 776,204.5C 778.865,192.04 782.198,179.707 786,167.5C 792.071,152.617 797.737,137.617 803,122.5C 814.3,97.4034 829.466,74.9034 848.5,55C 858.087,48.2068 867.421,41.3735 876.5,34.5C 887.557,28.2255 899.057,23.8921 911,21.5C 912.628,22.0966 914.295,21.7633 916,20.5C 919.199,20.5537 922.366,20.5537 925.5,20.5C 927.657,19.9495 929.657,19.2829 931.5,18.5 Z"/></g>
<g><path style="opacity:0.982" fill="#93d994" d="M 673.5,272.5 C 673.461,273.756 673.961,274.756 675,275.5C 676.451,275.736 677.951,275.736 679.5,275.5C 679.414,276.496 679.748,277.329 680.5,278C 681.766,278.309 682.933,278.809 684,279.5C 685.147,278.542 686.147,278.875 687,280.5C 687.399,280.272 687.565,279.938 687.5,279.5C 688.766,280.09 690.099,280.59 691.5,281C 702.039,290.871 711.872,301.371 721,312.5C 736.907,340.194 738.574,368.861 726,398.5C 721.849,407.305 717.516,415.971 713,424.5C 706.752,432.667 700.752,441 695,449.5C 668.14,478.698 637.974,503.865 604.5,525C 591.298,531.99 578.298,537.49 565.5,541.5C 562.592,542.578 560.092,544.245 558,546.5C 557.667,546.167 557.333,545.833 557,545.5C 550.422,548.458 543.755,551.125 537,553.5C 533.512,552.289 529.845,552.623 526,554.5C 525.586,554.043 525.086,553.709 524.5,553.5C 517.719,555.073 511.552,555.74 506,555.5C 505,554.833 504,554.167 503,553.5C 500.333,554.833 497.667,554.833 495,553.5C 487.051,550.068 479.218,547.235 471.5,545C 465.368,540.081 459.034,535.414 452.5,531C 449.881,528.359 448.048,525.193 447,521.5C 446.667,521.833 446.333,522.167 446,522.5C 437.068,510.973 429.401,498.64 423,485.5C 414.863,463.627 415.363,442.127 424.5,421C 428.953,403.557 436.62,387.391 447.5,372.5C 476.504,334.719 513.504,307.219 558.5,290C 569.361,286.278 579.861,282.444 590,278.5C 590.414,278.957 590.914,279.291 591.5,279.5C 601.47,275.811 611.636,272.811 622,270.5C 623.667,270.833 625.333,271.167 627,271.5C 628,270.833 629,270.167 630,269.5C 631.667,269.833 633.333,270.167 635,270.5C 636,269.833 637,269.167 638,268.5C 644.088,268.745 650.088,268.745 656,268.5C 662,270.869 667.834,272.202 673.5,272.5 Z"/></g>
<g><path style="opacity:0.431" fill="#539eeb" d="M 673.5,272.5 C 675.75,273.13 677.75,274.13 679.5,275.5C 677.951,275.736 676.451,275.736 675,275.5C 673.961,274.756 673.461,273.756 673.5,272.5 Z"/></g>
<g><path style="opacity:0.349" fill="#5caae0" d="M 679.5,275.5 C 680.397,276.598 681.23,276.598 682,275.5C 683.98,276.749 685.813,278.082 687.5,279.5C 687.565,279.938 687.399,280.272 687,280.5C 686.147,278.875 685.147,278.542 684,279.5C 682.933,278.809 681.766,278.309 680.5,278C 679.748,277.329 679.414,276.496 679.5,275.5 Z"/></g>
<g><path style="opacity:0.981" fill="#93d994" d="M 680.5,581.5 C 685.964,583.314 691.297,586.148 696.5,590C 697.766,590.309 698.933,590.809 700,591.5C 700.333,591.167 700.667,590.833 701,590.5C 709.913,597.203 718.08,604.703 725.5,613C 725.167,613.333 724.833,613.667 724.5,614C 727.569,618.687 730.402,623.521 733,628.5C 738.77,646.878 739.77,665.544 736,684.5C 727.998,720.839 711.832,752.839 687.5,780.5C 666.112,801.661 643.112,820.661 618.5,837.5C 610.465,841.849 602.465,846.183 594.5,850.5C 593.175,849.047 592.342,849.381 592,851.5C 591,851.5 590,851.5 589,851.5C 587.565,853.211 585.731,854.378 583.5,855C 582.748,855.671 582.414,856.504 582.5,857.5C 575.732,861.957 568.899,865.624 562,868.5C 555.95,869.677 549.283,871.344 542,873.5C 540.221,872.521 538.555,872.854 537,874.5C 536.586,874.043 536.086,873.709 535.5,873.5C 532.14,874.536 528.974,875.203 526,875.5C 515.042,874.933 504.875,873.099 495.5,870C 494.069,869.535 492.903,868.701 492,867.5C 490.434,868.061 489.101,867.394 488,865.5C 487.667,865.833 487.333,866.167 487,866.5C 480.501,863.827 474.001,860.327 467.5,856C 459.624,848.694 453.624,840.694 449.5,832C 438.841,819.384 432.841,804.717 431.5,788C 430.98,769.219 434.313,751.386 441.5,734.5C 445.416,724 450.583,713.667 457,703.5C 481.327,668.172 510.161,637.006 543.5,610C 551.442,606.877 558.442,602.377 564.5,596.5C 575.16,589.481 586.494,584.814 598.5,582.5C 607.567,580.809 616.4,578.476 625,575.5C 634.46,574.417 643.46,574.417 652,575.5C 653,576.167 654,576.833 655,577.5C 658.333,577.5 661.667,577.5 665,577.5C 668.165,578.385 671.498,579.718 675,581.5C 676.816,581.649 678.649,581.649 680.5,581.5 Z"/></g>
<g><path style="opacity:0.006" fill="#93da93" d="M 680.5,581.5 C 680.47,580.503 680.97,579.836 682,579.5C 684.158,578.549 686.325,578.049 688.5,578C 686.182,579.993 683.516,581.159 680.5,581.5 Z"/></g>
<g><path style="opacity:0.982" fill="#93d994" d="M 1216.5,750.5 C 1215.96,750.56 1215.62,750.893 1215.5,751.5C 1218.36,755.482 1221.02,759.482 1223.5,763.5C 1227.1,770.62 1229.27,778.287 1230,786.5C 1234.33,849.863 1220.66,909.196 1189,964.5C 1169.56,994.323 1144.56,1016.99 1114,1032.5C 1113.67,1032.17 1113.33,1031.83 1113,1031.5C 1107.26,1035.8 1101.1,1038.47 1094.5,1039.5C 1089.35,1041.46 1084.01,1042.8 1078.5,1043.5C 1073.38,1043.05 1068.22,1043.05 1063,1043.5C 1059.77,1042.65 1056.44,1041.32 1053,1039.5C 1051.41,1040.73 1050.08,1040.39 1049,1038.5C 1048.67,1038.83 1048.33,1039.17 1048,1039.5C 1041.98,1037.02 1035.65,1034.35 1029,1031.5C 1028.67,1031.83 1028.33,1032.17 1028,1032.5C 1021.5,1028 1014.66,1024.17 1007.5,1021C 1001.96,1016.16 996.122,1010.99 990,1005.5C 984.833,996.333 979.667,987.167 974.5,978C 974.833,977.667 975.167,977.333 975.5,977C 973.038,971.082 971.372,964.915 970.5,958.5C 970.421,948.948 970.588,939.282 971,929.5C 975.017,910.377 979.351,891.377 984,872.5C 1001.42,827.965 1025.92,787.965 1057.5,752.5C 1073.56,737.054 1091.73,724.721 1112,715.5C 1114.24,716.175 1116.41,715.675 1118.5,714C 1125.27,712.774 1131.77,711.607 1138,710.5C 1143.46,711.006 1149.13,711.673 1155,712.5C 1155.33,712.167 1155.67,711.833 1156,711.5C 1158.1,712.991 1160.43,713.991 1163,714.5C 1163.33,714.167 1163.67,713.833 1164,713.5C 1166.57,714.401 1168.9,715.734 1171,717.5C 1171.33,717.167 1171.67,716.833 1172,716.5C 1174.76,717.981 1177.43,719.647 1180,721.5C 1180.33,721.167 1180.67,720.833 1181,720.5C 1189.2,726.691 1197.7,732.524 1206.5,738C 1208,740.833 1210.17,743 1213,744.5C 1214.42,746.405 1215.59,748.405 1216.5,750.5 Z"/></g>
<g><path style="opacity:0.981" fill="#93d994" d="M 658.5,926.5 C 659.497,926.53 660.164,926.03 660.5,925C 661.772,921.077 663.272,917.244 665,913.5C 665.78,911.613 665.613,909.946 664.5,908.5C 679.399,872.255 698.899,838.922 723,808.5C 740.262,788.895 760.262,772.895 783,760.5C 791.684,756.496 800.351,752.496 809,748.5C 809.414,748.957 809.914,749.291 810.5,749.5C 818.51,746.783 826.343,744.45 834,742.5C 838.553,743.391 843.553,743.391 849,742.5C 860.508,742.209 871.508,744.876 882,750.5C 883.364,749.742 884.531,750.242 885.5,752C 886.833,752.333 888.167,752.667 889.5,753C 894.167,757 898.833,761 903.5,765C 922.959,789.361 932.959,817.361 933.5,849C 931.536,863.197 929.369,877.364 927,891.5C 921.018,904.801 915.018,918.135 909,931.5C 885.432,968.913 856.932,1002.25 823.5,1031.5C 808.113,1043.43 791.613,1052.76 774,1059.5C 773.667,1059.17 773.333,1058.83 773,1058.5C 766.982,1059.95 761.315,1061.61 756,1063.5C 754.467,1063.06 752.967,1062.72 751.5,1062.5C 748.14,1063.54 744.974,1064.2 742,1064.5C 737,1063.5 732,1062.5 727,1061.5C 725.657,1062.21 724.324,1061.88 723,1060.5C 721.333,1060.5 719.667,1060.5 718,1060.5C 709.837,1055.82 701.004,1051.65 691.5,1048C 687.781,1046.29 684.614,1043.79 682,1040.5C 681.667,1040.83 681.333,1041.17 681,1041.5C 667.299,1027.98 657.632,1012.32 652,994.5C 649.119,979.568 648.786,964.568 651,949.5C 651.655,944.375 653.155,939.542 655.5,935C 655.153,931.879 656.153,929.046 658.5,926.5 Z"/></g>
<g><path style="opacity:0.412" fill="#54a8e6" d="M 1216.5,750.5 C 1219.77,754.278 1222.1,758.611 1223.5,763.5C 1221.02,759.482 1218.36,755.482 1215.5,751.5C 1215.62,750.893 1215.96,750.56 1216.5,750.5 Z"/></g>
<g><path style="opacity:0.38" fill="#5499e8" d="M 594.5,850.5 C 591.024,853.623 587.024,855.957 582.5,857.5C 582.414,856.504 582.748,855.671 583.5,855C 585.731,854.378 587.565,853.211 589,851.5C 590,851.5 591,851.5 592,851.5C 592.342,849.381 593.175,849.047 594.5,850.5 Z"/></g>
<g><path style="opacity:0.325" fill="#55a8e6" d="M 664.5,908.5 C 665.613,909.946 665.78,911.613 665,913.5C 663.272,917.244 661.772,921.077 660.5,925C 660.164,926.03 659.497,926.53 658.5,926.5C 660.298,920.438 662.298,914.438 664.5,908.5 Z"/></g>
</svg>
