<?xml version="1.0" encoding="UTF-8"?>
<!-- Generator: visioncortex VTracer 0.6.4 -->
<svg version="1.1" xmlns="http://www.w3.org/2000/svg" width="815" height="595">
<path d="M0 0 C1.3786383 1.14145322 2.75407025 2.28679993 4.125 3.4375 C5.115 4.159375 6.105 4.88125 7.125 5.625 C17.91686815 14.83246645 24.6497437 29.27498147 29.125 42.4375 C29.67027344 42.17195313 30.21554687 41.90640625 30.77734375 41.6328125 C47.72169145 33.69648554 64.85655927 35.26602794 82.125 41.4375 C92.28580868 45.63933817 104.31112685 53.06094528 110.1015625 62.7421875 C111.87527124 65.71832906 111.87527124 65.71832906 115.05078125 66.06640625 C116.16839844 66.04449219 117.28601563 66.02257812 118.4375 66 C132.82831247 66.44971289 145.57627026 72.04785979 155.5625 82.51953125 C158.30029277 85.88017187 160.2296954 89.55630639 162.125 93.4375 C162.99125 95.0771875 162.99125 95.0771875 163.875 96.75 C165.33573963 101.05918191 165.57597973 104.94564889 165.71875 109.47265625 C166.22365835 113.15751625 167.01440546 115.35375708 169.125 118.4375 C171.58866506 120.05088326 174.19178177 121.08197558 176.9375 122.125 C178.34039588 122.69003733 179.74274881 123.25642474 181.14453125 123.82421875 C181.8190332 124.09331055 182.49353516 124.36240234 183.18847656 124.63964844 C192.31565119 128.40006279 198.54831963 134.34472606 202.37097168 143.51055908 C203.57822366 146.59572602 204.59151809 149.73774512 205.578125 152.8984375 C205.90948708 153.94627159 205.90948708 153.94627159 206.24754333 155.01527405 C206.96149022 157.27954403 207.66908207 159.54571479 208.375 161.8125 C208.6193277 162.59537384 208.8636554 163.37824768 209.11538696 164.18484497 C216.33893293 187.36315432 222.4426994 210.56891679 227.57209778 234.29190063 C228.80449895 239.98641857 230.06487271 245.67424505 231.33984375 251.359375 C231.52169724 252.17137863 231.70355072 252.98338226 231.89091492 253.81999207 C232.59728146 256.97368754 233.30372799 260.12736207 234.01290894 263.28042603 C235.89064266 271.63718587 237.69248145 279.99015241 239.125 288.4375 C239.73907715 288.50219482 240.3531543 288.56688965 240.98583984 288.63354492 C267.32554144 291.51483622 267.32554144 291.51483622 275.63476562 301.5234375 C288.22518538 317.69461884 300.04041359 342.86077921 301.85546875 363.32763672 C302.3308516 367.04888543 303.36672998 370.64030112 304.29711914 374.26953125 C311.95090484 404.13532079 311.95090484 404.13532079 306.125 414.4375 C303.8125 417.1875 303.8125 417.1875 301.125 419.4375 C300.25875 420.2625 299.3925 421.0875 298.5 421.9375 C290.3809611 428.51017622 279.09691129 431.38219035 269.33032227 434.72192383 C267.08664923 435.49171454 264.84904715 436.2775494 262.61132812 437.06445312 C248.78325342 441.85807963 234.82145822 444.91796421 220.38256836 447.20776367 C215.9763721 447.90934172 211.6159914 448.73749498 207.25390625 449.67578125 C143.54995248 463.31885138 78.05617197 468.30795318 13.20239258 473.20184326 C10.51113619 473.40793094 7.82088025 473.62271124 5.13085938 473.84423828 C-43.20435527 477.80817165 -92.60518644 476.45367907 -140.875 472.4375 C-142.77406097 472.28124146 -142.77406097 472.28124146 -144.71148682 472.12182617 C-205.707618 467.09672507 -266.99199307 461.75075147 -326.94384766 449.03369141 C-331.09064999 448.19023886 -335.25641626 447.52207803 -339.4375 446.875 C-355.78792102 444.22768192 -371.33293014 439.80927008 -387 434.5 C-387.75457489 434.24719269 -388.50914978 433.99438538 -389.28659058 433.73391724 C-416.99897919 424.40166732 -416.99897919 424.40166732 -423.75 413.375 C-429.26896742 398.96436284 -423.20182169 382.54354431 -419.57641602 368.33227539 C-418.92136338 365.62884373 -418.36278788 362.92765564 -417.84375 360.1953125 C-414.31405514 341.9982186 -406.40971931 323.24437725 -396.75 307.5 C-396.36682617 306.86819824 -395.98365234 306.23639648 -395.58886719 305.58544922 C-391.18976161 298.75330841 -385.67711149 293.9790358 -377.875 291.4375 C-374.07992577 290.70344995 -370.27471449 290.20687069 -366.4375 289.75 C-365.41978516 289.62044922 -364.40207031 289.49089844 -363.35351562 289.35742188 C-360.86167864 289.04155521 -358.36906367 288.7351796 -355.875 288.4375 C-355.73626465 287.71651123 -355.5975293 286.99552246 -355.45458984 286.25268555 C-351.68295128 266.87503657 -347.38323108 247.63018725 -342.847229 228.41763306 C-342.25060094 225.88931905 -341.65608528 223.36050542 -341.06390381 220.83114624 C-323.79875153 147.21719123 -323.79875153 147.21719123 -314 134.1875 C-313.52820313 133.54296875 -313.05640625 132.8984375 -312.5703125 132.234375 C-308.73247276 128.1666186 -303.38270917 126.18052947 -298.375 123.875 C-297.72402344 123.57142578 -297.07304687 123.26785156 -296.40234375 122.95507812 C-293.6296628 121.66956241 -290.87188345 120.4363366 -288.0078125 119.3671875 C-285.01847778 118.06414416 -284.33853459 116.29804489 -282.875 113.4375 C-282.42125 112.715625 -281.9675 111.99375 -281.5 111.25 C-280.06408181 108.76475698 -278.8508546 106.27942133 -277.625 103.6875 C-270.01187305 88.41592988 -257.63142794 79.11540985 -241.87109375 73.3359375 C-233.60406186 70.92893774 -225.39603414 71.14553563 -216.875 71.4375 C-216.65585938 70.68726563 -216.43671875 69.93703125 -216.2109375 69.1640625 C-210.4214256 50.47758914 -198.11240262 36.5214035 -180.875 27.4375 C-162.01691416 18.66379065 -140.53581336 17.33055691 -120.875 24.4375 C-119.20310223 25.09093713 -117.53433652 25.75279237 -115.875 26.4375 C-115.54628906 25.90382812 -115.21757812 25.37015625 -114.87890625 24.8203125 C-102.52406311 5.46773978 -84.00610694 -7.49617298 -61.60498047 -12.53051758 C-40.12636427 -16.60759036 -17.63045009 -13.49418809 0 0 Z " fill="#DD745E" transform="translate(470.875,65.5625)"/>
<path d="M0 0 C1.3786383 1.14145322 2.75407025 2.28679993 4.125 3.4375 C5.115 4.159375 6.105 4.88125 7.125 5.625 C17.91686815 14.83246645 24.6497437 29.27498147 29.125 42.4375 C29.67027344 42.17195313 30.21554687 41.90640625 30.77734375 41.6328125 C47.72169145 33.69648554 64.85655927 35.26602794 82.125 41.4375 C92.28580868 45.63933817 104.31112685 53.06094528 110.1015625 62.7421875 C111.87527124 65.71832906 111.87527124 65.71832906 115.05078125 66.06640625 C116.16839844 66.04449219 117.28601563 66.02257812 118.4375 66 C132.82831247 66.44971289 145.57627026 72.04785979 155.5625 82.51953125 C158.30029277 85.88017187 160.2296954 89.55630639 162.125 93.4375 C162.99125 95.0771875 162.99125 95.0771875 163.875 96.75 C165.33573963 101.05918191 165.57597973 104.94564889 165.71875 109.47265625 C166.22365835 113.15751625 167.01440546 115.35375708 169.125 118.4375 C171.58866506 120.05088326 174.19178177 121.08197558 176.9375 122.125 C178.34039588 122.69003733 179.74274881 123.25642474 181.14453125 123.82421875 C181.8190332 124.09331055 182.49353516 124.36240234 183.18847656 124.63964844 C192.31565119 128.40006279 198.54831963 134.34472606 202.37097168 143.51055908 C203.57822366 146.59572602 204.59151809 149.73774512 205.578125 152.8984375 C205.90948708 153.94627159 205.90948708 153.94627159 206.24754333 155.01527405 C206.96149022 157.27954403 207.66908207 159.54571479 208.375 161.8125 C208.6193277 162.59537384 208.8636554 163.37824768 209.11538696 164.18484497 C216.33893293 187.36315432 222.4426994 210.56891679 227.57209778 234.29190063 C228.80449895 239.98641857 230.06487271 245.67424505 231.33984375 251.359375 C231.52169724 252.17137863 231.70355072 252.98338226 231.89091492 253.81999207 C232.59728146 256.97368754 233.30372799 260.12736207 234.01290894 263.28042603 C235.89064266 271.63718587 237.69248145 279.99015241 239.125 288.4375 C239.73907715 288.50219482 240.3531543 288.56688965 240.98583984 288.63354492 C267.32554144 291.51483622 267.32554144 291.51483622 275.63476562 301.5234375 C288.22518538 317.69461884 300.04041359 342.86077921 301.85546875 363.32763672 C302.3308516 367.04888543 303.36672998 370.64030112 304.29711914 374.26953125 C311.95090484 404.13532079 311.95090484 404.13532079 306.125 414.4375 C303.8125 417.1875 303.8125 417.1875 301.125 419.4375 C300.25875 420.2625 299.3925 421.0875 298.5 421.9375 C290.3809611 428.51017622 279.09691129 431.38219035 269.33032227 434.72192383 C267.08664923 435.49171454 264.84904715 436.2775494 262.61132812 437.06445312 C248.78325342 441.85807963 234.82145822 444.91796421 220.38256836 447.20776367 C215.9763721 447.90934172 211.6159914 448.73749498 207.25390625 449.67578125 C143.54995248 463.31885138 78.05617197 468.30795318 13.20239258 473.20184326 C10.51113619 473.40793094 7.82088025 473.62271124 5.13085938 473.84423828 C-43.20435527 477.80817165 -92.60518644 476.45367907 -140.875 472.4375 C-142.77406097 472.28124146 -142.77406097 472.28124146 -144.71148682 472.12182617 C-205.707618 467.09672507 -266.99199307 461.75075147 -326.94384766 449.03369141 C-331.09064999 448.19023886 -335.25641626 447.52207803 -339.4375 446.875 C-355.78792102 444.22768192 -371.33293014 439.80927008 -387 434.5 C-387.75457489 434.24719269 -388.50914978 433.99438538 -389.28659058 433.73391724 C-416.99897919 424.40166732 -416.99897919 424.40166732 -423.75 413.375 C-429.26896742 398.96436284 -423.20182169 382.54354431 -419.57641602 368.33227539 C-418.92136338 365.62884373 -418.36278788 362.92765564 -417.84375 360.1953125 C-414.31405514 341.9982186 -406.40971931 323.24437725 -396.75 307.5 C-396.36682617 306.86819824 -395.98365234 306.23639648 -395.58886719 305.58544922 C-391.18976161 298.75330841 -385.67711149 293.9790358 -377.875 291.4375 C-374.07992577 290.70344995 -370.27471449 290.20687069 -366.4375 289.75 C-365.41978516 289.62044922 -364.40207031 289.49089844 -363.35351562 289.35742188 C-360.86167864 289.04155521 -358.36906367 288.7351796 -355.875 288.4375 C-355.73626465 287.71651123 -355.5975293 286.99552246 -355.45458984 286.25268555 C-351.68295128 266.87503657 -347.38323108 247.63018725 -342.847229 228.41763306 C-342.25060094 225.88931905 -341.65608528 223.36050542 -341.06390381 220.83114624 C-323.79875153 147.21719123 -323.79875153 147.21719123 -314 134.1875 C-313.52820313 133.54296875 -313.05640625 132.8984375 -312.5703125 132.234375 C-308.73247276 128.1666186 -303.38270917 126.18052947 -298.375 123.875 C-297.72402344 123.57142578 -297.07304687 123.26785156 -296.40234375 122.95507812 C-293.6296628 121.66956241 -290.87188345 120.4363366 -288.0078125 119.3671875 C-285.01847778 118.06414416 -284.33853459 116.29804489 -282.875 113.4375 C-282.42125 112.715625 -281.9675 111.99375 -281.5 111.25 C-280.06408181 108.76475698 -278.8508546 106.27942133 -277.625 103.6875 C-270.01187305 88.41592988 -257.63142794 79.11540985 -241.87109375 73.3359375 C-233.60406186 70.92893774 -225.39603414 71.14553563 -216.875 71.4375 C-216.65585938 70.68726563 -216.43671875 69.93703125 -216.2109375 69.1640625 C-210.4214256 50.47758914 -198.11240262 36.5214035 -180.875 27.4375 C-162.01691416 18.66379065 -140.53581336 17.33055691 -120.875 24.4375 C-119.20310223 25.09093713 -117.53433652 25.75279237 -115.875 26.4375 C-115.54628906 25.90382812 -115.21757812 25.37015625 -114.87890625 24.8203125 C-102.52406311 5.46773978 -84.00610694 -7.49617298 -61.60498047 -12.53051758 C-40.12636427 -16.60759036 -17.63045009 -13.49418809 0 0 Z M-305.875 164.4375 C-305.875 165.4275 -305.875 166.4175 -305.875 167.4375 C-306.865 167.4375 -307.855 167.4375 -308.875 167.4375 C-315.77089302 190.06898781 -321.46948453 212.88266743 -326.67480469 235.95996094 C-326.91396103 237.02011414 -327.15311737 238.08026733 -327.39952087 239.17254639 C-327.87346841 241.27567908 -328.34626634 243.37907119 -328.81788635 245.48272705 C-330.07895975 251.07052996 -331.4183808 256.62691617 -332.86251831 262.17008972 C-335.81860153 273.53570538 -337.77935884 284.96143838 -339.5625 296.5625 C-340.00533676 299.39277288 -340.45075156 302.22262134 -340.89790344 305.05221558 C-341.17143422 306.78817022 -341.44217925 308.52456742 -341.70939636 310.26150513 C-342.08222863 312.65638062 -342.47450537 315.0471034 -342.875 317.4375 C-343.01886139 318.33515076 -343.16272278 319.23280151 -343.3109436 320.15765381 C-343.46719208 321.04777161 -343.62344055 321.9378894 -343.78442383 322.85498047 C-343.92125076 323.66095673 -344.0580777 324.46693298 -344.1990509 325.29733276 C-344.97797644 327.76354053 -345.8688676 328.83473084 -347.875 330.4375 C-349.8125 330.87109375 -349.8125 330.87109375 -351.875 330.875 C-352.555625 330.89433594 -353.23625 330.91367187 -353.9375 330.93359375 C-356.73194331 330.21808105 -357.39526498 328.86194675 -358.875 326.4375 C-359.1237793 324.14746094 -359.1237793 324.14746094 -358.94921875 321.671875 C-358.86704102 320.33769531 -358.86704102 320.33769531 -358.78320312 318.9765625 C-358.67395508 317.59597656 -358.67395508 317.59597656 -358.5625 316.1875 C-358.50126953 315.25164062 -358.44003906 314.31578125 -358.37695312 313.3515625 C-358.22399942 311.0454912 -358.0562095 308.74149467 -357.875 306.4375 C-360.4212932 306.64011478 -362.95844854 306.87351549 -365.5 307.125 C-366.21285156 307.17849609 -366.92570312 307.23199219 -367.66015625 307.28710938 C-373.09366876 307.86036987 -375.98972148 309.38162143 -379.875 313.4375 C-381.58646951 315.79465713 -383.00025928 318.24677411 -384.375 320.8125 C-384.76026855 321.51874512 -385.14553711 322.22499023 -385.54248047 322.95263672 C-389.2480968 329.89156977 -392.2700674 337.01605884 -394.875 344.4375 C-395.15585449 345.22833984 -395.43670898 346.01917969 -395.72607422 346.83398438 C-406.20166893 375.52545113 -406.20166893 375.52545113 -406.875 405.4375 C-404.71040592 409.72172627 -401.99403377 410.97102817 -397.65625 412.53515625 C-395.56785799 413.20699302 -393.4737949 413.86140326 -391.375 414.5 C-389.30208333 415.15755208 -387.22916667 415.81510417 -385.15625 416.47265625 C-384.12395264 416.79250488 -383.09165527 417.11235352 -382.02807617 417.44189453 C-377.86911683 418.75511452 -373.74811647 420.17282967 -369.62817383 421.60327148 C-365.81247602 422.75945127 -361.97872704 423.30209444 -358.04101562 423.8840332 C-354.58748881 424.48776125 -351.2841702 425.35524307 -347.90625 426.29296875 C-320.03888867 433.87911128 -291.41868426 438.29012138 -262.875 442.4375 C-262.08486511 442.55266968 -261.29473022 442.66783936 -260.48065186 442.78649902 C-225.52985802 447.84515423 -190.26560644 450.78761363 -155.09711933 453.88631344 C-150.84210714 454.2614746 -146.58821022 454.64673321 -142.33496094 455.04150391 C-115.05583892 457.54352609 -87.77660432 457.71103469 -60.40340805 457.74623489 C-58.48822798 457.74871848 -56.57304871 457.75194461 -54.65787125 457.75596237 C-30.31897875 457.80565527 -6.14572512 457.32837397 18.125 455.4375 C19.33162292 455.34373077 20.53824585 455.24996155 21.78143311 455.15335083 C29.9009038 454.50990881 38.01337815 453.79759096 46.125 453.0625 C48.60806778 452.83962371 51.09114079 452.61680579 53.57421875 452.39404297 C58.49512762 451.95121396 63.41565307 451.50439855 68.3359375 451.0546875 C73.42191008 450.59038421 78.50887263 450.1393442 83.59669495 449.69584656 C120.84527062 446.43082926 158.20308607 441.56915605 194.875 434.1875 C196.41812866 433.87824585 196.41812866 433.87824585 197.99243164 433.56274414 C209.10067071 431.29773257 220.12708408 428.69147958 231.15625 426.07421875 C235.35704607 425.07920354 239.56002346 424.11147039 243.78125 423.20703125 C244.60439697 423.03051025 245.42754395 422.85398926 246.27563477 422.67211914 C247.72795382 422.36435216 249.18146209 422.06210462 250.63647461 421.76733398 C255.0862216 420.8229002 258.96294445 419.24410653 263.125 417.4375 C265.91533446 416.54337463 268.7373242 415.7757616 271.5625 415 C282.19279153 412.34639276 282.19279153 412.34639276 290.125 405.4375 C293.00268015 379.05253658 281.50239366 346.59535134 269.4375 323.75 C269.09372314 323.09854004 268.74994629 322.44708008 268.39575195 321.77587891 C265.33361765 316.2888007 261.82814134 310.60356097 255.9375 308.0625 C251.01425474 307.25541061 246.10061258 306.77940466 241.125 306.4375 C241.17624023 307.02241211 241.22748047 307.60732422 241.28027344 308.20996094 C241.50062141 310.86784241 241.68810997 313.52706538 241.875 316.1875 C241.95621094 317.10789062 242.03742187 318.02828125 242.12109375 318.9765625 C242.56422409 325.77122778 242.56422409 325.77122778 240.39453125 329.0625 C237.96767363 330.53281649 236.85581799 330.88125616 234.0625 330.6875 C231.75314908 330.54087454 229.43900101 330.4375 227.125 330.4375 C225.05580433 332.3329593 225.05580433 332.3329593 222.875 334.8125 C213.14878965 344.76294574 201.40426801 351.11381799 188.91455078 357.0390625 C184.0803073 359.32929784 184.0803073 359.32929784 179.7890625 362.4765625 C171.99043748 368.21689939 160.8710314 369.56599727 151.5625 371.4375 C150.29656006 371.6938623 149.03062012 371.95022461 147.72631836 372.21435547 C123.07349383 377.1040958 98.1933099 379.82066642 73.19946289 382.23504639 C71.35966556 382.41459822 69.52059231 382.60153544 67.68164062 382.78955078 C45.77202156 385.00935965 23.69130039 385.11337207 1.68701172 385.35644531 C-1.8829163 385.39726738 -5.44412139 385.48976332 -9.01123047 385.63574219 C-10.18775429 385.67083389 -10.18775429 385.67083389 -11.38804626 385.70663452 C-13.46160847 385.7686664 -15.53447422 385.85289312 -17.60717773 385.93896484 C-20.875 385.4375 -20.875 385.4375 -23.33227539 383.14306641 C-24.875 380.4375 -24.875 380.4375 -24.8125 376.8125 C-23.57655135 372.36308485 -23.57655135 372.36308485 -20.875 370.4375 C-18.32048141 369.89251613 -15.96374048 369.5287701 -13.37890625 369.28125 C-12.62863663 369.20177124 -11.878367 369.12229248 -11.10536194 369.04040527 C-3.18038635 368.26285779 4.74801106 368.08545919 12.70556641 367.97390747 C28.24359113 367.74598027 43.66850977 367.13066958 59.125 365.4375 C59.87088379 365.35886719 60.61676758 365.28023437 61.38525391 365.19921875 C80.52441421 363.13248719 97.8034604 356.36862197 114.97241211 347.96069336 C116.95000868 346.99388475 118.93443879 346.04228632 120.91992188 345.09179688 C128.65670745 341.35379598 135.98607896 337.23588796 143.125 332.4375 C144.38919558 331.60918063 145.65350428 330.78103384 146.91796875 329.953125 C148.05058239 329.19957223 149.18208959 328.44435385 150.3125 327.6875 C151.24388794 327.06415771 151.24388794 327.06415771 152.1940918 326.42822266 C154.17293966 325.10075069 156.14931343 323.76967174 158.125 322.4375 C158.80852539 321.97762695 159.49205078 321.51775391 160.19628906 321.04394531 C167.41329344 316.17760312 174.45766992 311.2698598 181.17578125 305.7265625 C185.35531423 302.48258061 189.71129822 299.5079338 194.0625 296.5 C201.35904084 291.44735896 208.47469965 286.33297174 215.125 280.4375 C215.71152344 280.00824219 216.29804687 279.57898438 216.90234375 279.13671875 C218.95797868 276.27984592 218.41015577 273.88652688 218.125 270.4375 C217.50899545 266.90342697 216.7091558 263.42581532 215.875 259.9375 C215.64828613 258.96498291 215.42157227 257.99246582 215.18798828 256.99047852 C213.59228048 250.21291961 211.84949715 243.48645188 210.015625 236.76953125 C208.91616364 232.65619553 207.96736977 228.51845954 207.0234375 224.3671875 C200.49753684 195.65321704 200.49753684 195.65321704 192.125 167.4375 C191.135 167.4375 190.145 167.4375 189.125 167.4375 C189.125 166.4475 189.125 165.4575 189.125 164.4375 C184.1779684 163.8427233 180.98555244 165.96502606 176.875 168.375 C132.51191006 193.08480655 74.70775807 200.19409999 24.9375 206.6875 C23.78330566 206.83848145 22.62911133 206.98946289 21.43994141 207.14501953 C18.36554401 207.52732578 15.28976591 207.87971174 12.20925903 208.20892334 C10.79298355 208.36424353 9.37766652 208.52850982 7.96334839 208.70074463 C-11.88364843 211.08957131 -31.87240469 210.81229802 -51.8293457 210.80810547 C-55.87477703 210.80794396 -59.91975045 210.82169062 -63.96508789 210.84912109 C-90.55321783 211.02646977 -116.50779769 209.9051672 -142.875 206.4375 C-143.95169952 206.30138306 -145.02839905 206.16526611 -146.13772583 206.02502441 C-151.81398548 205.30691848 -157.47177438 204.50531534 -163.125 203.625 C-163.93432983 203.50121979 -164.74365967 203.37743958 -165.57751465 203.24990845 C-279.57052331 185.74197669 -279.57052331 185.74197669 -300.875 164.4375 C-302.54117115 164.39686168 -304.20888095 164.394779 -305.875 164.4375 Z " fill="#071A22" transform="translate(470.875,65.5625)"/>
<path d="M0 0 C11.15845338 8.47349564 18.99984517 19.19420279 22 33 C23.15540139 41.71802868 21.42617137 46.82295752 16.7578125 54.15625 C10.98280672 63.49892602 9.9824823 76.35976114 12.47167969 87.02001953 C13.64885325 90.8364675 15.22954319 94.42689625 17 98 C17.57621094 99.16402344 17.57621094 99.16402344 18.1640625 100.3515625 C18.43992187 100.89554687 18.71578125 101.43953125 19 102 C25.04963508 102.53466703 25.04963508 102.53466703 30.5625 100.4375 C32.60937939 96.96670451 32.52451035 94.9993914 32 91 C31.36974229 89.58735342 30.69976537 88.19203745 30 86.8125 C26.53830089 79.53056866 27.11243649 71.9609215 29.4375 64.375 C33.47627297 54.55440467 41.41609245 47.3376707 51 43 C64.16234398 38.52511166 78.55786715 40.38637418 90.91796875 46.42578125 C95.55145054 49.07446286 99.57470717 51.8896486 103 56 C103 56.66 103 57.32 103 58 C102.12859375 58.40089844 101.2571875 58.80179687 100.359375 59.21484375 C87.70465924 65.19146649 87.70465924 65.19146649 77 74 C76.14433263 77.55254758 75.62256031 79.89671476 76.8125 83.375 C77.91985727 85.15088244 77.91985727 85.15088244 80 86 C85.90567574 86.6071931 89.25406054 85.09951128 93.9375 81.75 C95.1701862 80.91676695 96.40454872 80.08600815 97.640625 79.2578125 C98.22392578 78.86239258 98.80722656 78.46697266 99.40820312 78.05957031 C109.47867616 71.35621863 120.98029207 68.7106392 133 70 C142.29200804 72.07979963 149.58364302 75.3717652 155.25 83.125 C160.47518074 91.72144505 161.51277264 100.79445732 161.375 110.6875 C161.36702393 111.72898193 161.35904785 112.77046387 161.35083008 113.84350586 C161.17148054 123.651731 160.39969195 133.46552059 156.45703125 142.55859375 C155.09207664 145.7825214 154.42166921 148.54231248 154 152 C127.5492292 160.35787372 100.30835595 166.20679782 73 171 C72.11151367 171.15919922 71.22302734 171.31839844 70.30761719 171.48242188 C52.94739433 174.57751537 35.50425164 176.90252466 18 179 C17.0615625 179.11617676 16.123125 179.23235352 15.15625 179.35205078 C-10.27222635 182.44722219 -36.41604036 182.42695202 -62 182 C-63.72766602 181.97317139 -63.72766602 181.97317139 -65.49023438 181.94580078 C-116.28948735 181.03819806 -166.43957712 173.09570259 -215.671875 160.82275391 C-221.68512436 159.33620385 -227.71634027 157.92526366 -233.74658203 156.50952148 C-236.87605028 155.76957866 -239.94743575 155.01752142 -243 154 C-243.58984375 152.14453125 -243.58984375 152.14453125 -243.9375 149.8125 C-244.54727046 146.59230723 -244.98805069 145.01752566 -246.875 142.25 C-250.13285366 137.26740028 -251.43009044 131.70474179 -253 126 C-253.19722656 125.35546875 -253.39445313 124.7109375 -253.59765625 124.046875 C-255.48352318 114.45275588 -254.71672688 103.42088393 -249.78125 94.89453125 C-243.9905492 86.57844149 -235.76443175 79.03386885 -225.79296875 76.421875 C-209.51204498 73.96265854 -193.80323943 76.84520444 -180 86 C-170.57257024 92.97992396 -162.40544118 100.77820417 -155.4453125 110.21484375 C-153.44971959 112.67967067 -152.34213962 112.95438138 -149.1875 113.375 C-145.84366725 113.23748209 -145.84366725 113.23748209 -143.0625 110.9375 C-140.75163226 108.15848982 -140.75163226 108.15848982 -140.6875 104.8125 C-142.37641424 97.31896788 -149.7295741 91.16534072 -155 86 C-155.804375 85.20980469 -156.60875 84.41960937 -157.4375 83.60546875 C-166.53048639 75.02534897 -176.37448787 68.72902188 -188 64 C-187.62929538 52.50815682 -181.91793218 45.11371032 -173.77734375 37.328125 C-160.20379031 25.95001269 -145.50209195 22.94677544 -128.203125 24.203125 C-114.95636999 26.00593781 -105.40899403 32.40239658 -97.05737305 42.46386719 C-93.97729383 45.96545303 -93.97729383 45.96545303 -89.65087891 47.3203125 C-87.17680435 47.15422078 -85.27880994 46.98985897 -83 46 C-80.80178267 42.59754948 -80.30534582 40.0135575 -81 36 C-83.63333432 32.31470707 -86.805836 29.194164 -90 26 C-90.17824523 18.69194542 -84.51345895 13.71675342 -79.875 8.703125 C-58.47432152 -12.26375594 -25.07478445 -16.37725774 0 0 Z " fill="#B3724B" transform="translate(460,79)"/>
<path d="M0 0 C6.52144505 4.55607805 11.05741859 9.44279247 13.8515625 16.9921875 C13.8515625 17.6521875 13.8515625 18.3121875 13.8515625 18.9921875 C14.5115625 18.9921875 15.1715625 18.9921875 15.8515625 18.9921875 C16.3465625 20.4771875 16.3465625 20.4771875 16.8515625 21.9921875 C32.38026026 26.8739446 49.50172324 26.37591563 65.6015625 26.3046875 C66.62338623 26.30020599 67.64520996 26.29572449 68.69799805 26.29110718 C75.75056104 26.24851824 82.80046562 26.13917542 89.8515625 25.9921875 C90.6979126 25.97687988 91.5442627 25.96157227 92.41625977 25.94580078 C97.40671498 25.84787944 102.37016828 25.62179453 107.3515625 25.3046875 C109.13578613 25.25405151 109.13578613 25.25405151 110.95605469 25.20239258 C114.38823783 24.9067335 116.77834007 24.55918692 119.8515625 22.9921875 C122.22270934 19.8704962 123.80726097 16.83385775 125.36914062 13.24291992 C128.88703176 5.52870376 135.84468213 -0.45388399 143.5390625 -3.9453125 C152.56184967 -6.85064997 162.27451563 -5.55693534 170.8515625 -2.0078125 C170.8515625 -1.3478125 170.8515625 -0.6878125 170.8515625 -0.0078125 C171.5528125 0.1778125 172.2540625 0.3634375 172.9765625 0.5546875 C176.87502172 2.50391711 179.48463084 5.34011769 181.8515625 8.9921875 C181.8515625 9.9821875 181.8515625 10.9721875 181.8515625 11.9921875 C182.5115625 11.9921875 183.1715625 11.9921875 183.8515625 11.9921875 C184.98284183 14.25474615 184.98046835 15.51006659 184.984375 18.01953125 C184.98566406 18.81166016 184.98695313 19.60378906 184.98828125 20.41992188 C184.98441406 21.24814453 184.98054687 22.07636719 184.9765625 22.9296875 C184.98042969 23.75404297 184.98429688 24.57839844 184.98828125 25.42773438 C184.98634766 26.61786133 184.98634766 26.61786133 184.984375 27.83203125 C184.98324707 28.55769287 184.98211914 29.28335449 184.98095703 30.03100586 C184.8515625 31.9921875 184.8515625 31.9921875 183.8515625 34.9921875 C183.1915625 34.9921875 182.5315625 34.9921875 181.8515625 34.9921875 C181.8515625 36.3121875 181.8515625 37.6321875 181.8515625 38.9921875 C183.56343218 40.48118997 183.56343218 40.48118997 185.8515625 41.6796875 C191.06351497 44.92580053 195.42596068 48.8584518 198.8515625 53.9921875 C198.8515625 55.3121875 198.8515625 56.6321875 198.8515625 57.9921875 C199.5115625 57.9921875 200.1715625 57.9921875 200.8515625 57.9921875 C203.39157156 65.61221468 204.06463717 73.41444945 200.8515625 80.9921875 C197.15231731 87.04095329 193.31519091 91.0946989 186.8515625 93.9921875 C186.25472656 94.28867187 185.65789062 94.58515625 185.04296875 94.890625 C175.59465587 98.90569753 162.75022617 98.6049857 153.2890625 94.9296875 C147.08723056 91.91071507 141.71918274 87.85980774 136.8515625 82.9921875 C128.2867763 82.14433115 119.39781835 83.28421364 110.8515625 83.9921875 C110.8515625 84.6521875 110.8515625 85.3121875 110.8515625 85.9921875 C97.12535443 87.8465877 83.57080807 88.42529481 69.7265625 88.4296875 C68.68229095 88.43274902 67.63801941 88.43581055 66.56210327 88.43896484 C50.46754559 88.45124385 35.21517429 87.17469057 19.43359375 84.0859375 C7.97977991 81.69201447 7.97977991 81.69201447 -2.69921875 84.72241211 C-4.13029962 86.0728094 -5.52464939 87.46283631 -6.88671875 88.8828125 C-15.03173785 96.47920337 -25.53755985 97.36869706 -36.0859375 97.2109375 C-45.40072282 96.86594545 -52.90654655 93.61135323 -59.3359375 86.8046875 C-63.90074556 81.18554057 -65.79352657 74.58202608 -65.4921875 67.375 C-64.09738016 57.70644914 -59.45953302 49.0854522 -51.6953125 43.1015625 C-49.54810145 41.656584 -47.38848362 40.28745226 -45.1484375 38.9921875 C-45.365 38.2909375 -45.5815625 37.5896875 -45.8046875 36.8671875 C-48.6683001 27.10969271 -49.44056323 18.73320685 -44.8359375 9.3046875 C-42.83006317 6.55589674 -40.64203259 4.30766866 -38.1484375 1.9921875 C-37.4059375 1.2909375 -36.6634375 0.5896875 -35.8984375 -0.1328125 C-24.6340925 -7.81304772 -11.35185269 -6.8773998 0 0 Z " fill="#05181F" transform="translate(347.1484375,313.0078125)"/>
<path d="M0 0 C3.02124791 14.99374628 5.4371471 30.0305067 7.58276367 45.17358398 C7.8805437 47.1907867 8.24877667 49.19810187 8.66333008 51.19458008 C9 54 9 54 7.21875 56.640625 C-3.99495307 67.40320208 -16.18225887 74.94588338 -30.21069336 81.60180664 C-35.04484306 83.89185912 -35.04484306 83.89185912 -39.3359375 87.0390625 C-47.13456252 92.77939939 -58.2539686 94.12849727 -67.5625 96 C-68.82843994 96.2563623 -70.09437988 96.51272461 -71.39868164 96.77685547 C-96.05150617 101.6665958 -120.9316901 104.38316642 -145.92553711 106.79754639 C-147.76533444 106.97709822 -149.60440769 107.16403544 -151.44335938 107.35205078 C-173.35306375 109.57186829 -195.43718749 109.68499262 -217.44189453 109.91503906 C-221.0008965 109.95511497 -224.54619446 110.05961555 -228.10107422 110.23339844 C-228.88091171 110.26130463 -229.66074921 110.28921082 -230.46421814 110.31796265 C-232.52176786 110.39256967 -234.57827047 110.49467579 -236.63452148 110.59912109 C-240.13817757 109.97540169 -240.71575061 109.70821215 -242.95336914 107.20166016 C-245 104 -245 104 -245.0625 100.375 C-243.87738365 96.61051277 -243.08688336 95.39307853 -240 93 C-237.37774063 92.38199041 -235.09722812 92.00697823 -232.44140625 91.78125 C-231.69564835 91.70628296 -230.94989044 91.63131592 -230.18153381 91.55407715 C-222.27486616 90.81982972 -214.35518394 90.64765352 -206.41943359 90.53640747 C-190.88140887 90.30848027 -175.45649023 89.69316958 -160 88 C-159.25411621 87.92136719 -158.50823242 87.84273438 -157.73974609 87.76171875 C-138.60058579 85.69498719 -121.3215396 78.93112197 -104.15258789 70.52319336 C-102.17499132 69.55638475 -100.19056121 68.60478632 -98.20507812 67.65429688 C-90.46829255 63.91629598 -83.13892104 59.79838796 -76 55 C-74.73580442 54.17168063 -73.47149572 53.34353384 -72.20703125 52.515625 C-71.07441761 51.76207223 -69.94291041 51.00685385 -68.8125 50.25 C-68.19157471 49.83443848 -67.57064941 49.41887695 -66.9309082 48.99072266 C-64.95206034 47.66325069 -62.97568657 46.33217174 -61 45 C-60.31647461 44.54012695 -59.63294922 44.08025391 -58.92871094 43.60644531 C-51.71170656 38.74010312 -44.66733008 33.8323598 -37.94921875 28.2890625 C-33.76968577 25.04508061 -29.41370178 22.0704338 -25.0625 19.0625 C-13.11129761 10.86188231 -13.11129761 10.86188231 -2.28515625 1.26171875 C-1 0 -1 0 0 0 Z " fill="#AE6566" transform="translate(690,342)"/>
<path d="M0 0 C3.25782362 1.73310118 4.66836821 3.80720509 6.75390625 6.83203125 C7.4396875 7.81171875 8.12546875 8.79140625 8.83203125 9.80078125 C11.44563253 13.75782244 11.76482746 16.48903493 12.125 21.140625 C12.40068865 23.6157677 12.40068865 23.6157677 14.50390625 26.33203125 C18.02806761 26.98465372 21.46041914 27.26106768 25.03125 27.50390625 C29.5466693 27.83322154 34.00291061 28.20373636 38.45629883 29.03613281 C50.58271282 31.28654603 62.40053643 31.79755753 74.71875 31.72314453 C77.86893225 31.70708211 81.01782534 31.72308088 84.16796875 31.7421875 C95.98047076 31.75313813 107.29892252 30.89846345 118.95849609 29.02685547 C124.34033997 28.16803733 129.68356422 27.82803885 135.12890625 27.70703125 C136.87120722 27.65608678 138.61340851 27.60157016 140.35546875 27.54296875 C141.08588379 27.52540527 141.81629883 27.5078418 142.56884766 27.48974609 C144.72223647 27.39154161 144.72223647 27.39154161 147.50390625 26.33203125 C147.65085937 25.34203125 147.7978125 24.35203125 147.94921875 23.33203125 C149.53867592 13.62195993 151.84006048 7.38754931 159.37890625 0.83203125 C164.20923941 -1.48652867 168.09535632 -1.31024873 173.31640625 0.08203125 C175.99495759 1.61263201 177.11498888 2.55419652 178.50390625 5.33203125 C179.06545947 11.13474787 178.40381515 14.20142319 175.50390625 19.33203125 C175.15328125 20.38390625 174.80265625 21.43578125 174.44140625 22.51953125 C173.50390625 25.33203125 173.50390625 25.33203125 171.50390625 28.33203125 C171.03782658 31.90530876 171.26117499 33.84656873 172.87890625 37.08203125 C175.72013619 39.5173712 176.68782813 39.69132149 180.25390625 40.20703125 C186.17398239 41.10905469 189.54516802 43.97547864 193.50390625 48.33203125 C196.16204404 52.31923794 196.35205306 55.64177938 195.50390625 60.33203125 C192.29426714 63.80191137 189.38685804 65.1494736 184.68359375 65.60546875 C176.9606727 65.84281621 171.65054033 65.17446792 165.50390625 60.33203125 C163.6428286 58.57839726 161.87235078 56.76579221 160.109375 54.9140625 C156.39770555 51.256578 152.89295756 50.1722446 147.81640625 50.08203125 C145.00783374 50.14024001 143.21599468 50.42800177 140.50390625 51.33203125 C137.64960789 51.67968888 134.80248239 51.99057056 131.94140625 52.26953125 C130.39835964 52.42370185 128.85539488 52.57869324 127.3125 52.734375 C126.42643066 52.82098389 125.54036133 52.90759277 124.62744141 52.99682617 C122.31117118 53.24539886 119.99868529 53.52979259 117.68896484 53.83325195 C105.92206754 55.3506533 94.27699495 55.67245034 82.41943359 55.64770508 C79.27145568 55.64454885 76.12442503 55.66809602 72.9765625 55.69335938 C60.01772965 55.73230726 47.58471391 54.67489038 34.79045105 52.65917969 C30.49880562 52.04515056 26.19450295 51.78369358 21.8671875 51.54296875 C19.50390625 51.33203125 19.50390625 51.33203125 16.50390625 50.33203125 C13.00096655 49.65072555 9.99976043 49.55352188 6.50390625 50.33203125 C3.67078509 52.33012723 1.34622328 54.55216283 -1.10546875 57 C-8.30657334 64.02460693 -14.72229139 65.64689761 -24.57421875 65.55078125 C-28.19837003 65.27945442 -30.56499501 64.49178821 -33.49609375 62.33203125 C-35.63493473 59.72822484 -35.49724586 58.3631381 -35.37109375 54.95703125 C-34.00110777 49.28137506 -31.59778026 45.84478381 -26.80859375 42.58203125 C-23.10906737 40.40257293 -19.6087463 39.49098161 -15.37890625 38.88671875 C-13.10112581 38.43440554 -13.10112581 38.43440554 -11.49609375 35.33203125 C-11.12442191 32.57182129 -11.31758739 30.14350649 -11.49609375 27.33203125 C-12.15609375 26.67203125 -12.81609375 26.01203125 -13.49609375 25.33203125 C-14.18549184 23.00531271 -14.85076297 20.67135531 -15.49609375 18.33203125 C-16.00849609 17.38457031 -16.00849609 17.38457031 -16.53125 16.41796875 C-18.31110107 12.57003161 -18.19026441 8.46269035 -17.49609375 4.33203125 C-12.56555227 -0.98776351 -6.85424866 -1.83423556 0 0 Z " fill="#F8F6C4" transform="translate(335.49609375,326.66796875)"/>
<path d="M0 0 C0.61858887 0.77706299 1.23717773 1.55412598 1.87451172 2.35473633 C9.94533364 12.39922927 19.02764732 21.76022972 28.83984375 30.109375 C30.45002426 31.51864691 32.0195886 32.97458392 33.56640625 34.453125 C55.20965375 55.06574167 81.75076432 67.77319991 108.82518005 79.67950439 C112.60698355 81.3486354 116.31656222 83.12400921 120 85 C120 85.66 120 86.32 120 87 C121.216875 87.103125 122.43375 87.20625 123.6875 87.3125 C127.41390245 87.77499676 129.95879456 88.69605648 133 91 C134.42662219 93.85324437 134.31033868 95.83454549 134 99 C132.20006226 101.69990662 130.916227 103.5418865 128 105 C119.897927 104.95198462 111.94708055 102.76050737 104.125 100.875 C102.80849265 100.56102066 101.49192243 100.24730478 100.17529297 99.93383789 C97.46205437 99.28598396 94.7501311 98.63294757 92.0390625 97.97607422 C88.15406183 97.03502984 84.26448497 96.11374384 80.375 95.19140625 C47.7679508 87.36285113 47.7679508 87.36285113 38 80 C38 79.34 38 78.68 38 78 C37.23429687 77.94199219 36.46859375 77.88398438 35.6796875 77.82421875 C30.41315684 76.64456061 25.93247192 74.21978071 21.125 71.8125 C12.93626326 67.79023616 4.79744226 64.20672417 -3.8203125 61.21875 C-6.80312058 60.07546238 -9.32663187 58.73516724 -12 57 C-11.3035437 56.24384399 -11.3035437 56.24384399 -10.59301758 55.47241211 C-8.53028849 52.27099334 -8.06636936 49.13661752 -7.51171875 45.44140625 C-7.3905217 44.69782364 -7.26932465 43.95424103 -7.14445496 43.18812561 C-6.88670934 41.60361982 -6.63357995 40.0183573 -6.38470459 38.43243408 C-5.87894314 35.23457417 -5.33797157 32.04308981 -4.79763794 28.85092163 C-4.12699969 24.88126511 -3.47088061 20.90920425 -2.8125 16.9375 C-2.53718688 15.28058608 -2.26179658 13.62368498 -1.98632812 11.96679688 C-1.32333414 7.97801097 -0.66136631 3.98905609 0 0 Z " fill="#AE6566" transform="translate(135,340)"/>
<path d="M0 0 C2.64971542 1.80662415 4.55620529 3.11241058 6 6 C6.4375 8.8125 6.4375 8.8125 6 12 C-1.30327993 20.52049325 -15.11194123 21.89888991 -25.5625 24 C-26.82843994 24.2563623 -28.09437988 24.51272461 -29.39868164 24.77685547 C-54.05150617 29.6665958 -78.9316901 32.38316642 -103.92553711 34.79754639 C-105.76533444 34.97709822 -107.60440769 35.16403544 -109.44335938 35.35205078 C-131.35306375 37.57186829 -153.43718749 37.68499262 -175.44189453 37.91503906 C-179.0008965 37.95511497 -182.54619446 38.05961555 -186.10107422 38.23339844 C-187.27083046 38.27525772 -187.27083046 38.27525772 -188.46421814 38.31796265 C-190.52176786 38.39256967 -192.57827047 38.49467579 -194.63452148 38.59912109 C-198.13817757 37.97540169 -198.71575061 37.70821215 -200.95336914 35.20166016 C-203 32 -203 32 -203.0625 28.375 C-201.87361117 24.5985296 -201.31540566 23.15501368 -198 21 C-191.47475285 19.67882405 -184.66688663 19.8376394 -178.0390625 19.7890625 C-175.87637439 19.76353389 -173.71369551 19.7372147 -171.55102539 19.71020508 C-169.85842087 19.69034042 -169.85842087 19.69034042 -168.13162231 19.67007446 C-115.78150486 18.99716098 -61.06050376 16.7550564 -10.61230469 1.52319336 C-6.99288142 0.44424311 -3.7834963 -0.43994143 0 0 Z " fill="#03161E" transform="translate(648,414)"/>
<path d="M0 0 C1.07314453 -0.02900391 1.07314453 -0.02900391 2.16796875 -0.05859375 C5.3935455 0.54649967 7.81992667 1.88386086 10.71166992 3.39672852 C13.9931478 5.02240431 17.36980643 6.08764699 20.875 7.125 C21.68791504 7.36847168 22.50083008 7.61194336 23.33837891 7.86279297 C34.67206368 11.12870213 46.21973919 13.61958478 57.72680664 16.19018555 C65.09723341 17.84061476 72.45635213 19.52558791 79.7578125 21.4609375 C81.37840576 21.88898682 81.37840576 21.88898682 83.03173828 22.32568359 C86.13750248 23.56744392 87.72821844 24.83969088 89.8125 27.4375 C90.48224422 31.37224728 90.16360528 32.91084208 87.9375 36.25 C85.8125 38.4375 85.8125 38.4375 83.8125 39.4375 C75.710427 39.38948462 67.75958055 37.19800737 59.9375 35.3125 C58.62099265 34.99852066 57.30442243 34.68480478 55.98779297 34.37133789 C53.27455437 33.72348396 50.5626311 33.07044757 47.8515625 32.41357422 C43.96656183 31.47252984 40.07698497 30.55124384 36.1875 29.62890625 C-1.27196818 20.63534447 -1.27196818 20.63534447 -7.625 12.625 C-8.47730864 9.31046639 -7.96764097 6.7380964 -7.1875 3.4375 C-5.03233137 0.61618833 -3.51474239 0.00622078 0 0 Z " fill="#05171E" transform="translate(179.1875,405.5625)"/>
<path d="M0 0 C0 0.66 0 1.32 0 2 C0.639375 2.28875 1.27875 2.5775 1.9375 2.875 C4 4 4 4 5 6 C6.2985855 16.51854259 2.80732263 24.383079 -3.25 32.8125 C-9.22440243 40.05694893 -17.52780226 45.3019334 -26.93359375 46.31640625 C-36.17028697 46.66014873 -46.32401173 45.34769223 -53.75 39.375 C-56.52816788 36.44248945 -56.93804225 35.66914366 -57.3125 31.625 C-57 28 -57 28 -55.4375 25.5625 C-52.03933131 23.38418674 -49.98447115 23.52726613 -46 24 C-43.64018187 24.93578995 -41.30368736 25.93347808 -39 27 C-34.00846721 28.40786822 -28.71433932 29.14287972 -23.84765625 27.09375 C-19.32603887 24.46666504 -16.272331 21.80685405 -14 17 C-13.64697652 14.98585054 -13.33812178 12.96369255 -13.0625 10.9375 C-12.48858719 6.954743 -12.10467846 5.15552229 -9.8125 1.75 C-6.31582058 -0.42571164 -4.04621321 -0.39668757 0 0 Z " fill="#04171E" transform="translate(381,191)"/>
<path d="M0 0 C3.74093467 2.07829704 4.79149259 3.32541719 6.0625 7.4375 C6 11 6 11 4.6875 13.5625 C2.18641363 15.83092717 -0.08463519 17.27526837 -3 18.9375 C-8.13568057 21.8797382 -10.59161525 24.36167273 -12.75 29.9375 C-13.5611975 36.62987937 -12.90859306 41.4628265 -9 47 C-6.45211147 48.88131569 -6.45211147 48.88131569 -4 50 C-2.39097926 53.21804148 -2.40157017 56.51947705 -3 60 C-5.66773015 63.2336123 -7.30015992 63.89820508 -11.4375 64.5 C-17.3167669 63.67483973 -20.52548436 60.83219257 -24.125 56.3125 C-30.56728445 47.05595446 -32.1811792 39.3855933 -31 28 C-28.49563817 17.10824883 -21.41297208 9.4593499 -12.33203125 3.41015625 C-7.99304842 0.78641621 -5.19582374 -0.63622332 0 0 Z " fill="#04171E" transform="translate(437,95)"/>
<path d="M0 0 C0.76441406 0.09410156 1.52882813 0.18820313 2.31640625 0.28515625 C4.83633185 1.06016099 5.84831055 1.8459528 7.4375 3.9375 C9.90179473 10.29881895 9.49145386 20.74101993 7.5 27.25 C2.41270819 38.11077647 -7.29782672 44.03163069 -18 48.3125 C-23.23038024 49.23011057 -28.2810815 49.66570719 -33.5625 48.9375 C-36.52926137 46.77985537 -37.2468509 45.5157455 -37.95703125 41.96484375 C-38.125 39.875 -38.125 39.875 -37.5625 35.9375 C-33.97854549 32.26852467 -31.28040438 31.4601128 -26.25 31.0625 C-19.96220299 30.27117861 -15.97838963 28.49247277 -11.5625 23.9375 C-8.69774115 19.64036172 -9.20574057 15.20188477 -9.171875 10.18554688 C-9.05635552 6.49855014 -8.94754394 4.49491328 -6.80859375 1.3984375 C-4.17064096 -0.31737875 -3.07792832 -0.45309605 0 0 Z " fill="#04171E" transform="translate(534.5625,185.0625)"/>
<path d="M0 0 C2.71875 1.625 2.71875 1.625 5 4 C5.3828125 7.05859375 5.3828125 7.05859375 5.125 10.4375 C4.7741062 15.32171525 4.82413937 18.12899391 8 22 C10.35937249 23.29723908 10.35937249 23.29723908 13 24.0625 C16.91548862 25.32687653 18.93622079 26.35444265 21 30 C21 34.19297612 20.65144998 36.25274855 17.875 39.4375 C13.72809998 41.69125001 10.6216823 41.5896153 6.0546875 40.5625 C-0.3405736 38.55614358 -5.74221224 34.54609316 -9.35546875 28.87109375 C-12.74862874 22.2195202 -13.60772717 16.45265419 -13 9 C-11.6875 5.5 -11.6875 5.5 -10 3 C-9.5875 2.38125 -9.175 1.7625 -8.75 1.125 C-5.79416121 -0.77518208 -3.40860594 -0.41138348 0 0 Z " fill="#05171E" transform="translate(265,182)"/>
<path d="M0 0 C0.64687807 2.72892283 1.29253718 5.45812447 1.9375 8.1875 C2.11990234 8.95642578 2.30230469 9.72535156 2.49023438 10.51757812 C3.39120113 14.33440092 4.26637997 18.14656426 5 22 C0.05394907 20.53535546 -4.2016315 18.41781701 -8.6875 15.9375 C-13.69709474 13.15217401 -13.69709474 13.15217401 -19 11 C-17.94117053 7.69937296 -16.87523882 6.92393742 -13.84765625 5.078125 C-12.59204087 4.45627123 -11.33001252 3.84723037 -10.0625 3.25 C-9.11213867 2.77626953 -9.11213867 2.77626953 -8.14257812 2.29296875 C-5.24861408 0.88706823 -3.25598209 0 0 0 Z " fill="#A96364" transform="translate(190,202)"/>
<path d="M0 0 C6.12892523 0.32257501 11.19327716 3.36101209 16 7 C16.33 7.99 16.66 8.98 17 10 C14.41909233 11.31746333 11.83549542 12.62909617 9.25 13.9375 C8.52039063 14.31068359 7.79078125 14.68386719 7.0390625 15.06835938 C6.33007812 15.42607422 5.62109375 15.78378906 4.890625 16.15234375 C4.24125977 16.48226318 3.59189453 16.81218262 2.92285156 17.15209961 C0.96706921 18.01452116 -0.91540694 18.54374179 -3 19 C-2.86722656 18.29875 -2.73445312 17.5975 -2.59765625 16.875 C-1.55238798 11.2595442 -0.6425281 5.67566491 0 0 Z " fill="#A96364" transform="translate(637,203)"/>
<path d="M0 0 C0.66 0.33 1.32 0.66 2 1 C-2.95 5.95 -7.9 10.9 -13 16 C-13.66 15.67 -14.32 15.34 -15 15 C-13.25420935 13.0585604 -11.50362507 11.12184216 -9.75 9.1875 C-9.25886719 8.64029297 -8.76773437 8.09308594 -8.26171875 7.52929688 C-5.68270045 4.69237675 -3.19370806 2.16715904 0 0 Z " fill="#4C5B60" transform="translate(279,100)"/>
<path d="M0 0 C0.66 0.33 1.32 0.66 2 1 C-2.62 5.62 -7.24 10.24 -12 15 C-12.66 14.67 -13.32 14.34 -14 14 C-9.67106815 8.81580806 -5.23435005 4.27293882 0 0 Z " fill="#556368" transform="translate(376,68)"/>
<path d="M0 0 C-1.39750048 3.15835107 -3.05198234 5.32272825 -5.5 7.75 C-6.41265625 8.67039063 -6.41265625 8.67039063 -7.34375 9.609375 C-9 11 -9 11 -11 11 C-9.60249952 7.84164893 -7.94801766 5.67727175 -5.5 3.25 C-4.8915625 2.63640625 -4.283125 2.0228125 -3.65625 1.390625 C-2 0 -2 0 0 0 Z " fill="#59676C" transform="translate(211,149)"/>
<path d="M0 0 C0.66 0.33 1.32 0.66 2 1 C-1.63 4.63 -5.26 8.26 -9 12 C-9 8.00102358 -7.64683965 6.93298448 -5 4 C-3.36643049 2.62631655 -1.7074998 1.28062485 0 0 Z " fill="#2A2729" transform="translate(312,312)"/>
<path d="M0 0 C0.66 0.33 1.32 0.66 2 1 C0.88121617 2.17262904 -0.24523051 3.33795138 -1.375 4.5 C-2.00148438 5.1496875 -2.62796875 5.799375 -3.2734375 6.46875 C-5 8 -5 8 -7 8 C-5.50902342 4.2047869 -3.24299151 2.38957269 0 0 Z " fill="#616E73" transform="translate(86,360)"/>
<path d="M0 0 C0.33 0 0.66 0 1 0 C1.13277344 0.60328125 1.26554688 1.2065625 1.40234375 1.828125 C1.66724609 3.02695313 1.66724609 3.02695313 1.9375 4.25 C2.11152344 5.03890625 2.28554688 5.8278125 2.46484375 6.640625 C2.947556 8.76878703 3.46163178 10.88532842 4 13 C2.015625 11.82421875 2.015625 11.82421875 0 10 C-0.390625 7.51953125 -0.390625 7.51953125 -0.25 4.8125 C-0.21390625 3.91144531 -0.1778125 3.01039063 -0.140625 2.08203125 C-0.07101562 1.05142578 -0.07101562 1.05142578 0 0 Z " fill="#CBCFD1" transform="translate(635,171)"/>
</svg>
