<?xml version="1.0" encoding="UTF-8"?>
<!-- Generator: visioncortex VTracer 0.6.4 -->
<svg version="1.1" xmlns="http://www.w3.org/2000/svg" width="500" height="500">
<path d="M0 0 C0.9590625 0.86625 0.9590625 0.86625 1.9375 1.75 C1.9375 2.41 1.9375 3.07 1.9375 3.75 C2.5975 3.75 3.2575 3.75 3.9375 3.75 C3.9375 4.41 3.9375 5.07 3.9375 5.75 C4.5975 5.75 5.2575 5.75 5.9375 5.75 C7.69921875 8.015625 7.69921875 8.015625 9.625 11 C10.58986328 12.46179688 10.58986328 12.46179688 11.57421875 13.953125 C12.9375 16.75 12.9375 16.75 12.7734375 18.84375 C11.86004986 20.92661527 10.89511305 22.96708654 9.875 25 C6.6047205 32.30441991 7.59182789 37.69149124 10.28125 45.0625 C10.4978125 45.619375 10.714375 46.17625 10.9375 46.75 C11.5975 46.75 12.2575 46.75 12.9375 46.75 C14.29136936 48.40002828 15.62428142 50.0674387 16.9375 51.75 C17.5975 52.08 18.2575 52.41 18.9375 52.75 C18.9375 53.41 18.9375 54.07 18.9375 54.75 C19.5975 54.75 20.2575 54.75 20.9375 54.75 C20.9375 56.07 20.9375 57.39 20.9375 58.75 C20.08027344 58.96914063 19.22304688 59.18828125 18.33984375 59.4140625 C8.3740075 62.0352523 8.3740075 62.0352523 0.9375 68.75 C-2.71915841 78.85106631 -0.55051493 89.57486727 1.6875 99.8125 C1.83203613 100.5142334 1.97657227 101.2159668 2.12548828 101.93896484 C3.56995772 108.00981774 6.32731579 111.90377214 11.5 115.5625 C17.30044182 117.56628899 23.56692092 117.95616629 29.68359375 117.58203125 C30.42738281 117.63746094 31.17117188 117.69289063 31.9375 117.75 C33.9375 120.75 33.9375 120.75 33.890625 123.234375 C32.58324001 126.68501408 30.93806957 127.34864113 27.6875 129 C26.73359375 129.50015625 25.7796875 130.0003125 24.796875 130.515625 C20.21191034 132.49492669 16.09044069 132.90496107 11.125 132.9375 C10.14917969 132.95167969 9.17335937 132.96585938 8.16796875 132.98046875 C1.12868137 132.4782705 -4.85611337 130.16560964 -11.1875 127.25 C-22.31896613 122.18253256 -33.31366307 119.31080814 -45.453125 122.6953125 C-48.40438355 123.92371593 -51.22482929 125.27935324 -54.0625 126.75 C-56.01561641 127.6777303 -57.97387411 128.59472624 -59.9375 129.5 C-61.20207031 130.11101562 -61.20207031 130.11101562 -62.4921875 130.734375 C-72.78236476 134.80040249 -85.91277999 133.68059221 -96.0625 129.75 C-101.66858306 126.91625962 -108.04268071 123.64611208 -112.0625 118.75 C-112.0625 118.09 -112.0625 117.43 -112.0625 116.75 C-112.7225 116.75 -113.3825 116.75 -114.0625 116.75 C-123.33729224 105.77924576 -126.00420739 92.77471357 -125.0625 78.75 C-122.49623477 62.40892876 -114.52418992 49.61062744 -101.0625 39.75 C-98.29296875 38.53125 -98.29296875 38.53125 -96.0625 37.75 C-96.0625 37.09 -96.0625 36.43 -96.0625 35.75 C-92.60096154 32.75 -92.60096154 32.75 -90.0625 32.75 C-90.0625 32.09 -90.0625 31.43 -90.0625 30.75 C-89.4025 30.75 -88.7425 30.75 -88.0625 30.75 C-88.0625 30.09 -88.0625 29.43 -88.0625 28.75 C-87.4025 28.75 -86.7425 28.75 -86.0625 28.75 C-86.0625 28.09 -86.0625 27.43 -86.0625 26.75 C-85.4025 26.75 -84.7425 26.75 -84.0625 26.75 C-83.78470703 26.17475586 -83.50691406 25.59951172 -83.22070312 25.00683594 C-81.25713119 21.18068522 -78.88360938 17.61661229 -76.5625 14 C-76.06363281 13.20722656 -75.56476563 12.41445312 -75.05078125 11.59765625 C-74.56996094 10.84871094 -74.08914062 10.09976563 -73.59375 9.328125 C-73.15611328 8.64137695 -72.71847656 7.95462891 -72.26757812 7.24707031 C-71.67106445 6.50602051 -71.67106445 6.50602051 -71.0625 5.75 C-70.4025 5.75 -69.7425 5.75 -69.0625 5.75 C-69.0625 5.09 -69.0625 4.43 -69.0625 3.75 C-68.4025 3.75 -67.7425 3.75 -67.0625 3.75 C-67.0625 3.09 -67.0625 2.43 -67.0625 1.75 C-64.99489701 0.01743924 -62.94351422 -1.56560154 -60.75 -3.125 C-60.11642578 -3.57609131 -59.48285156 -4.02718262 -58.83007812 -4.49194336 C-38.65597614 -18.40345665 -18.53718102 -13.6191534 0 0 Z " fill="#FFD660" transform="translate(237.0625,221.25)"/>
<path d="M0 0 C1.14082031 -0.020625 2.28164063 -0.04125 3.45703125 -0.0625 C5.10251953 -0.07023438 5.10251953 -0.07023438 6.78125 -0.078125 C8.28268555 -0.09214355 8.28268555 -0.09214355 9.81445312 -0.10644531 C12.94947441 0.30965751 14.29165063 1.00471746 16.5 3.25 C18.04581142 10.62233137 17.2482092 17.80244076 16.5 25.25 C17.36367188 25.35183594 18.22734375 25.45367187 19.1171875 25.55859375 C22.75068896 26.30123781 25.37206715 27.55292123 28.625 29.3125 C32.44176382 31.37627178 34.08547221 32.25 38.5 32.25 C38.5 31.59 38.5 30.93 38.5 30.25 C40.1796875 28.5234375 40.1796875 28.5234375 42.375 26.625 C43.09429687 25.99335938 43.81359375 25.36171875 44.5546875 24.7109375 C46.5 23.25 46.5 23.25 48.5 23.25 C48.5 22.59 48.5 21.93 48.5 21.25 C54.73580786 20.63864629 54.73580786 20.63864629 58 23.25 C58.825 24.24 59.65 25.23 60.5 26.25 C61.11488281 26.92417969 61.72976563 27.59835938 62.36328125 28.29296875 C67.5 33.94438878 67.5 33.94438878 67.5 36.25 C68.16 36.25 68.82 36.25 69.5 36.25 C72.5 39.71153846 72.5 39.71153846 72.5 42.25 C73.16 42.25 73.82 42.25 74.5 42.25 C75.82365145 48.38692946 75.82365145 48.38692946 74.5625 51.75 C72.11049265 54.72213013 69.38756459 57.13200085 66.4375 59.6015625 C65.4784375 60.41753906 65.4784375 60.41753906 64.5 61.25 C63.68631958 61.91938599 63.68631958 61.91938599 62.85620117 62.60229492 C61.31070844 64.13931835 61.31070844 64.13931835 61.43481445 66.15112305 C61.5762085 66.84761963 61.71760254 67.54411621 61.86328125 68.26171875 C62.00830078 69.01904297 62.15332031 69.77636719 62.30273438 70.55664062 C62.47095703 71.34232422 62.63917969 72.12800781 62.8125 72.9375 C62.96912109 73.73478516 63.12574219 74.53207031 63.28710938 75.35351562 C63.67611006 77.32209486 64.08607514 79.28651026 64.5 81.25 C65.67755859 81.43175781 65.67755859 81.43175781 66.87890625 81.6171875 C70.09219919 82.12973729 73.29631474 82.68063416 76.5 83.25 C77.59634766 83.43175781 77.59634766 83.43175781 78.71484375 83.6171875 C81.86149061 84.29196079 83.51073137 85.26044231 85.8203125 87.5078125 C89.04806654 92.64021836 86.61013654 98.87137687 85.375 104.375 C85.13523437 105.55449219 84.89546875 106.73398437 84.6484375 107.94921875 C82.57565874 117.85124338 82.57565874 117.85124338 80.5 121.25 C73.84155124 124.57922438 65.15855058 121.11439416 58.5 119.25 C57.66855469 120.65765625 57.66855469 120.65765625 56.8203125 122.09375 C56.0889246 123.31272984 55.35713286 124.53146745 54.625 125.75 C54.26019531 126.37003906 53.89539063 126.99007812 53.51953125 127.62890625 C52.5677482 129.20367458 51.53889741 130.73129053 50.5 132.25 C49.84 132.25 49.18 132.25 48.5 132.25 C48.5 132.91 48.5 133.57 48.5 134.25 C47.84 134.25 47.18 134.25 46.5 134.25 C46.70496094 134.78109375 46.90992188 135.3121875 47.12109375 135.859375 C47.39050781 136.56578125 47.65992188 137.2721875 47.9375 138 C48.20433594 138.69609375 48.47117187 139.3921875 48.74609375 140.109375 C49.46146693 142.14059003 50.01365652 144.1535291 50.5 146.25 C51.16 146.25 51.82 146.25 52.5 146.25 C54.35272826 149.37647895 55.11875267 151.62587724 54.5 155.25 C50.37915864 160.64972316 44.21785784 163.75805209 38.5 167.25 C37.86707031 167.69085938 37.23414063 168.13171875 36.58203125 168.5859375 C31.67691577 171.87154929 27.16429459 171.66029096 21.5 171.25 C21.5 170.59 21.5 169.93 21.5 169.25 C20.84 169.25 20.18 169.25 19.5 169.25 C18.02690889 167.14980986 16.68690365 165.07232271 15.375 162.875 C15.00246094 162.27171875 14.62992187 161.6684375 14.24609375 161.046875 C11.5 156.52034684 11.5 156.52034684 11.5 154.25 C10.87480469 154.43304688 10.24960937 154.61609375 9.60546875 154.8046875 C6.7865457 155.20891043 4.78262637 155.13721469 1.98828125 154.8203125 C-7.12863927 153.61098432 -7.12863927 153.61098432 -15.35839844 156.68554688 C-18.0150233 159.77971406 -19.8919342 163.14508137 -21.72265625 166.7734375 C-23.5 170.25 -23.5 170.25 -26.5 172.25 C-33.3145586 172.25 -37.92793355 168.87345361 -43.5 165.25 C-44.49515625 164.62867188 -45.4903125 164.00734375 -46.515625 163.3671875 C-54.17482517 158.57517483 -54.17482517 158.57517483 -56.5 156.25 C-57.46256558 149.51204092 -55.61187186 146.11450948 -51.71484375 140.64453125 C-50.26372853 138.30330662 -50.26372853 138.30330662 -50.71875 135.6171875 C-51.6211449 132.88293094 -52.98412696 130.68857837 -54.5 128.25 C-54.5 127.59 -54.5 126.93 -54.5 126.25 C-55.16 126.25 -55.82 126.25 -56.5 126.25 C-57.49 124.27 -58.48 122.29 -59.5 120.25 C-60.758125 120.415 -62.01625 120.58 -63.3125 120.75 C-67.00078795 121.14747002 -70.66622372 121.40123099 -74.375 121.5 C-75.27992188 121.52578125 -76.18484375 121.5515625 -77.1171875 121.578125 C-79.97104006 121.18513547 -80.77869992 120.51089258 -82.5 118.25 C-86.4666031 109.15014583 -88.35069911 95.96940582 -86.5 86.25 C-83.26420617 83.5361084 -80.05008686 82.73172484 -75.9375 82.0625 C-75.00808594 81.90394531 -74.07867187 81.74539063 -73.12109375 81.58203125 C-70.5 81.25 -70.5 81.25 -66.5 81.25 C-66.54125 80.321875 -66.5825 79.39375 -66.625 78.4375 C-66.6462373 73.2768365 -65.52043018 68.28837402 -64.5 63.25 C-65.16 63.25 -65.82 63.25 -66.5 63.25 C-66.5 62.59 -66.5 61.93 -66.5 61.25 C-67.16 61.25 -67.82 61.25 -68.5 61.25 C-68.5 60.59 -68.5 59.93 -68.5 59.25 C-69.16 59.25 -69.82 59.25 -70.5 59.25 C-70.5 58.59 -70.5 57.93 -70.5 57.25 C-71.0775 57.023125 -71.655 56.79625 -72.25 56.5625 C-75.19071898 54.8470806 -76.67275686 53.12138207 -78.5 50.25 C-78.96085481 47.31309797 -79.03685622 45.21038232 -77.55859375 42.56591797 C-76.23147786 40.7473351 -74.83374258 39.02726104 -73.375 37.3125 C-72.61340576 36.39380127 -72.61340576 36.39380127 -71.83642578 35.45654297 C-70.83731398 34.25319107 -69.83339685 33.05380921 -68.82421875 31.85888672 C-67.74313002 30.54539581 -66.7348354 29.17227933 -65.75 27.78515625 C-63.85380152 25.1509487 -62.41719618 23.40944636 -59.140625 22.83984375 C-56.87605861 22.8152289 -54.74067394 22.93630565 -52.5 23.25 C-52.5 23.91 -52.5 24.57 -52.5 25.25 C-51.84 25.25 -51.18 25.25 -50.5 25.25 C-50.5 25.91 -50.5 26.57 -50.5 27.25 C-49.96375 27.476875 -49.4275 27.70375 -48.875 27.9375 C-45.71499137 29.68382056 -43.2323017 31.8902849 -40.5 34.25 C-39.85933594 33.85167969 -39.21867187 33.45335937 -38.55859375 33.04296875 C-25.83576642 25.25 -25.83576642 25.25 -20.5 25.25 C-20.51160156 24.57195312 -20.52320313 23.89390625 -20.53515625 23.1953125 C-20.58195239 18.36862476 -20.54262003 13.56542757 -20.1875 8.75 C-20.12949219 7.9559375 -20.07148438 7.161875 -20.01171875 6.34375 C-19.38083776 3.76243543 -18.61472384 2.83725267 -16.5 1.25 C-11.20648936 -0.466974 -5.50026642 0.02485996 0 0 Z M-31.5 64.25 C-32.5209375 65.301875 -32.5209375 65.301875 -33.5625 66.375 C-39.56064741 75.2754768 -40.64173666 84.71089234 -39.5 95.25 C-38.46449641 99.39201437 -37.14289754 103.31144651 -35.5 107.25 C-34.84 107.25 -34.18 107.25 -33.5 107.25 C-33.273125 107.95125 -33.04625 108.6525 -32.8125 109.375 C-31.16158712 112.99128535 -29.2091165 115.33769976 -26.5 118.25 C-25.84 118.25 -25.18 118.25 -24.5 118.25 C-24.5 118.91 -24.5 119.57 -24.5 120.25 C-21.68490007 122.5273501 -21.68490007 122.5273501 -18.5 122.25 C-18.5 122.91 -18.5 123.57 -18.5 124.25 C-7.56147522 128.39824416 4.64185225 129.13693007 15.5 124.25 C21.08040995 120.70432436 26.92356846 116.94087586 30.5 111.25 C30.5 110.59 30.5 109.93 30.5 109.25 C31.16 109.25 31.82 109.25 32.5 109.25 C38.45821066 98.32661379 39.45212118 89.39163408 36.375 77.3125 C34.49320379 71.42369495 31.32239294 66.09476792 27.5 61.25 C26.84 61.25 26.18 61.25 25.5 61.25 C25.5 60.59 25.5 59.93 25.5 59.25 C5.51767356 47.70880585 -14.46999675 45.8755228 -31.5 64.25 Z " fill="#FFD660" transform="translate(332.5,207.75)"/>
<path d="M0 0 C0 0.66 0 1.32 0 2 C0.66 2 1.32 2 2 2 C2 2.66 2 3.32 2 4 C2.66 4 3.32 4 4 4 C5.4375 6.01171875 5.4375 6.01171875 7 8.6875 C7.515625 9.55761719 8.03125 10.42773438 8.5625 11.32421875 C14.72841927 22.80154131 14.22039978 36.62784267 11 49 C8.7919077 55.75655893 5.60100139 61.89010419 2 68 C1.34 68 0.68 68 0 68 C-0.25394531 68.59683594 -0.50789063 69.19367188 -0.76953125 69.80859375 C-3.46093666 74.60185862 -9.6944861 78.58677349 -14.7578125 80.5234375 C-21.84849 82.0305153 -30.26869837 82.67274615 -36.625 78.75 C-37.78005544 77.87150713 -38.90386007 76.95098898 -40 76 C-41.24330078 75.10474609 -41.24330078 75.10474609 -42.51171875 74.19140625 C-45.32100622 71.7172928 -46.5769487 69.55109105 -48.1875 66.1875 C-48.92033203 64.69283203 -48.92033203 64.69283203 -49.66796875 63.16796875 C-54.90564139 50.71121651 -54.87959792 35.52193209 -50.26953125 22.83203125 C-47.15594169 15.88633147 -43.24368462 9.53500043 -38 4 C-37.34 4 -36.68 4 -36 4 C-36 3.34 -36 2.68 -36 2 C-35.34 2 -34.68 2 -34 2 C-34 1.34 -34 0.68 -34 0 C-22.68471751 -6.03668917 -11.18098324 -7.45398883 0 0 Z " fill="#FFD660" transform="translate(263,121)"/>
<path d="M0 0 C3.20423231 2.10689248 6.25875116 4.31059511 9 7 C9 7.66 9 8.32 9 9 C9.66 9 10.32 9 11 9 C11 9.66 11 10.32 11 11 C11.66 11 12.32 11 13 11 C21.83085275 27.13747613 25.77362648 42.60309473 21.0390625 60.921875 C17.85267518 70.36124797 12.43161891 76.57571851 4.125 81.8125 C-3.81746372 84.83063621 -10.17428978 84.1221039 -18 81 C-21.125 79.4375 -21.125 79.4375 -23 78 C-23 77.34 -23 76.68 -23 76 C-23.61875 75.7525 -24.2375 75.505 -24.875 75.25 C-27.35068687 73.79371361 -27.95125002 72.62187494 -29 70 C-29.66 70 -30.32 70 -31 70 C-41.06246861 57.72437847 -43.35532188 41.48960827 -42.24365234 26.19091797 C-41.18311347 16.65456939 -36.1242846 8.33269742 -29 2 C-28.34 2 -27.68 2 -27 2 C-27 1.34 -27 0.68 -27 0 C-17.65236901 -3.71253429 -9.24680418 -4.55227283 0 0 Z " fill="#FFD660" transform="translate(176,119)"/>
<path d="M0 0 C3.125 2.1875 3.125 2.1875 5 4 C5 4.66 5 5.32 5 6 C5.66 6 6.32 6 7 6 C7 6.66 7 7.32 7 8 C7.66 8 8.32 8 9 8 C17.47399598 22.15016431 23.90798926 35.95009997 20 53 C17.00308463 60.42093331 13.02482614 64.48758693 6 68 C-2.54508218 70.61195832 -10.19489447 68.95656734 -18 65 C-21.375 62.9375 -21.375 62.9375 -24 61 C-24.78375 60.46375 -25.5675 59.9275 -26.375 59.375 C-27.179375 58.694375 -27.179375 58.694375 -28 58 C-28 57.34 -28 56.68 -28 56 C-28.66 56 -29.32 56 -30 56 C-38.58949674 46.22052261 -43.39933512 34.09805919 -43.1484375 21.1015625 C-42.51672793 12.15788495 -39.51422188 5.59409056 -33.25 -0.8125 C-22.12026002 -8.30367114 -11.12901263 -6.84554374 0 0 Z " fill="#FFD660" transform="translate(122,178)"/>
<path d="M0 0 C5.00618053 4.27458839 7.63467053 9.13821156 8.87109375 15.59765625 C8.4453125 17.875 8.4453125 17.875 7.87109375 19.59765625 C6.85789062 19.7678125 5.8446875 19.93796875 4.80078125 20.11328125 C3.44908574 20.35733738 2.09753037 20.60217057 0.74609375 20.84765625 C0.0809375 20.95722656 -0.58421875 21.06679687 -1.26953125 21.1796875 C-6.95647238 22.23901967 -11.17808846 24.20250903 -14.9296875 28.80859375 C-16.81733578 33.19875946 -17.11783667 37.79887914 -17.50585938 42.53515625 C-17.80271361 44.80639001 -18.10138874 46.54631428 -19.12890625 48.59765625 C-21.64741737 50.28449041 -24.14312998 51.12449428 -27.12890625 51.59765625 C-30.41434103 50.87646325 -32.39117536 49.42102604 -35.19140625 47.53515625 C-40.0654533 44.62155924 -45.58707781 44.7796539 -51.12890625 44.59765625 C-51.66899173 33.79594666 -48.92155429 24.23160866 -44.12890625 14.59765625 C-43.46890625 14.59765625 -42.80890625 14.59765625 -42.12890625 14.59765625 C-41.85046875 13.32921875 -41.85046875 13.32921875 -41.56640625 12.03515625 C-38.24315521 4.08825158 -30.70240734 -0.77388181 -23.12890625 -4.40234375 C-14.6209791 -6.69706858 -6.99341529 -5.27310992 0 0 Z " fill="#FFD660" transform="translate(320.12890625,177.40234375)"/>
</svg>
