<?xml version="1.0" encoding="UTF-8"?>
<!DOCTYPE svg PUBLIC "-//W3C//DTD SVG 1.1//EN" "http://www.w3.org/Graphics/SVG/1.1/DTD/svg11.dtd">
<svg xmlns="http://www.w3.org/2000/svg" version="1.1" width="1920px" height="1080px" style="shape-rendering:geometricPrecision; text-rendering:geometricPrecision; image-rendering:optimizeQuality; fill-rule:evenodd; clip-rule:evenodd" xmlns:xlink="http://www.w3.org/1999/xlink">
<g><path style="opacity:0.991" fill="#e85433" d="M 1151.5,18.5 C 1155.51,19.1719 1159.68,19.1719 1164,18.5C 1232.31,24.5595 1281.64,59.8928 1312,124.5C 1322.16,151.919 1328.16,180.253 1330,209.5C 1331.46,238.812 1334.13,268.146 1338,297.5C 1342.83,307.167 1347.67,316.833 1352.5,326.5C 1360.9,336.406 1370.07,345.406 1380,353.5C 1385.94,356.648 1392.28,359.981 1399,363.5C 1399.33,363.167 1399.67,362.833 1400,362.5C 1418.77,371.8 1437.6,380.967 1456.5,390C 1485.98,401.598 1512.48,419.098 1536,442.5C 1582.72,494.451 1594.72,553.451 1572,619.5C 1550.17,659.138 1518.5,685.138 1477,697.5C 1473.33,699.5 1469.67,701.5 1466,703.5C 1465.67,703.167 1465.33,702.833 1465,702.5C 1459.25,705.868 1453.25,707.202 1447,706.5C 1440.58,708.748 1434.58,711.081 1429,713.5C 1426.33,713.5 1423.67,713.5 1421,713.5C 1420.15,715.125 1419.15,715.458 1418,714.5C 1414.44,716.643 1411.11,717.309 1408,716.5C 1406.45,718.146 1404.78,718.479 1403,717.5C 1397.27,718.516 1391.6,719.85 1386,721.5C 1384.33,721.167 1382.67,720.833 1381,720.5C 1378.67,721.167 1376.33,721.833 1374,722.5C 1361.24,723.65 1349.24,723.65 1338,722.5C 1335.67,723.167 1333.33,723.833 1331,724.5C 1322.95,723.697 1314.95,723.364 1307,723.5C 1305.67,724.167 1304.33,724.833 1303,725.5C 1282,725.499 1261.67,725.499 1242,725.5C 1237.33,724.833 1232.67,724.167 1228,723.5C 1225,723.833 1222,724.167 1219,724.5C 1213.08,722.955 1207.75,722.622 1203,723.5C 1198.45,722.242 1193.78,721.242 1189,720.5C 1187.11,721.089 1185.11,721.423 1183,721.5C 1180.33,720.833 1177.67,720.167 1175,719.5C 1169.39,719.439 1163.73,719.439 1158,719.5C 1152.08,717.955 1146.75,717.622 1142,718.5C 1135.22,717.272 1128.22,716.272 1121,715.5C 1119.09,715.421 1117.09,715.754 1115,716.5C 1113.68,715.12 1112.34,714.786 1111,715.5C 1106.26,714.862 1101.6,713.862 1097,712.5C 1094.58,713.488 1092.25,713.155 1090,711.5C 1089.67,711.833 1089.33,712.167 1089,712.5C 1087,711.833 1085,711.167 1083,710.5C 1081.66,711.214 1080.32,710.88 1079,709.5C 1047.56,704.754 1017.23,693.754 988,676.5C 987.667,676.833 987.333,677.167 987,677.5C 973.352,667.689 959.519,656.523 945.5,644C 945.833,643.667 946.167,643.333 946.5,643C 934.087,628.212 922.587,612.045 912,594.5C 909.2,587.714 906.7,581.214 904.5,575C 904.833,574.667 905.167,574.333 905.5,574C 900.902,562.46 897.568,550.127 895.5,537C 895.833,536.667 896.167,536.333 896.5,536C 895.74,529.672 894.74,523.339 893.5,517C 893.649,508.776 893.649,500.443 893.5,492C 894.231,488.049 894.898,484.049 895.5,480C 895.355,479.228 895.022,478.561 894.5,478C 896.126,473.759 896.459,469.759 895.5,466C 897.579,456.586 898.912,447.586 899.5,439C 911.804,391.749 925.137,344.749 939.5,298C 939.167,297.667 938.833,297.333 938.5,297C 956.599,247.68 976.433,199.18 998,151.5C 1007.01,136.14 1017.01,121.473 1028,107.5C 1034.17,96.6575 1041.51,86.6575 1050,77.5C 1058.17,69.3333 1066.33,61.1667 1074.5,53C 1085.86,44.7813 1097.36,37.6147 1109,31.5C 1109.33,31.8333 1109.67,32.1667 1110,32.5C 1112.2,30.9831 1114.54,29.6498 1117,28.5C 1117.33,28.8333 1117.67,29.1667 1118,29.5C 1124.41,26.1678 1130.74,23.5012 1137,21.5C 1137.33,21.8333 1137.67,22.1667 1138,22.5C 1140.93,21.2494 1143.93,20.2494 1147,19.5C 1147.33,19.8333 1147.67,20.1667 1148,20.5C 1149.3,19.9152 1150.47,19.2485 1151.5,18.5 Z"/></g>
<g><path style="opacity:0.982" fill="#e85433" d="M 791.5,192.5 C 803.669,192.828 815.503,192.828 827,192.5C 828.667,193.167 830.333,193.833 832,194.5C 833.268,194.384 834.602,194.051 836,193.5C 839.178,194.856 842.178,195.856 845,196.5C 866.786,198.274 884.453,208.608 898,227.5C 923.913,267.11 923.08,305.776 895.5,343.5C 887.391,352.728 879.057,361.728 870.5,370.5C 861.437,377.144 852.77,383.644 844.5,390C 828.901,398.023 814.067,406.523 800,415.5C 799.667,415.167 799.333,414.833 799,414.5C 766.96,431.536 733.294,441.203 698,443.5C 696.667,444.167 695.333,444.833 694,445.5C 693,445.167 692,444.833 691,444.5C 685.931,445.583 681.265,446.25 677,446.5C 670.416,445.52 663.583,444.186 656.5,442.5C 653.568,443.062 650.735,442.396 648,440.5C 638.313,438.823 629.98,434.489 623,427.5C 622.667,427.833 622.333,428.167 622,428.5C 620.307,426.396 618.14,424.896 615.5,424C 610.634,419.11 606.134,413.944 602,408.5C 601.222,406.416 600.055,404.583 598.5,403C 598.833,402.667 599.167,402.333 599.5,402C 592.373,389.838 587.04,376.671 583.5,362.5C 584.718,361.197 584.385,360.197 582.5,359.5C 582.709,358.914 583.043,358.414 583.5,358C 581.862,353.851 580.862,349.518 580.5,345C 580.723,333.412 582.89,322.246 587,311.5C 592.739,302.988 597.739,293.988 602,284.5C 614.43,266.735 630.096,251.069 649,237.5C 649.333,237.833 649.667,238.167 650,238.5C 650.956,237.421 651.789,236.255 652.5,235C 665.896,226.925 679.729,219.758 694,213.5C 694.333,213.833 694.667,214.167 695,214.5C 704.533,209.1 714.533,205.766 725,204.5C 726.667,203.5 728.333,202.5 730,201.5C 731.779,202.479 733.445,202.146 735,200.5C 737,200.5 739,200.5 741,200.5C 745.667,199.167 750.333,197.833 755,196.5C 758,196.5 761,196.5 764,196.5C 765.333,195.833 766.667,195.167 768,194.5C 773.936,194.266 779.602,194.266 785,194.5C 787.277,193.883 789.444,193.216 791.5,192.5 Z"/></g>
<g><path style="opacity:0.981" fill="#e85433" d="M 809.5,508.5 C 809.842,509.338 810.508,509.672 811.5,509.5C 817.537,515.043 823.87,520.376 830.5,525.5C 849.031,548.657 854.197,573.99 846,601.5C 837.201,628.281 823.868,651.281 806,670.5C 794.938,681.695 783.105,692.195 770.5,702C 768.283,703.275 765.949,704.275 763.5,705C 760.405,707.661 756.738,710.328 752.5,713C 736.155,720.591 720.322,728.424 705,736.5C 701.591,736.405 698.258,737.405 695,739.5C 693.853,738.542 692.853,738.875 692,740.5C 691.667,740.167 691.333,739.833 691,739.5C 686.667,741.5 682.333,743.5 678,745.5C 677.667,745.167 677.333,744.833 677,744.5C 670.228,747.988 663.228,749.988 656,750.5C 654.333,751.5 652.667,752.5 651,753.5C 649,753.5 647,753.5 645,753.5C 641.151,755.295 637.151,756.629 633,757.5C 631.221,756.521 629.555,756.854 628,758.5C 626.221,757.521 624.555,757.854 623,759.5C 618.333,759.5 613.667,759.5 609,759.5C 607.333,758.833 605.667,758.167 604,757.5C 602.111,758.089 600.111,758.423 598,758.5C 595.753,756.845 593.42,756.512 591,757.5C 588.395,755.68 585.728,755.014 583,755.5C 581.055,753.819 579.055,753.152 577,753.5C 574.074,751.794 571.741,750.127 570,748.5C 569.667,748.833 569.333,749.167 569,749.5C 557.653,742.601 547.486,734.934 538.5,726.5C 534.163,719.292 530.163,712.292 526.5,705.5C 527.718,704.197 527.385,703.197 525.5,702.5C 525.709,701.914 526.043,701.414 526.5,701C 523.25,692.585 520.25,684.085 517.5,675.5C 517.805,668.845 517.805,662.012 517.5,655C 518.002,651.803 519.002,648.803 520.5,646C 520.518,638.884 522.518,631.884 526.5,625C 529.513,615.872 534.513,607.538 541.5,600C 541.167,599.667 540.833,599.333 540.5,599C 554.447,582.721 569.78,567.721 586.5,554C 603.581,541.911 620.915,530.245 638.5,519C 649.475,514.531 659.809,509.531 669.5,504C 675.168,503.408 680.335,501.575 685,498.5C 685.333,498.833 685.667,499.167 686,499.5C 702.63,491.044 719.797,488.044 737.5,490.5C 744.265,488.551 751.265,488.551 758.5,490.5C 759.442,490.392 760.275,490.059 761,489.5C 769.065,492.325 777.399,495.325 786,498.5C 786.414,498.043 786.914,497.709 787.5,497.5C 794.41,501.748 801.744,505.415 809.5,508.5 Z"/></g>
<g><path style="opacity:0.004" fill="#e85433" d="M 817.5,506.5 C 816.791,507.404 815.791,507.737 814.5,507.5C 815.105,505.519 816.105,505.185 817.5,506.5 Z"/></g>
<g><path style="opacity:0.004" fill="#e85433" d="M 817.5,505.5 C 818.833,506.167 818.833,506.167 817.5,505.5 Z"/></g>
<g><path style="opacity:0.007" fill="#e85433" d="M 814.5,507.5 C 813.71,508.401 812.71,509.068 811.5,509.5C 811.158,508.662 810.492,508.328 809.5,508.5C 810.748,506.31 812.414,505.977 814.5,507.5 Z"/></g>
<g><path style="opacity:0.981" fill="#e85433" d="M 905.5,700.5 C 908.009,701.113 910.509,701.78 913,702.5C 936.2,701.618 956.533,709.951 974,727.5C 984.599,741.39 990.766,756.557 992.5,773C 993.962,780.075 994.962,787.242 995.5,794.5C 993.96,799.381 993.627,804.214 994.5,809C 993.721,815.897 992.554,822.73 991,829.5C 986.234,843.253 980.567,856.586 974,869.5C 971.181,873.649 968.014,877.483 964.5,881C 964.833,881.333 965.167,881.667 965.5,882C 964.5,882.5 963.5,883 962.5,883.5C 958.181,888.66 954.015,893.993 950,899.5C 941.232,907.92 932.732,916.42 924.5,925C 905.009,939.246 885.343,953.246 865.5,967C 858.513,969.827 851.846,973.16 845.5,977C 833.976,982.386 822.476,986.886 811,990.5C 809,990.5 807,990.5 805,990.5C 804.333,991.167 803.667,991.833 803,992.5C 799.408,993.325 796.075,993.325 793,992.5C 790.667,993.167 788.333,993.833 786,994.5C 781.333,994.5 776.667,994.5 772,994.5C 767.641,993.429 762.975,992.429 758,991.5C 753.518,991.451 749.184,990.118 745,987.5C 744.667,987.833 744.333,988.167 744,988.5C 740.195,985.681 736.029,983.514 731.5,982C 724.266,975.871 717.266,970.371 710.5,965.5C 706.436,961.692 702.603,957.692 699,953.5C 695.688,948.379 692.855,943.046 690.5,937.5C 690.709,936.914 691.043,936.414 691.5,936C 690.07,933.945 688.737,931.779 687.5,929.5C 687.709,928.914 688.043,928.414 688.5,928C 686.004,922.612 684.337,917.279 683.5,912C 684.732,908.236 684.732,904.236 683.5,900C 684.839,879.972 690.672,861.138 701,843.5C 706.045,836.577 711.212,829.744 716.5,823C 716.167,822.667 715.833,822.333 715.5,822C 726.378,809.457 736.878,796.624 747,783.5C 763.855,767.314 781.355,751.814 799.5,737C 804.921,734.786 809.921,731.786 814.5,728C 829.627,719.755 845.794,712.922 863,707.5C 864.147,708.458 865.147,708.125 866,706.5C 867.147,707.458 868.147,707.125 869,705.5C 871,705.5 873,705.5 875,705.5C 876.705,704.237 878.372,703.903 880,704.5C 889.034,702.433 897.534,701.1 905.5,700.5 Z"/></g>
<g><path style="opacity:0.982" fill="#e85433" d="M 1037.5,1026.5 C 1034.13,1023.96 1031.13,1020.96 1028.5,1017.5C 1026.83,1016.67 1025.17,1015.83 1023.5,1015C 1023.83,1014.67 1024.17,1014.33 1024.5,1014C 1022.19,1012.03 1019.86,1010.03 1017.5,1008C 1017.83,1007.67 1018.17,1007.33 1018.5,1007C 1013.55,1002.08 1010.21,996.583 1008.5,990.5C 1004.79,982.434 1002.12,974.267 1000.5,966C 1000.97,960.979 1000.97,955.813 1000.5,950.5C 1002.13,937.668 1005.3,924.668 1010,911.5C 1012.25,907.332 1014.75,903.332 1017.5,899.5C 1026.56,875.384 1039.73,853.717 1057,834.5C 1062.05,830.116 1066.38,825.116 1070,819.5C 1090.33,798.504 1112.5,779.671 1136.5,763C 1147.37,758.602 1158.2,753.436 1169,747.5C 1169.33,747.833 1169.67,748.167 1170,748.5C 1173.1,747.289 1176.1,745.956 1179,744.5C 1180.15,745.458 1181.15,745.125 1182,743.5C 1183,743.833 1184,744.167 1185,744.5C 1188.68,743.419 1192.68,742.419 1197,741.5C 1203.63,741.506 1210.63,741.506 1218,741.5C 1233.88,744.84 1248.71,751.84 1262.5,762.5C 1268.83,770.331 1275.66,777.664 1283,784.5C 1289.9,795.393 1294.07,807.06 1295.5,819.5C 1295.24,840.979 1291.41,861.979 1284,882.5C 1268.74,927.255 1244.9,966.588 1212.5,1000.5C 1190.53,1021.21 1165.86,1036.04 1138.5,1045C 1129.75,1046.61 1121.42,1048.61 1113.5,1051C 1106.39,1052.2 1099.55,1052.7 1093,1052.5C 1089.07,1051.94 1085.23,1050.94 1081.5,1049.5C 1075.47,1049.63 1069.47,1047.8 1063.5,1044C 1059.77,1040.6 1055.1,1037.77 1049.5,1035.5C 1045.48,1032.48 1041.48,1029.48 1037.5,1026.5 Z"/></g>
<g><path style="opacity:0.004" fill="#e85433" d="M 1037.5,1026.5 C 1036.83,1027.17 1036.83,1027.17 1037.5,1026.5 Z"/></g>
</svg>
